<?xml version="1.0" standalone="no"?>
<!DOCTYPE svg PUBLIC "-//W3C//DTD SVG 1.1//EN" "http://www.w3.org/Graphics/SVG/1.1/DTD/svg11.dtd" >
<svg xmlns="http://www.w3.org/2000/svg" xmlns:xlink="http://www.w3.org/1999/xlink" version="1.1">
<metadata>
Created by FontForge 20170731 at Tue Jun 26 01:26:22 2012
 By Aleksey,,,
(c)2012 Kai Bernau and Susana Carvalho with Christian Schwartz under exclusive license to Schwartzco Inc./Commercial Type. All rights reserved.
</metadata>
<defs>
<font id="AtlasGrotesk-RegularItalic" horiz-adv-x="600" >
  <font-face 
    font-family="Atlas Grotesk Regular"
    font-weight="400"
    font-style="italic"
    font-stretch="normal"
    units-per-em="1000"
    panose-1="0 0 0 0 0 0 0 0 0 0"
    ascent="812"
    descent="-188"
    x-height="527"
    cap-height="765"
    bbox="-237 -212 1209 1174"
    underline-thickness="50"
    underline-position="-200"
    slope="-11"
    unicode-range="U+0020-FB02"
  />
<missing-glyph horiz-adv-x="500" 
 />
    <glyph glyph-name="f_f" unicode="ff" horiz-adv-x="680" 
d="M238 458l-88 -458h-88l89 458h-90l14 69h89l24 122q26 136 175 136q37 0 59 -6l-14 -74q-20 5 -49 5q-36 0 -57 -17.5t-30 -59.5l-20 -106h242l25 128q26 136 175 136q36 0 59 -6l-14 -74q-20 5 -49 5q-36 0 -57 -17.5t-30 -59.5l-22 -112h121l-13 -69h-121l-88 -458h-88
l89 458h-243z" />
    <glyph glyph-name="fi" unicode="fi" horiz-adv-x="631" 
d="M522 647l19 97h93l-19 -97h-93zM399 0l102 527h89l-102 -527h-89zM238 458l-88 -458h-88l89 458h-90l14 69h89l25 128q26 136 175 136q36 0 59 -6l-14 -74q-20 5 -49 5q-36 0 -57 -17.5t-30 -59.5l-22 -112h121l-13 -69h-121z" />
    <glyph glyph-name="fl" unicode="fl" horiz-adv-x="630" 
d="M399 0l153 788h89l-153 -788h-89zM238 458l-88 -458h-88l89 458h-90l14 69h89l25 128q26 136 175 136q36 0 59 -6l-14 -74q-20 5 -49 5q-36 0 -57 -17.5t-30 -59.5l-22 -112h121l-13 -69h-121z" />
    <glyph glyph-name=".notdef" horiz-adv-x="500" 
 />
    <glyph glyph-name=".null" horiz-adv-x="0" 
 />
    <glyph glyph-name="nonmarkingreturn" horiz-adv-x="333" 
 />
    <glyph glyph-name="space" unicode=" " horiz-adv-x="267" 
 />
    <glyph glyph-name="exclam" unicode="!" horiz-adv-x="255" 
d="M88 237l98 551h100l-123 -551h-75zM141 0h-116l22 118h116z" />
    <glyph glyph-name="quotedbl" unicode="&#x22;" horiz-adv-x="346" 
d="M267 544l25 221h98l-62 -221h-61zM108 544l24 221h98l-62 -221h-60z" />
    <glyph glyph-name="numbersign" unicode="#" horiz-adv-x="654" 
d="M277 373h124l49 142h-125zM110 99l66 198h-108l15 76h119l48 142h-110l14 76h121l59 174h75l-59 -174h124l59 174h76l-60 -174h112l-14 -76h-123l-47 -142h112l-15 -76h-124l-65 -198h-76l66 198h-125l-65 -198h-75z" />
    <glyph glyph-name="dollar" unicode="$" horiz-adv-x="614" 
d="M308 442l46 236q-59 -5 -97 -38t-38 -88q0 -76 89 -110zM300 66h5q65 7 111 45t46 101q0 46 -26 74t-84 49zM265 -116h-65l22 111q-91 12 -142.5 67.5t-45.5 159.5h91q-3 -136 111 -154l56 288l-20 7q-70 23 -106 69t-36 108q0 92 66.5 149t171.5 61l15 78h65l-16 -82
q84 -13 130.5 -66t40.5 -147h-88q4 54 -21 91.5t-76 49.5l-49 -253l20 -7q89 -32 126.5 -76.5t37.5 -118.5q0 -99 -75.5 -161t-191.5 -66z" />
    <glyph glyph-name="percent" unicode="%" horiz-adv-x="812" 
d="M40 -40l695 821h93l-696 -821h-92zM79 520q0 88 47.5 154t142.5 66q74 0 111.5 -39.5t37.5 -100.5q0 -41 -10.5 -78.5t-31.5 -70.5t-59.5 -52.5t-88.5 -19.5q-74 0 -111.5 39.5t-37.5 101.5zM229 443q32 0 55 17t34 43.5t15.5 51t4.5 47.5q0 33 -17 55t-55 22
q-55 0 -82 -50.5t-27 -108.5q0 -77 72 -77zM587 -7q-74 0 -112 39.5t-38 101.5q0 88 48 154t143 66q74 0 111.5 -39.5t37.5 -100.5q0 -41 -10.5 -78.5t-31.5 -70.5t-59.5 -52.5t-88.5 -19.5zM588 57q32 0 55 17t34 43.5t15.5 51t4.5 47.5q0 33 -17 55t-55 22q-39 0 -65 -28
t-35 -61.5t-9 -69.5q0 -77 72 -77z" />
    <glyph glyph-name="ampersand" unicode="&#x26;" horiz-adv-x="689" 
d="M275 597q0 -60 41 -138q36 19 58.5 33t47 34t36.5 44.5t12 52.5q0 43 -22.5 69.5t-61.5 26.5q-47 0 -79 -34t-32 -88zM269 363l-7 -3q-135 -69 -135 -175q0 -57 34.5 -93t91.5 -36q88 0 158 60q-20 28 -49 80zM633 -2h-12q-103 0 -165 61q-90 -75 -207 -75
q-92 0 -151.5 52t-59.5 144q0 146 200 244q-48 87 -48 166q0 85 57 140t141 55q73 0 120 -43t47 -116q0 -32 -12.5 -61t-29 -49.5t-48 -44t-54.5 -37.5t-64 -36l91 -161q24 -42 32 -54q58 83 81 199h81q-39 -159 -117 -260q43 -43 133 -47z" />
    <glyph glyph-name="quotesingle" unicode="'" horiz-adv-x="186" 
d="M108 544l24 221h98l-62 -221h-60z" />
    <glyph glyph-name="parenleft" unicode="(" horiz-adv-x="326" 
d="M230 -130h-67q-21 53 -33.5 89.5t-24 101t-11.5 133.5q0 299 236 594h73q-108 -150 -164.5 -295.5t-59.5 -314.5q-2 -147 51 -308z" />
    <glyph glyph-name="parenright" unicode=")" horiz-adv-x="326" 
d="M127 788h67q21 -53 33.5 -89.5t24 -101t11.5 -133.5q0 -299 -236 -594h-73q108 150 164.5 295.5t59.5 314.5q2 147 -51 308z" />
    <glyph glyph-name="asterisk" unicode="*" horiz-adv-x="432" 
d="M274 560h-2l-104 -144l-62 55l130 114l1 2l-142 32l43 79l123 -71l2 2l8 159h86l-54 -156l2 -2l148 72l14 -83l-154 -32l-1 -2l85 -114l-75 -51z" />
    <glyph glyph-name="plus" unicode="+" horiz-adv-x="608" 
d="M357 319l-38 -192h-86l38 192h-182l14 77h183l37 191h86l-37 -191h182l-14 -77h-183z" />
    <glyph glyph-name="comma" unicode="," horiz-adv-x="224" 
d="M-31 -117l79 240h115l-131 -240h-63z" />
    <glyph glyph-name="hyphen" unicode="-" horiz-adv-x="389" 
d="M67 287l16 81h274l-16 -81h-274z" />
    <glyph glyph-name="period" unicode="." horiz-adv-x="233" 
d="M9 0l23 122h119l-23 -122h-119z" />
    <glyph glyph-name="slash" unicode="/" horiz-adv-x="563" 
d="M-80 -130l623 918h87l-618 -918h-92z" />
    <glyph glyph-name="zero" unicode="0" horiz-adv-x="657" 
d="M80 240q0 58 9.5 122.5t33.5 135t59.5 126.5t92.5 92t126 36q115 0 169 -74t52 -197q-1 -60 -11.5 -123.5t-35 -132t-59.5 -121t-91 -86.5t-124 -34q-110 0 -165 68.5t-56 187.5zM302 58q55 0 100 43.5t71.5 110t40.5 138t14 135.5q0 192 -130 192q-48 0 -87.5 -33
t-64 -83t-41.5 -111t-24 -115t-7 -98q0 -179 128 -179z" />
    <glyph glyph-name="one" unicode="1" horiz-adv-x="415" 
d="M153 0l106 546h-148l12 64h25q72 0 111 36q39 31 55 98h72l-144 -744h-89z" />
    <glyph glyph-name="two" unicode="2" horiz-adv-x="602" 
d="M210 514h-91q19 119 88.5 178.5t172.5 59.5q85 0 144.5 -48t58.5 -134q0 -46 -15.5 -87t-48 -79.5t-62.5 -66t-80 -67.5l-235 -189v-1h359l-15 -80h-482l13 69l299 250q87 73 116 107q57 68 57 139q0 51 -29.5 81.5t-83.5 30.5q-143 0 -166 -163z" />
    <glyph glyph-name="three" unicode="3" horiz-adv-x="614" 
d="M334 336h-45l16 82h35q72 2 113 38.5t41 104.5q0 55 -34 85t-90 30q-64 0 -106.5 -36t-52.5 -111h-90q9 100 79 161.5t173 61.5q96 0 153.5 -50t57.5 -135q0 -72 -41 -121.5t-107 -70.5v-2q47 -14 77.5 -55t30.5 -105q0 -101 -75 -164.5t-183 -63.5q-116 0 -178.5 59.5
t-55.5 163.5h89q2 -146 150 -146q75 0 119.5 43t44.5 109q0 55 -31 88.5t-90 33.5z" />
    <glyph glyph-name="four" unicode="4" horiz-adv-x="613" 
d="M137 257h246l73 375h-2q-21 -34 -59 -78zM549 182h-96l-35 -182h-85l35 182h-340l13 70l425 489h96l-94 -483h96z" />
    <glyph glyph-name="five" unicode="5" horiz-adv-x="610" 
d="M451 277q0 134 -121 134q-96 0 -145 -65h-78l105 395h372l-16 -78h-298l-61 -234h2q23 24 60.5 41.5t80.5 17.5q90 0 141.5 -55.5t51.5 -142.5q0 -130 -77.5 -217.5t-202.5 -87.5q-103 0 -163 57t-53 151h90q-1 -66 33 -99t96 -33q85 0 134 64.5t49 151.5z" />
    <glyph glyph-name="six" unicode="6" horiz-adv-x="628" 
d="M618 581h-85q-8 101 -108 101q-89 0 -152 -86t-91 -214h4q63 94 180 94q89 0 144.5 -55t55.5 -145q0 -125 -77 -208t-194 -83q-111 0 -166 68.5t-55 172.5q0 85 22 174t63.5 169t112.5 131.5t159 51.5q90 0 138 -44.5t49 -126.5zM298 61q80 0 127 60t47 141
q0 64 -36 100.5t-97 36.5q-78 0 -126.5 -58t-48.5 -136q0 -66 36 -105t98 -39z" />
    <glyph glyph-name="seven" unicode="7" horiz-adv-x="534" 
d="M61 0l411 660h-356l16 81h463l-12 -59l-425 -682h-97z" />
    <glyph glyph-name="eight" unicode="8" horiz-adv-x="614" 
d="M377 752q92 0 153 -52t61 -137q0 -69 -43 -123t-106 -71v-2q44 -14 75.5 -53.5t31.5 -98.5q0 -106 -78 -168.5t-189 -62.5q-107 0 -171.5 51.5t-64.5 142.5q0 76 48.5 130.5t124.5 73.5v2q-38 16 -62.5 55.5t-24.5 90.5q0 96 72.5 159t172.5 63zM374 680
q-70 0 -110.5 -44t-40.5 -112q0 -54 35.5 -84.5t90.5 -30.5q67 0 109 43t42 111q0 53 -36.5 85t-89.5 32zM285 56q80 0 126 44t46 115q0 61 -43.5 92.5t-105.5 31.5q-79 0 -124.5 -44.5t-45.5 -114.5q0 -61 41 -92.5t106 -31.5z" />
    <glyph glyph-name="nine" unicode="9" horiz-adv-x="628" 
d="M380 676q-80 0 -126 -56t-46 -134q0 -66 32.5 -101.5t94.5 -35.5q82 0 130.5 54.5t48.5 131.5q0 65 -36 103t-98 38zM265 -15q-94 0 -149.5 47.5t-51.5 134.5h85q0 -58 32 -85t84 -27q175 0 237 312h-4q-30 -45 -77.5 -69.5t-102.5 -24.5q-91 0 -147 55t-56 145
q0 121 77 200t192 79q113 0 166.5 -68.5t53.5 -165.5q0 -67 -10 -136.5t-35.5 -142t-62.5 -128t-97 -91t-134 -35.5z" />
    <glyph glyph-name="colon" unicode=":" horiz-adv-x="255" 
d="M102 404l24 123h121l-24 -123h-121zM145 0h-121l23 123h121z" />
    <glyph glyph-name="semicolon" unicode=";" horiz-adv-x="255" 
d="M100 404l24 123h121l-24 -123h-121zM33 -117h-62l78 240h115z" />
    <glyph glyph-name="less" unicode="&#x3c;" horiz-adv-x="570" 
d="M459 77l-415 229l12 58l502 222l-15 -90l-386 -167l318 -172z" />
    <glyph glyph-name="equal" unicode="=" horiz-adv-x="647" 
d="M124 410l15 76h454l-15 -76h-454zM543 229h-454l15 76h454z" />
    <glyph glyph-name="greater" unicode="&#x3e;" horiz-adv-x="570" 
d="M143 589l415 -229l-12 -58l-502 -222l15 91l386 167l-318 172z" />
    <glyph glyph-name="question" unicode="?" horiz-adv-x="549" 
d="M321 227h-83l12 64q9 49 27 71t76 61l50 35q84 57 84 145q0 54 -33 86.5t-90 32.5q-76 0 -116 -45.5t-49 -137.5h-87q7 124 75.5 191t180.5 67q98 0 153.5 -53t55.5 -133q0 -43 -11.5 -78.5t-34 -62.5t-42.5 -44t-49 -38l-44 -31q-6 -4 -18 -12.5t-14.5 -10.5t-9.5 -8
t-8.5 -9t-5.5 -10t-5.5 -13.5t-3.5 -17.5zM183 0l22 118h115l-22 -118h-115z" />
    <glyph glyph-name="at" unicode="@" horiz-adv-x="1001" 
d="M719 59q-118 0 -131 88h-3q-56 -91 -155 -91q-72 0 -113 46t-43 122q-3 108 60.5 197.5t168.5 89.5q49 0 81 -23t43 -61h2l13 68h75l-53 -267q-11 -51 6 -79.5t62 -28.5q54 0 97.5 56.5t43.5 178.5q0 140 -93.5 231t-247.5 91q-166 0 -287 -126t-121 -307
q0 -165 95.5 -265.5t254.5 -100.5q156 0 261 84l36 -50q-120 -97 -307 -97q-190 0 -306 118t-116 311q0 210 144.5 353t345.5 143q186 0 302.5 -104.5t116.5 -272.5q0 -82 -22 -144t-58 -95t-74.5 -49t-77.5 -16zM449 121q50 0 88.5 38t50.5 96l9 43q5 34 1.5 66.5t-27.5 56
t-64 23.5q-70 0 -109 -67.5t-39 -152.5q0 -45 23 -74t67 -29z" />
    <glyph glyph-name="A" unicode="A" horiz-adv-x="722" 
d="M434 675q0 -1 -3 -7t-7.5 -16t-10.5 -22.5t-15 -30t-18 -35.5l-135 -262h248l-42 262l-15 111h-2zM542 0l-37 229h-297l-118 -229h-94l401 765h106l132 -765h-93z" />
    <glyph glyph-name="B" unicode="B" horiz-adv-x="698" 
d="M341 0h-289l148 765h254q98 0 154.5 -45.5t56.5 -125.5q0 -151 -151 -188v-2q59 -13 91.5 -57t32.5 -107q0 -119 -84 -179.5t-213 -60.5zM229 443h170q82 0 128 32.5t46 112.5q0 51 -33 77t-92 26h-171zM157 73h185q90 0 146 40.5t56 131.5q0 122 -158 122h-172z" />
    <glyph glyph-name="C" unicode="C" horiz-adv-x="755" 
d="M739 537h-91q-6 80 -52 122t-120 42q-66 0 -119 -27t-86 -69.5t-55 -98t-31 -110t-9 -108.5q0 -99 48 -164t154 -65q90 0 146 50t76 130h92q-28 -119 -113 -187t-207 -68q-140 0 -214.5 85t-74.5 235q0 65 14.5 130t47 127t78.5 109.5t114 76.5t148 29q109 0 178.5 -61.5
t75.5 -177.5z" />
    <glyph glyph-name="D" unicode="D" horiz-adv-x="755" 
d="M52 0l147 765h216q141 0 223.5 -73.5t82.5 -224.5q0 -95 -24.5 -177t-73.5 -148t-132 -104t-191 -38h-248zM157 79h162q79 0 138.5 32t90.5 76.5t50 103t24 98.5t5 77q0 220 -219 220h-133z" />
    <glyph glyph-name="E" unicode="E" horiz-adv-x="659" 
d="M52 0l148 765h472l-16 -82h-381l-50 -257h353l-16 -80h-352l-51 -264h390l-16 -82h-481z" />
    <glyph glyph-name="F" unicode="F" 
d="M206 325l-63 -325h-91l148 765h446l-16 -82h-355l-54 -278h326l-15 -80h-326z" />
    <glyph glyph-name="G" unicode="G" horiz-adv-x="806" 
d="M743 562h-91q-2 65 -44.5 102.5t-116.5 37.5t-132 -30.5t-91.5 -75.5t-55.5 -104t-29.5 -109.5t-7.5 -98.5q0 -95 48 -160t151 -65q106 0 172.5 65.5t86.5 169.5l2 12h-217l17 80h306l-75 -386h-79l24 124h-3q-31 -65 -95 -102t-148 -37q-72 0 -128 24.5t-89.5 66.5
t-50.5 94t-17 111q0 65 13 130t44.5 132t78 118t119.5 83t163 32q112 0 177 -55t68 -159z" />
    <glyph glyph-name="H" unicode="H" horiz-adv-x="769" 
d="M207 346l-67 -346h-90l147 765h91l-65 -338h385l65 338h91l-148 -765h-91l67 346h-385z" />
    <glyph glyph-name="I" unicode="I" horiz-adv-x="296" 
d="M54 0l148 765h91l-148 -765h-91z" />
    <glyph glyph-name="J" unicode="J" horiz-adv-x="416" 
d="M43 -3h-69l15 79h58q85 0 121.5 32.5t50.5 104.5l108 552h91l-109 -562q-13 -68 -38.5 -110.5t-82 -69t-145.5 -26.5z" />
    <glyph glyph-name="K" unicode="K" horiz-adv-x="700" 
d="M190 245l-47 -245h-91l148 765h91l-78 -401l421 401h115l-346 -326l221 -439h-101l-189 377z" />
    <glyph glyph-name="L" unicode="L" horiz-adv-x="589" 
d="M52 0l148 765h91l-132 -683h372l-16 -82h-463z" />
    <glyph glyph-name="M" unicode="M" horiz-adv-x="917" 
d="M52 0l147 765h135l75 -525l15 -128h2q37 74 66 128l280 525h140l-148 -765h-93l128 658h-4q-34 -66 -59 -113l-291 -545h-85l-76 545l-14 113h-3l-128 -658h-87z" />
    <glyph glyph-name="N" unicode="N" horiz-adv-x="779" 
d="M52 0l148 765h112l223 -580l23 -75h3l127 655h86l-148 -765h-111l-223 579l-25 74h-2l-126 -653h-87z" />
    <glyph glyph-name="O" unicode="O" horiz-adv-x="802" 
d="M81 287q0 210 113 349.5t284 139.5q137 0 213 -85t76 -222q0 -88 -25.5 -173t-73 -155t-124 -113.5t-169.5 -43.5q-137 0 -215.5 85.5t-78.5 217.5zM673 473q0 45 -10.5 84.5t-33 73t-62.5 52.5t-94 19q-64 0 -116.5 -28t-85.5 -71.5t-55 -100t-31.5 -111t-9.5 -107.5
q0 -95 49.5 -160t153.5 -65q77 0 137 42.5t92.5 108t49 133.5t16.5 130z" />
    <glyph glyph-name="P" unicode="P" horiz-adv-x="625" 
d="M341 292h-142l-56 -292h-91l148 765h198q108 0 172 -52t64 -154q0 -128 -81 -197.5t-212 -69.5zM214 367h132q89 0 142 48t53 141q0 134 -154 134h-110z" />
    <glyph glyph-name="Q" unicode="Q" horiz-adv-x="802" 
d="M372 -14q-137 0 -214 85t-77 216q0 210 113 349.5t284 139.5q137 0 213 -85t76 -222q0 -132 -52.5 -242.5t-135.5 -169.5v-5q58 -4 95.5 -26.5t69.5 -70.5l-76 -53q-38 54 -71.5 73.5t-87.5 19.5q-21 0 -60.5 -4.5t-76.5 -4.5zM380 59q64 0 116 28.5t84 73t54 101
t30.5 109.5t8.5 102q0 45 -10.5 84.5t-33 73t-62.5 52.5t-94 19q-64 0 -116.5 -28t-85.5 -71.5t-55 -100t-31.5 -111t-9.5 -107.5q0 -96 49.5 -160.5t155.5 -64.5z" />
    <glyph glyph-name="R" unicode="R" horiz-adv-x="678" 
d="M219 401h181q77 0 119.5 44t42.5 125q0 119 -132 119h-155zM206 325l-64 -325h-90l147 765h241q98 0 155 -46q61 -50 61 -148q0 -86 -46.5 -148.5t-137.5 -84.5v-3l122 -335h-96l-115 325h-177z" />
    <glyph glyph-name="S" unicode="S" horiz-adv-x="666" 
d="M51 225h94q-3 -163 173 -163q75 0 129 39.5t54 112.5q0 44 -25.5 71.5t-84.5 49.5l-90 33q-158 56 -158 184q0 103 74.5 164t187.5 60t175 -57.5t55 -168.5h-91q5 69 -32 110.5t-112 41.5q-69 0 -116.5 -35.5t-47.5 -101.5q0 -77 104 -115l86 -31q91 -32 129.5 -77
t38.5 -120q0 -107 -78.5 -172t-200.5 -65q-121 0 -195.5 58.5t-68.5 181.5z" />
    <glyph glyph-name="T" unicode="T" horiz-adv-x="624" 
d="M441 685l-133 -685h-92l133 685h-253l16 80h595l-16 -80h-250z" />
    <glyph glyph-name="U" unicode="U" horiz-adv-x="744" 
d="M97 292l91 473h91l-83 -430q-30 -158 1 -210q38 -64 147 -64q107 0 165 61q13 14 22.5 29t16 36t9.5 33t8.5 42t7.5 42l89 461h91l-101 -523q-25 -132 -102 -194.5t-209 -62.5q-304 0 -244 307z" />
    <glyph glyph-name="V" unicode="V" horiz-adv-x="716" 
d="M246 0l-109 765h96l71 -552q5 -40 7.5 -72.5t2.5 -44.5v-13h2q15 42 56 117l308 565h95l-422 -765h-107z" />
    <glyph glyph-name="W" unicode="W" horiz-adv-x="1038" 
d="M283 0h-99l-56 765h89l32 -529q2 -40 2.5 -74.5t0.5 -49.5l-1 -14h2q15 49 50 124l254 543h104l35 -529q3 -40 3.5 -74.5t-0.5 -49.5l-1 -14h2q15 48 50 124l251 543h92l-363 -765h-100l-37 527q-3 40 -3.5 74.5t0.5 49.5v15h-2q-15 -49 -51 -125z" />
    <glyph glyph-name="X" unicode="X" horiz-adv-x="719" 
d="M0 0l330 402l-163 363h101l129 -296h2l247 296h99l-306 -369l181 -396h-104l-143 328h-2l-272 -328h-99z" />
    <glyph glyph-name="Y" unicode="Y" horiz-adv-x="640" 
d="M221 0l65 334l-177 431h102l134 -352h2l280 352h100l-352 -438l-63 -327h-91z" />
    <glyph glyph-name="Z" unicode="Z" horiz-adv-x="637" 
d="M144 684l16 81h521l-14 -70l-537 -614h426l-15 -81h-545l13 70l537 614h-402z" />
    <glyph glyph-name="bracketleft" unicode="[" horiz-adv-x="346" 
d="M21 -130l179 918h213l-13 -67h-132l-153 -784h132l-13 -67h-213z" />
    <glyph glyph-name="backslash" unicode="\" horiz-adv-x="524" 
d="M383 -130l-270 918h75l275 -918h-80z" />
    <glyph glyph-name="bracketright" unicode="]" horiz-adv-x="370" 
d="M356 788l-179 -918h-213l13 67h132l153 784h-132l13 67h213z" />
    <glyph glyph-name="asciicircum" unicode="^" horiz-adv-x="362" 
d="M318 788l95 -282h-76l-71 191h-1l-149 -191h-79l209 282h72z" />
    <glyph glyph-name="underscore" unicode="_" horiz-adv-x="404" 
d="M-76 -190l13 69h391l-13 -69h-391z" />
    <glyph glyph-name="grave" unicode="`" horiz-adv-x="223" 
d="M105 788l70 -162h-65l-102 162h97z" />
    <glyph glyph-name="a" unicode="a" horiz-adv-x="540" 
d="M201 64q51 0 99 45.5t64 125.5l3 15q-109 0 -157 -9q-45 -9 -71.5 -33t-26.5 -62t23 -60t66 -22zM180 383h-90q8 73 64 114.5t144 41.5q102 0 146.5 -57.5t24.5 -153.5l-38 -196q-7 -34 3 -49.5t35 -13.5l-13 -73h-9q-50 0 -74 23.5t-23 64.5h-3q-61 -92 -165 -92
q-69 0 -115 39t-46 111q0 132 177 164q49 9 182 9l4 24q11 62 -13 96.5t-81 34.5q-100 0 -110 -87z" />
    <glyph glyph-name="b" unicode="b" horiz-adv-x="598" 
d="M41 0l153 788h89l-68 -348h1q60 100 172 100q85 0 126 -54.5t41 -146.5q0 -57 -14.5 -116t-43.5 -113.5t-80 -88.5t-116 -34q-55 0 -98 27t-58 80h-2l-17 -94h-85zM296 57q49 0 85 32t53.5 80.5t25 91.5t7.5 79q0 60 -25.5 94.5t-78.5 34.5q-67 0 -114.5 -48.5
t-61.5 -116.5l-12 -59q-16 -77 11.5 -132.5t109.5 -55.5z" />
    <glyph glyph-name="c" unicode="c" horiz-adv-x="525" 
d="M498 368h-83q2 46 -24 75t-76 29q-60 0 -103.5 -44.5t-61.5 -103.5t-18 -121q0 -63 29 -104.5t92 -42.5q61 -1 94.5 35t39.5 81h86q-17 -87 -78.5 -136t-145.5 -49q-101 0 -153 59t-52 157q0 59 17.5 117.5t50.5 108t88 80.5t123 31q83 0 128.5 -44.5t46.5 -127.5z" />
    <glyph glyph-name="d" unicode="d" horiz-adv-x="598" 
d="M315 469q-47 0 -84 -28t-57.5 -72t-31 -91t-10.5 -93q0 -56 24.5 -91.5t80.5 -35.5q68 0 115 48t61 118l11 56q9 33 7.5 67t-11 61t-36.5 44t-69 17zM609 788l-153 -788h-84l16 85h-2q-64 -98 -163 -98q-89 0 -134 53.5t-45 145.5q0 85 27.5 163.5t89.5 134.5t147 56
q116 0 145 -97h1l66 345h89z" />
    <glyph glyph-name="e" unicode="e" horiz-adv-x="539" 
d="M409 309l1 6q11 68 -14 113t-92 45q-61 0 -101.5 -46t-59.5 -118h266zM459 138q-20 -72 -77 -111.5t-141 -39.5q-96 0 -147.5 59t-51.5 150q0 87 29 163.5t92.5 128.5t149.5 52q58 0 99 -23t59.5 -60t25 -84t-5.5 -96l-8 -38h-352q-2 -30 -2 -43q0 -60 28.5 -100
t93.5 -40q95 0 122 82h86z" />
    <glyph glyph-name="f" unicode="f" horiz-adv-x="350" 
d="M238 458l-88 -458h-88l89 458h-90l14 69h89l25 128q26 136 175 136q36 0 59 -6l-14 -74q-20 5 -49 5q-36 0 -57 -17.5t-30 -59.5l-22 -112h121l-13 -69h-121z" />
    <glyph glyph-name="g" unicode="g" horiz-adv-x="596" 
d="M413 232l11 56q16 78 -7.5 129.5t-103.5 51.5q-47 0 -83.5 -27.5t-57.5 -71.5t-31.5 -91.5t-10.5 -94.5q0 -118 107 -118q67 0 114.5 48.5t61.5 117.5zM14 -50h85q2 -38 30 -59.5t79 -21.5q133 0 165 167l11 54h-2q-65 -93 -167 -93q-84 0 -128.5 50t-44.5 137
q0 62 17 123.5t48.5 114.5t84.5 85.5t119 32.5q112 0 144 -97h1l17 84h83l-99 -507q-43 -219 -257 -219q-77 0 -131.5 37.5t-54.5 111.5z" />
    <glyph glyph-name="h" unicode="h" horiz-adv-x="595" 
d="M370 0l60 311q18 88 -5 123q-20 31 -72 31q-66 0 -109 -47.5t-59 -132.5l-55 -285h-89l153 788h89l-68 -346h2q27 44 70 71t98 27q84 0 120 -55.5t15 -160.5l-62 -324h-88z" />
    <glyph glyph-name="i" unicode="i" horiz-adv-x="273" 
d="M164 647l19 97h93l-19 -97h-93zM41 0l102 527h89l-102 -527h-89z" />
    <glyph glyph-name="j" unicode="j" horiz-adv-x="273" 
d="M164 647l19 97h93l-19 -97h-93zM-46 -199q-33 0 -64 11l15 73q21 -7 46 -7q33 0 52.5 15.5t26.5 52.5l113 581h89l-115 -591q-26 -135 -163 -135z" />
    <glyph glyph-name="k" unicode="k" horiz-adv-x="550" 
d="M161 160l-31 -160h-89l153 788h89l-100 -514l260 253h107l-221 -207l142 -320h-98l-111 257z" />
    <glyph glyph-name="l" unicode="l" horiz-adv-x="272" 
d="M41 0l153 788h89l-153 -788h-89z" />
    <glyph glyph-name="m" unicode="m" horiz-adv-x="908" 
d="M683 0l60 311q8 40 8 69q0 85 -83 85q-62 0 -104.5 -48t-58.5 -132l-55 -285h-88l60 311q8 38 8 68q0 86 -83 86q-62 0 -104 -48t-58 -132l-55 -285h-89l102 527h85l-18 -89h2q27 45 71 73.5t96 28.5q53 0 88 -30.5t44 -84.5h2q71 115 186 115q82 0 118.5 -56.5
t15.5 -159.5l-62 -324h-88z" />
    <glyph glyph-name="n" unicode="n" horiz-adv-x="595" 
d="M369 0l60 311q8 38 8 68q0 86 -84 86q-66 0 -109 -47.5t-59 -132.5l-55 -285h-89l102 527h85l-18 -89h2q27 45 72.5 73.5t100.5 28.5q84 0 120 -55.5t15 -160.5l-62 -324h-89z" />
    <glyph glyph-name="o" unicode="o" horiz-adv-x="555" 
d="M245 -13q-102 0 -152.5 58t-50.5 151q0 48 10 95.5t32 92.5t52.5 79.5t75.5 55.5t98 21q103 0 153 -57.5t50 -150.5q0 -48 -10 -96t-31.5 -93t-52 -79.5t-76 -55.5t-98.5 -21zM425 338q0 135 -117 135q-47 0 -83 -28t-56 -72t-29.5 -91t-9.5 -92q0 -135 118 -135
q41 0 73 20.5t51 51.5t31.5 71t17 74t4.5 66z" />
    <glyph glyph-name="p" unicode="p" horiz-adv-x="598" 
d="M298 57q45 0 79.5 28.5t53 73t27.5 91t9 90.5q0 129 -104 129q-67 0 -114.5 -48.5t-61.5 -116.5l-12 -56q-9 -34 -6 -68t15 -61.5t41.5 -44.5t72.5 -17zM4 -188l139 715h87l-18 -88h1q61 101 172 101q87 0 128.5 -54t41.5 -147q0 -58 -14.5 -117t-43.5 -113t-80 -88
t-117 -34q-53 0 -95 26t-57 75h-1l-54 -276h-89z" />
    <glyph glyph-name="q" unicode="q" horiz-adv-x="598" 
d="M558 527l-139 -715h-89l52 268h-2q-61 -93 -163 -93q-84 0 -128.5 54.5t-44.5 144.5q0 85 27.5 163.5t89.5 134.5t147 56q116 0 145 -95h2l16 82h87zM235 58q69 0 116.5 48.5t61.5 117.5l11 56q9 33 7.5 67t-11 61t-36.5 44t-69 17q-47 0 -84 -28t-57.5 -72t-31 -91
t-10.5 -93q0 -55 25 -91t78 -36z" />
    <glyph glyph-name="r" unicode="r" horiz-adv-x="384" 
d="M41 0l102 527h85l-20 -99h3q24 45 69.5 77t106.5 32h5l-17 -94h-9q-149 0 -181 -156l-55 -287h-89z" />
    <glyph glyph-name="s" unicode="s" horiz-adv-x="493" 
d="M451 388h-85q2 41 -25 63t-73 22q-41 0 -73.5 -21.5t-32.5 -62.5q0 -55 63 -72l61 -16q80 -21 111.5 -55t31.5 -89q0 -80 -57 -125t-151 -45q-85 0 -143.5 42.5t-53.5 129.5h85q-4 -49 27.5 -77t88.5 -28q49 0 83.5 23t34.5 68q0 28 -18.5 47t-64.5 31l-61 16
q-124 33 -124 139q0 77 57 119.5t139 42.5q81 0 133 -38t47 -114z" />
    <glyph glyph-name="t" unicode="t" horiz-adv-x="356" 
d="M202 680h80l-30 -153h125l-14 -69h-125l-59 -302q-10 -52 3 -71t57 -19l50 5l-15 -73q-33 -6 -58 -6q-155 0 -126 151l61 315h-90l13 66h11q53 0 73.5 21.5t35.5 96.5z" />
    <glyph glyph-name="u" unicode="u" horiz-adv-x="592" 
d="M226 527l-60 -311q-9 -45 -9 -71q-2 -84 81 -84q67 0 110 50.5t61 143.5l53 272h89l-103 -527h-84l18 90h-2q-60 -103 -166 -103q-86 0 -123 56t-16 161l62 323h89z" />
    <glyph glyph-name="v" unicode="v" horiz-adv-x="502" 
d="M158 0l-82 527h88l48 -332l11 -92h2q22 49 44 91l173 333h88l-279 -527h-93z" />
    <glyph glyph-name="w" unicode="w" horiz-adv-x="784" 
d="M123 0l-49 527h89l21 -345l3 -77h2q22 47 37 78l171 344h90l37 -345l6 -79h2q20 49 34 80l158 344h87l-252 -527h-93l-37 353l-6 74h-1q-18 -41 -34 -75l-172 -352h-93z" />
    <glyph glyph-name="x" unicode="x" horiz-adv-x="497" 
d="M-32 0l229 280l-112 247h96l81 -189h2l149 189h100l-211 -256l126 -271h-100l-90 214h-2l-168 -214h-100z" />
    <glyph glyph-name="y" unicode="y" horiz-adv-x="510" 
d="M166 4l-82 523h88l48 -330l10 -82h3q18 37 40 81l166 331h90l-300 -571q-47 -90 -87.5 -122t-114.5 -33q-33 0 -63 9l15 73q25 -7 44 -7q44 1 71.5 21.5t54.5 74.5z" />
    <glyph glyph-name="z" unicode="z" horiz-adv-x="511" 
d="M105 453l15 74h386l-15 -81l-369 -371h302l-14 -75h-406l15 81l367 372h-281z" />
    <glyph glyph-name="braceleft" unicode="{" horiz-adv-x="368" 
d="M81 301h-24l15 74h24q43 0 62 15.5t27 57.5l40 211q15 78 67.5 109.5t153.5 23.5l-12 -62q-69 4 -97 -19t-39 -82l-37 -191q-4 -23 -8.5 -36t-14.5 -27.5t-27 -22.5t-43 -12l-1 -4q42 -12 52 -47.5t-2 -74.5l-36 -179q-12 -61 8.5 -79.5t89.5 -27.5l-13 -62
q-99 3 -140 42t-23 127l37 185q9 44 -5.5 62.5t-53.5 18.5z" />
    <glyph glyph-name="bar" unicode="|" horiz-adv-x="276" 
d="M26 -130l179 918h71l-179 -918h-71z" />
    <glyph glyph-name="braceright" unicode="}" horiz-adv-x="386" 
d="M321 358h24l-15 -74h-24q-43 0 -62 -15.5t-27 -57.5l-40 -211q-15 -78 -67.5 -109.5t-153.5 -23.5l12 62q69 -4 97 19t39 82l32 167q6 32 14.5 55t30 44t53.5 23l1 4q-42 12 -52 47.5t2 74.5l36 179q12 61 -8.5 79.5t-89.5 27.5l13 62q100 -3 140 -43.5t22 -132.5
l-36 -178q-9 -44 5.5 -62.5t53.5 -18.5z" />
    <glyph glyph-name="asciitilde" unicode="~" horiz-adv-x="395" 
d="M16 292q27 135 133 135q28 0 52 -15t42.5 -30t31.5 -15q37 0 54 62h69q-13 -64 -48 -99.5t-84 -35.5q-36 0 -74.5 29.5t-54.5 29.5q-36 0 -53 -61h-68z" />
    <glyph glyph-name="uni00A0" unicode="&#xa0;" horiz-adv-x="205" 
 />
    <glyph glyph-name="exclamdown" unicode="&#xa1;" horiz-adv-x="258" 
d="M211 432l-98 -551h-100l123 551h75zM158 669h116l-22 -118h-116z" />
    <glyph glyph-name="cent" unicode="&#xa2;" horiz-adv-x="525" 
d="M387 172h86q-17 -85 -76 -134t-141 -51l-20 -103h-71l21 110q-70 18 -106 73t-36 136q0 120 65.5 221t182.5 114l19 97h71l-19 -98q64 -10 99 -53t36 -116h-83q3 81 -66 100l-79 -411q53 5 82 39t35 76zM200 67l78 401q-48 -13 -82.5 -58t-49 -98.5t-14.5 -108.5
q0 -106 68 -136z" />
    <glyph glyph-name="sterling" unicode="&#xa3;" horiz-adv-x="611" 
d="M541 80l-15 -80h-483l13 69l41 29q25 18 39.5 30.5t29 28t21.5 30t11.5 34t4 42.5t-5.5 53h-103l14 71h77l-8 51q-22 135 46 224.5t203 89.5q111 0 165 -62.5t34 -160.5h-90q12 71 -16 110t-98 39q-87 0 -126 -62t-25 -154l10 -75h216l-14 -71h-193q7 -75 -14 -125.5
t-81 -93.5l-21 -15v-2h368z" />
    <glyph glyph-name="currency" unicode="&#xa4;" horiz-adv-x="631" 
d="M203 347q0 -52 31 -86t80 -34q50 0 81 34t31 86t-31 86.5t-81 34.5q-49 0 -80 -34.5t-31 -86.5zM135 347q0 52 26 96l-79 79l57 57l78 -79q44 27 97 27q55 0 100 -29l82 84l55 -55l-84 -83q27 -44 27 -97q0 -54 -27 -97l81 -80l-57 -57l-80 81q-43 -26 -97 -26t-97 26
l-81 -82l-55 55l82 81q-28 44 -28 99z" />
    <glyph glyph-name="yen" unicode="&#xa5;" horiz-adv-x="586" 
d="M192 0l35 180h-193l14 69h192l18 93h-194l13 69h169l-136 330h97l110 -295h2l227 295h104l-263 -330h167l-13 -69h-197l-18 -93h199l-14 -69h-198l-35 -180h-86z" />
    <glyph glyph-name="brokenbar" unicode="&#xa6;" horiz-adv-x="276" 
d="M276 788l-78 -401h-71l78 401h71zM97 -130h-71l85 438h71z" />
    <glyph glyph-name="section" unicode="&#xa7;" horiz-adv-x="573" 
d="M249 445q-41 -4 -69 -25.5t-28 -59.5q0 -27 12.5 -45.5t43.5 -38.5l108 -68l28 -19q42 4 68.5 25t26.5 62q0 48 -55 83l-107 67q-16 9 -28 19zM67 347q0 118 133 149v1q-27 37 -27 87q0 76 55 122t142 46q78 0 127.5 -43t44.5 -120h-85q2 44 -21.5 70t-75.5 26
q-43 0 -72.5 -24t-29.5 -72t50 -80l105 -66q58 -36 85 -71t27 -84q0 -120 -132 -150v-1q25 -34 25 -81q0 -76 -58.5 -123t-150.5 -47q-87 0 -137 43.5t-45 133.5h85q-8 -110 106 -110q47 0 80 24.5t33 67.5q0 51 -46 80l-105 66q-60 38 -86.5 71t-26.5 85z" />
    <glyph glyph-name="dieresis" unicode="&#xa8;" horiz-adv-x="362" 
d="M307 646l19 99h90l-19 -99h-90zM115 646l19 99h90l-19 -99h-90z" />
    <glyph glyph-name="copyright" unicode="&#xa9;" horiz-adv-x="914" 
d="M75 380q0 169 112.5 283t281.5 114t282 -114t113 -283q0 -168 -113 -282t-282 -114t-281.5 113.5t-112.5 282.5zM469 41q141 0 235.5 97.5t94.5 241.5t-94.5 242t-235.5 98t-235 -97.5t-94 -242.5q0 -144 94 -241.5t235 -97.5zM638 464h-66q1 36 -18.5 55t-60.5 19
q-73 0 -110.5 -61.5t-37.5 -138.5q0 -109 95 -109q46 0 75.5 26t34.5 59h68q-14 -68 -62.5 -105.5t-116.5 -37.5q-82 0 -123.5 45t-41.5 122q0 62 23.5 119.5t76 98.5t123.5 41q70 0 106 -34t35 -99z" />
    <glyph glyph-name="ordfeminine" unicode="&#xaa;" horiz-adv-x="461" 
d="M227 374q42 0 80.5 33t50.5 101l2 11q-134 -1 -170 -31q-26 -22 -26 -59q0 -55 63 -55zM218 623h-76q11 59 57 93.5t113 34.5q83 0 119.5 -40.5t20.5 -119.5l-32 -165q-5 -25 1 -35.5t27 -10.5l-12 -64h-11q-49 0 -68.5 17t-17.5 56h-1q-22 -35 -59 -56t-76 -21
q-60 0 -91.5 29t-31.5 75q0 83 75 122q62 33 216 34l4 21q10 52 -7.5 75.5t-64.5 23.5q-36 0 -58 -19.5t-27 -49.5z" />
    <glyph glyph-name="guillemotleft" unicode="&#xab;" horiz-adv-x="533" 
d="M418 464h87l-151 -206l64 -201h-82l-70 209zM216 464h87l-151 -206l64 -201h-82l-70 209z" />
    <glyph glyph-name="logicalnot" unicode="&#xac;" horiz-adv-x="613" 
d="M89 318l16 79h454l-53 -270h-86l37 191h-368z" />
    <glyph glyph-name="registered" unicode="&#xae;" horiz-adv-x="483" 
d="M78 557q5 93 69.5 156t157.5 63t152 -63t54 -156t-70.5 -155.5t-158.5 -62.5t-151 62.5t-53 155.5zM284 377q74 0 126 51.5t57 128.5q4 77 -43 129t-121 52t-125.5 -52t-55.5 -129q-5 -77 41.5 -128.5t120.5 -51.5zM266 578h40q17 0 28.5 10t11.5 28q0 27 -34 27h-34z
M259 542l-18 -90h-46l44 225h82q33 0 52 -17t18 -42q0 -54 -58 -69l31 -97h-47l-27 90h-31z" />
    <glyph glyph-name="macron" unicode="&#xaf;" horiz-adv-x="289" 
d="M66 646l14 73h286l-14 -73h-286z" />
    <glyph glyph-name="degree" unicode="&#xb0;" horiz-adv-x="460" 
d="M128 594q0 70 46.5 117t116.5 47q71 0 117.5 -47t46.5 -117t-46.5 -116.5t-117.5 -46.5q-70 0 -116.5 46.5t-46.5 116.5zM291 485q45 0 73.5 30.5t28.5 78.5t-28.5 79t-73.5 31t-73 -31t-28 -79t28 -78.5t73 -30.5z" />
    <glyph glyph-name="plusminus" unicode="&#xb1;" horiz-adv-x="637" 
d="M385 349l-37 -192h-86l37 192h-182l15 77h182l37 191h86l-37 -191h183l-15 -77h-183zM50 0l14 77h451l-14 -77h-451z" />
    <glyph glyph-name="twosuperior" unicode="&#xb2;" horiz-adv-x="391" 
d="M188 676h-69q4 68 50.5 106.5t117.5 38.5q60 0 96.5 -28t36.5 -81q0 -48 -31 -86t-94 -86l-123 -93v-1h206l-12 -61h-317l9 48l184 146q5 4 17.5 13.5t17 13t14.5 12t13.5 12l11 11t10.5 12t7.5 12t6 13.5t3 13t1.5 15q0 26 -17 41.5t-47 15.5q-82 0 -92 -87z" />
    <glyph glyph-name="threesuperior" unicode="&#xb3;" horiz-adv-x="401" 
d="M262 576h-48l12 55h48q36 0 59.5 20.5t23.5 54.5q0 27 -19 42.5t-50 15.5q-78 0 -88 -74h-70q4 57 47.5 94t115.5 37q62 0 99.5 -28t37.5 -81q0 -41 -26.5 -70t-67.5 -40v-2q69 -19 69 -89q0 -62 -49.5 -98.5t-124.5 -36.5q-71 0 -110.5 35t-35.5 97h71q0 -74 82 -74
q43 0 68 22t25 56q0 64 -69 64z" />
    <glyph glyph-name="acute" unicode="&#xb4;" horiz-adv-x="362" 
d="M189 626l81 162h101l-117 -162h-65z" />
    <glyph glyph-name="paragraph" unicode="&#xb6;" horiz-adv-x="520" 
d="M465 765h78l-148 -765h-78zM237 401q-71 2 -115.5 46.5t-44.5 116.5q0 90 63.5 145.5t159.5 55.5h86l-148 -765h-78z" />
    <glyph glyph-name="periodcentered" unicode="&#xb7;" horiz-adv-x="356" 
d="M106 253l23 122h119l-23 -122h-119z" />
    <glyph glyph-name="cedilla" unicode="&#xb8;" horiz-adv-x="473" 
d="M191 22h49l-53 -85h2q11 6 34 6q27 0 43.5 -19t16.5 -48q0 -39 -27 -63.5t-72 -24.5q-34 0 -57 16.5t-23 49.5h56q4 -22 28 -22q37 0 37 38q0 33 -27 33q-18 0 -29 -11h-58z" />
    <glyph glyph-name="onesuperior" unicode="&#xb9;" horiz-adv-x="273" 
d="M133 385l63 301h-90l11 56h13q44 0 69 18q23 19 33 56h64l-90 -431h-73z" />
    <glyph glyph-name="ordmasculine" unicode="&#xba;" horiz-adv-x="412" 
d="M225 310q-85 0 -127 46.5t-42 119.5q0 67 23 128t75.5 104.5t124.5 43.5q86 0 127.5 -46t41.5 -120q0 -49 -13.5 -96.5t-39.5 -88.5t-70.5 -66t-99.5 -25zM369 590q0 43 -21 72.5t-71 29.5q-48 0 -81 -37.5t-45.5 -84.5t-12.5 -96q0 -103 92 -103q40 0 69 23t43 59.5
t20.5 70.5t6.5 66z" />
    <glyph glyph-name="guillemotright" unicode="&#xbb;" horiz-adv-x="533" 
d="M120 57h-87l151 206l-64 201h82l70 -209zM322 57h-87l151 206l-64 201h82l70 -209z" />
    <glyph glyph-name="onequarter" unicode="&#xbc;" horiz-adv-x="812" 
d="M123 334l63 301h-90l11 56h13q44 0 69 18q23 19 33 56h64l-90 -431h-73zM9 -40l694 821h82l-694 -821h-82zM489 156h141l45 212h-2q-13 -33 -57 -79zM744 100h-58l-21 -100h-69l21 100h-216l10 54l259 276h85l-57 -271h58z" />
    <glyph glyph-name="onehalf" unicode="&#xbd;" horiz-adv-x="866" 
d="M123 334l63 301h-90l11 56h13q44 0 69 18q23 19 33 56h64l-90 -431h-73zM9 -40l694 821h82l-694 -821h-82zM589 291h-69q4 68 50.5 106.5t117.5 38.5q60 0 96.5 -28t36.5 -81q0 -48 -31 -86t-94 -86l-123 -93v-1h206l-12 -61h-317l9 48l184 146q5 4 17.5 13.5t17 13
t14.5 12t13.5 12l11 11t10.5 12t7.5 12t6 13.5t3 13t1.5 15q0 26 -17 41.5t-47 15.5q-82 0 -92 -87z" />
    <glyph glyph-name="threequarters" unicode="&#xbe;" horiz-adv-x="897" 
d="M252 525h-48l12 55h48q36 0 59.5 20.5t23.5 54.5q0 27 -19 42.5t-50 15.5q-78 0 -88 -74h-70q4 57 47.5 94t115.5 37q62 0 99.5 -28t37.5 -81q0 -41 -26.5 -70t-67.5 -40v-2q69 -19 69 -89q0 -62 -49.5 -98.5t-124.5 -36.5q-71 0 -110.5 35t-35.5 97h71q0 -74 82 -74
q43 0 68 22t25 56q0 64 -69 64zM113 -40l694 821h82l-694 -821h-82zM574 156h141l45 212h-2q-13 -33 -57 -79zM829 100h-58l-21 -100h-69l21 100h-216l10 54l259 276h85l-57 -271h58z" />
    <glyph glyph-name="questiondown" unicode="&#xbf;" horiz-adv-x="549" 
d="M251 442h83l-12 -64q-9 -49 -27 -71t-76 -61l-50 -35q-84 -57 -84 -145q0 -54 33 -86.5t90 -32.5q76 0 116 45.5t49 137.5h87q-7 -124 -75.5 -191t-180.5 -67q-98 0 -153.5 53t-55.5 133q0 43 11.5 78.5t34 62.5t42.5 44t49 38l44 31q6 4 18 12.5t14.5 10.5t9.5 8t8.5 9
t5.5 10t5.5 13.5t3.5 17.5zM389 669l-22 -118h-115l22 118h115z" />
    <glyph glyph-name="Agrave" unicode="&#xc0;" horiz-adv-x="722" 
d="M434 675q0 -1 -3 -7t-7.5 -16t-10.5 -22.5t-15 -30t-18 -35.5l-135 -262h248l-42 262l-15 111h-2zM542 0l-37 229h-297l-118 -229h-94l401 765h106l132 -765h-93zM459 960l45 -133h-66l-70 133h91z" />
    <glyph glyph-name="Aacute" unicode="&#xc1;" horiz-adv-x="722" 
d="M434 675q0 -1 -3 -7t-7.5 -16t-10.5 -22.5t-15 -30t-18 -35.5l-135 -262h248l-42 262l-15 111h-2zM542 0l-37 229h-297l-118 -229h-94l401 765h106l132 -765h-93zM426 827l83 133h101l-117 -133h-67z" />
    <glyph glyph-name="Acircumflex" unicode="&#xc2;" horiz-adv-x="722" 
d="M434 675q0 -1 -3 -7t-7.5 -16t-10.5 -22.5t-15 -30t-18 -35.5l-135 -262h248l-42 262l-15 111h-2zM542 0l-37 229h-297l-118 -229h-94l401 765h106l132 -765h-93zM516 960l77 -133h-75l-50 76h-1l-77 -76h-79l113 133h92z" />
    <glyph glyph-name="Atilde" unicode="&#xc3;" horiz-adv-x="722" 
d="M434 675q0 -1 -3 -7t-7.5 -16t-10.5 -22.5t-15 -30t-18 -35.5l-135 -262h248l-42 262l-15 111h-2zM542 0l-37 229h-297l-118 -229h-94l401 765h106l132 -765h-93zM290 827q11 59 43.5 97t87.5 38q22 0 42 -9.5t32 -21t26 -21t25 -9.5q21 0 33.5 15t22.5 48h68
q-11 -59 -43 -97t-87 -38q-36 0 -73.5 30t-53.5 30q-37 0 -56 -62h-67z" />
    <glyph glyph-name="Adieresis" unicode="&#xc4;" horiz-adv-x="722" 
d="M434 675q0 -1 -3 -7t-7.5 -16t-10.5 -22.5t-15 -30t-18 -35.5l-135 -262h248l-42 262l-15 111h-2zM542 0l-37 229h-297l-118 -229h-94l401 765h106l132 -765h-93zM525 822l19 99h90l-19 -99h-90zM313 822l19 99h90l-19 -99h-90z" />
    <glyph glyph-name="Aring" unicode="&#xc5;" horiz-adv-x="722" 
d="M434 675q0 -1 -3 -7t-7.5 -16t-10.5 -22.5t-15 -30t-18 -35.5l-135 -262h248l-42 262l-15 111h-2zM542 0l-37 229h-297l-118 -229h-94l401 765h106l132 -765h-93zM458 808q-48 1 -75 28.5t-27 71.5q0 50 31.5 82t81.5 32t78 -27.5t28 -72.5q0 -53 -32 -83.5t-85 -30.5z
M470 976q-26 0 -41 -18t-15 -49q0 -24 12.5 -39.5t35.5 -15.5q26 0 41 18t15 49q0 24 -13 39t-35 16z" />
    <glyph glyph-name="AE" unicode="&#xc6;" horiz-adv-x="1002" 
d="M453 302l74 381h-81q-37 -76 -62 -119l-155 -262h224zM395 0l44 229h-253l-135 -229h-94l446 765h612l-16 -82h-381l-50 -257h353l-16 -80h-352l-51 -264h390l-16 -82h-481z" />
    <glyph glyph-name="Ccedilla" unicode="&#xc7;" horiz-adv-x="755" 
d="M328 -212q-34 0 -57 16.5t-23 49.5h56q4 -22 28 -22q37 0 37 38q0 33 -27 33q-18 0 -29 -11h-58l59 96q-113 17 -172 99.5t-59 216.5q0 65 14.5 130t47 127t78.5 109.5t114 76.5t148 29q109 0 178.5 -61.5t75.5 -177.5h-91q-6 80 -52 122t-120 42q-66 0 -119 -27
t-86 -69.5t-55 -98t-31 -110t-9 -108.5q0 -99 48 -164t154 -65q90 0 146 50t76 130h92q-28 -119 -113 -187t-207 -68h-12l-29 -47h2q11 6 34 6q27 0 43.5 -19t16.5 -48q0 -39 -27 -63.5t-72 -24.5z" />
    <glyph glyph-name="Egrave" unicode="&#xc8;" horiz-adv-x="659" 
d="M52 0l148 765h472l-16 -82h-381l-50 -257h353l-16 -80h-352l-51 -264h390l-16 -82h-481zM447 960l45 -133h-66l-70 133h91z" />
    <glyph glyph-name="Eacute" unicode="&#xc9;" horiz-adv-x="659" 
d="M52 0l148 765h472l-16 -82h-381l-50 -257h353l-16 -80h-352l-51 -264h390l-16 -82h-481zM413 827l83 133h101l-117 -133h-67z" />
    <glyph glyph-name="Ecircumflex" unicode="&#xca;" horiz-adv-x="659" 
d="M52 0l148 765h472l-16 -82h-381l-50 -257h353l-16 -80h-352l-51 -264h390l-16 -82h-481zM516 960l77 -133h-75l-50 76h-1l-77 -76h-79l113 133h92z" />
    <glyph glyph-name="Edieresis" unicode="&#xcb;" horiz-adv-x="659" 
d="M52 0l148 765h472l-16 -82h-381l-50 -257h353l-16 -80h-352l-51 -264h390l-16 -82h-481zM513 822l19 99h90l-19 -99h-90zM301 822l19 99h90l-19 -99h-90z" />
    <glyph glyph-name="Igrave" unicode="&#xcc;" horiz-adv-x="296" 
d="M54 0l148 765h91l-148 -765h-91zM254 960l45 -133h-66l-70 133h91z" />
    <glyph glyph-name="Iacute" unicode="&#xcd;" horiz-adv-x="296" 
d="M54 0l148 765h91l-148 -765h-91zM220 827l83 133h101l-117 -133h-67z" />
    <glyph glyph-name="Icircumflex" unicode="&#xce;" horiz-adv-x="296" 
d="M54 0l148 765h91l-148 -765h-91zM323 960l77 -133h-75l-50 76h-1l-77 -76h-79l113 133h92z" />
    <glyph glyph-name="Idieresis" unicode="&#xcf;" horiz-adv-x="296" 
d="M54 0l148 765h91l-148 -765h-91zM320 822l19 99h90l-19 -99h-90zM108 822l19 99h90l-19 -99h-90z" />
    <glyph glyph-name="Eth" unicode="&#xd0;" horiz-adv-x="773" 
d="M318 0h-248l67 348h-84l15 78h84l65 339h216q141 0 223.5 -73.5t82.5 -224.5q0 -95 -24.5 -177t-73.5 -148t-132 -104t-191 -38zM175 79h162q79 0 138.5 32t90.5 76.5t50 103t24 98.5t5 77q0 220 -219 220h-133l-51 -260h213l-15 -78h-213z" />
    <glyph glyph-name="Ntilde" unicode="&#xd1;" horiz-adv-x="779" 
d="M52 0l148 765h112l223 -580l23 -75h3l127 655h86l-148 -765h-111l-223 579l-25 74h-2l-126 -653h-87zM324 827q11 59 43.5 97t87.5 38q22 0 42 -9.5t32 -21t26 -21t25 -9.5q21 0 33.5 15t22.5 48h68q-11 -59 -43 -97t-87 -38q-36 0 -73.5 30t-53.5 30q-37 0 -56 -62h-67z
" />
    <glyph glyph-name="Ograve" unicode="&#xd2;" horiz-adv-x="802" 
d="M81 287q0 210 113 349.5t284 139.5q137 0 213 -85t76 -222q0 -88 -25.5 -173t-73 -155t-124 -113.5t-169.5 -43.5q-137 0 -215.5 85.5t-78.5 217.5zM673 473q0 45 -10.5 84.5t-33 73t-62.5 52.5t-94 19q-64 0 -116.5 -28t-85.5 -71.5t-55 -100t-31.5 -111t-9.5 -107.5
q0 -95 49.5 -160t153.5 -65q77 0 137 42.5t92.5 108t49 133.5t16.5 130zM505 960l45 -133h-66l-70 133h91z" />
    <glyph glyph-name="Oacute" unicode="&#xd3;" horiz-adv-x="802" 
d="M81 287q0 210 113 349.5t284 139.5q137 0 213 -85t76 -222q0 -88 -25.5 -173t-73 -155t-124 -113.5t-169.5 -43.5q-137 0 -215.5 85.5t-78.5 217.5zM673 473q0 45 -10.5 84.5t-33 73t-62.5 52.5t-94 19q-64 0 -116.5 -28t-85.5 -71.5t-55 -100t-31.5 -111t-9.5 -107.5
q0 -95 49.5 -160t153.5 -65q77 0 137 42.5t92.5 108t49 133.5t16.5 130zM472 827l83 133h101l-117 -133h-67z" />
    <glyph glyph-name="Ocircumflex" unicode="&#xd4;" horiz-adv-x="802" 
d="M81 287q0 210 113 349.5t284 139.5q137 0 213 -85t76 -222q0 -88 -25.5 -173t-73 -155t-124 -113.5t-169.5 -43.5q-137 0 -215.5 85.5t-78.5 217.5zM673 473q0 45 -10.5 84.5t-33 73t-62.5 52.5t-94 19q-64 0 -116.5 -28t-85.5 -71.5t-55 -100t-31.5 -111t-9.5 -107.5
q0 -95 49.5 -160t153.5 -65q77 0 137 42.5t92.5 108t49 133.5t16.5 130zM575 960l77 -133h-75l-50 76h-1l-77 -76h-79l113 133h92z" />
    <glyph glyph-name="Otilde" unicode="&#xd5;" horiz-adv-x="802" 
d="M81 287q0 210 113 349.5t284 139.5q137 0 213 -85t76 -222q0 -88 -25.5 -173t-73 -155t-124 -113.5t-169.5 -43.5q-137 0 -215.5 85.5t-78.5 217.5zM673 473q0 45 -10.5 84.5t-33 73t-62.5 52.5t-94 19q-64 0 -116.5 -28t-85.5 -71.5t-55 -100t-31.5 -111t-9.5 -107.5
q0 -95 49.5 -160t153.5 -65q77 0 137 42.5t92.5 108t49 133.5t16.5 130zM330 827q11 59 43.5 97t87.5 38q22 0 42 -9.5t32 -21t26 -21t25 -9.5q21 0 33.5 15t22.5 48h68q-11 -59 -43 -97t-87 -38q-36 0 -73.5 30t-53.5 30q-37 0 -56 -62h-67z" />
    <glyph glyph-name="Odieresis" unicode="&#xd6;" horiz-adv-x="802" 
d="M81 287q0 210 113 349.5t284 139.5q137 0 213 -85t76 -222q0 -88 -25.5 -173t-73 -155t-124 -113.5t-169.5 -43.5q-137 0 -215.5 85.5t-78.5 217.5zM673 473q0 45 -10.5 84.5t-33 73t-62.5 52.5t-94 19q-64 0 -116.5 -28t-85.5 -71.5t-55 -100t-31.5 -111t-9.5 -107.5
q0 -95 49.5 -160t153.5 -65q77 0 137 42.5t92.5 108t49 133.5t16.5 130zM571 822l19 99h90l-19 -99h-90zM359 822l19 99h90l-19 -99h-90z" />
    <glyph glyph-name="multiply" unicode="&#xd7;" horiz-adv-x="640" 
d="M138 124l-46 61l194 165l-131 164l62 53l128 -166l195 172l50 -60l-199 -168l134 -170l-62 -53l-129 171z" />
    <glyph glyph-name="Oslash" unicode="&#xd8;" horiz-adv-x="802" 
d="M473 702q-64 0 -116.5 -28t-85.5 -71.5t-55 -100t-31.5 -111t-9.5 -107.5q0 -56 11 -94l436 458q-51 54 -149 54zM378 59q77 0 137 42.5t92.5 108t49 133.5t16.5 130q0 69 -16 114l-440 -462q50 -66 161 -66zM767 469q0 -88 -25.5 -173t-73 -155t-124 -113.5
t-169.5 -43.5q-133 0 -213 83l-89 -93h-92l140 148q-40 72 -40 165q0 210 113 349.5t284 139.5q122 0 198 -71l79 83h93l-129 -135q48 -75 48 -184z" />
    <glyph glyph-name="Ugrave" unicode="&#xd9;" horiz-adv-x="744" 
d="M97 292l91 473h91l-83 -430q-30 -158 1 -210q38 -64 147 -64q107 0 165 61q13 14 22.5 29t16 36t9.5 33t8.5 42t7.5 42l89 461h91l-101 -523q-25 -132 -102 -194.5t-209 -62.5q-304 0 -244 307zM466 960l45 -133h-66l-70 133h91z" />
    <glyph glyph-name="Uacute" unicode="&#xda;" horiz-adv-x="744" 
d="M97 292l91 473h91l-83 -430q-30 -158 1 -210q38 -64 147 -64q107 0 165 61q13 14 22.5 29t16 36t9.5 33t8.5 42t7.5 42l89 461h91l-101 -523q-25 -132 -102 -194.5t-209 -62.5q-304 0 -244 307zM433 827l83 133h101l-117 -133h-67z" />
    <glyph glyph-name="Ucircumflex" unicode="&#xdb;" horiz-adv-x="744" 
d="M97 292l91 473h91l-83 -430q-30 -158 1 -210q38 -64 147 -64q107 0 165 61q13 14 22.5 29t16 36t9.5 33t8.5 42t7.5 42l89 461h91l-101 -523q-25 -132 -102 -194.5t-209 -62.5q-304 0 -244 307zM536 960l77 -133h-75l-50 76h-1l-77 -76h-79l113 133h92z" />
    <glyph glyph-name="Udieresis" unicode="&#xdc;" horiz-adv-x="744" 
d="M97 292l91 473h91l-83 -430q-30 -158 1 -210q38 -64 147 -64q107 0 165 61q13 14 22.5 29t16 36t9.5 33t8.5 42t7.5 42l89 461h91l-101 -523q-25 -132 -102 -194.5t-209 -62.5q-304 0 -244 307zM532 822l19 99h90l-19 -99h-90zM320 822l19 99h90l-19 -99h-90z" />
    <glyph glyph-name="Yacute" unicode="&#xdd;" horiz-adv-x="640" 
d="M221 0l65 334l-177 431h102l134 -352h2l280 352h100l-352 -438l-63 -327h-91zM389 827l83 133h101l-117 -133h-67z" />
    <glyph glyph-name="Thorn" unicode="&#xde;" horiz-adv-x="613" 
d="M329 240h6q83 2 131.5 47.5t48.5 132.5q0 125 -147 125h-119l-59 -305h139zM324 166h-149l-32 -166h-91l148 765h92l-28 -146h115q104 0 166 -49.5t62 -145.5q0 -121 -78.5 -189.5t-204.5 -68.5z" />
    <glyph glyph-name="germandbls" unicode="&#xdf;" horiz-adv-x="595" 
d="M32 0l111 571q21 108 83 161t149 53q85 0 133.5 -49t48.5 -127q0 -72 -36.5 -121t-101.5 -71v-2q52 -14 85 -58.5t33 -109.5q0 -106 -72 -176.5t-205 -70.5h-53l15 78h43q82 0 132 43t50 120q0 60 -35 98.5t-99 38.5h-16l13 74h15q69 0 106.5 42t37.5 108q0 52 -28.5 81
t-76.5 29q-107 0 -135 -145l-109 -567h-88z" />
    <glyph glyph-name="agrave" unicode="&#xe0;" horiz-adv-x="540" 
d="M201 64q51 0 99 45.5t64 125.5l3 15q-109 0 -157 -9q-45 -9 -71.5 -33t-26.5 -62t23 -60t66 -22zM180 383h-90q8 73 64 114.5t144 41.5q102 0 146.5 -57.5t24.5 -153.5l-38 -196q-7 -34 3 -49.5t35 -13.5l-13 -73h-9q-50 0 -74 23.5t-23 64.5h-3q-61 -92 -165 -92
q-69 0 -115 39t-46 111q0 132 177 164q49 9 182 9l4 24q11 62 -13 96.5t-81 34.5q-100 0 -110 -87zM290 788l70 -162h-65l-102 162h97z" />
    <glyph glyph-name="aacute" unicode="&#xe1;" horiz-adv-x="540" 
d="M201 64q51 0 99 45.5t64 125.5l3 15q-109 0 -157 -9q-45 -9 -71.5 -33t-26.5 -62t23 -60t66 -22zM180 383h-90q8 73 64 114.5t144 41.5q102 0 146.5 -57.5t24.5 -153.5l-38 -196q-7 -34 3 -49.5t35 -13.5l-13 -73h-9q-50 0 -74 23.5t-23 64.5h-3q-61 -92 -165 -92
q-69 0 -115 39t-46 111q0 132 177 164q49 9 182 9l4 24q11 62 -13 96.5t-81 34.5q-100 0 -110 -87zM288 626l81 162h101l-117 -162h-65z" />
    <glyph glyph-name="acircumflex" unicode="&#xe2;" horiz-adv-x="540" 
d="M201 64q51 0 99 45.5t64 125.5l3 15q-109 0 -157 -9q-45 -9 -71.5 -33t-26.5 -62t23 -60t66 -22zM180 383h-90q8 73 64 114.5t144 41.5q102 0 146.5 -57.5t24.5 -153.5l-38 -196q-7 -34 3 -49.5t35 -13.5l-13 -73h-9q-50 0 -74 23.5t-23 64.5h-3q-61 -92 -165 -92
q-69 0 -115 39t-46 111q0 132 177 164q49 9 182 9l4 24q11 62 -13 96.5t-81 34.5q-100 0 -110 -87zM399 788l66 -162h-78l-43 102l-79 -102h-82l123 162h93z" />
    <glyph glyph-name="atilde" unicode="&#xe3;" horiz-adv-x="540" 
d="M201 64q51 0 99 45.5t64 125.5l3 15q-109 0 -157 -9q-45 -9 -71.5 -33t-26.5 -62t23 -60t66 -22zM180 383h-90q8 73 64 114.5t144 41.5q102 0 146.5 -57.5t24.5 -153.5l-38 -196q-7 -34 3 -49.5t35 -13.5l-13 -73h-9q-50 0 -74 23.5t-23 64.5h-3q-61 -92 -165 -92
q-69 0 -115 39t-46 111q0 132 177 164q49 9 182 9l4 24q11 62 -13 96.5t-81 34.5q-100 0 -110 -87zM156 624q16 135 120 135q31 0 74 -30.5t58 -30.5q38 0 45 63h64q-16 -135 -120 -135q-31 0 -74 30.5t-58 30.5q-38 0 -45 -63h-64z" />
    <glyph glyph-name="adieresis" unicode="&#xe4;" horiz-adv-x="540" 
d="M201 64q51 0 99 45.5t64 125.5l3 15q-109 0 -157 -9q-45 -9 -71.5 -33t-26.5 -62t23 -60t66 -22zM180 383h-90q8 73 64 114.5t144 41.5q102 0 146.5 -57.5t24.5 -153.5l-38 -196q-7 -34 3 -49.5t35 -13.5l-13 -73h-9q-50 0 -74 23.5t-23 64.5h-3q-61 -92 -165 -92
q-69 0 -115 39t-46 111q0 132 177 164q49 9 182 9l4 24q11 62 -13 96.5t-81 34.5q-100 0 -110 -87zM378 646l19 99h90l-19 -99h-90zM186 646l19 99h90l-19 -99h-90z" />
    <glyph glyph-name="aring" unicode="&#xe5;" horiz-adv-x="540" 
d="M201 64q51 0 99 45.5t64 125.5l3 15q-109 0 -157 -9q-45 -9 -71.5 -33t-26.5 -62t23 -60t66 -22zM180 383h-90q8 73 64 114.5t144 41.5q102 0 146.5 -57.5t24.5 -153.5l-38 -196q-7 -34 3 -49.5t35 -13.5l-13 -73h-9q-50 0 -74 23.5t-23 64.5h-3q-61 -92 -165 -92
q-69 0 -115 39t-46 111q0 132 177 164q49 9 182 9l4 24q11 62 -13 96.5t-81 34.5q-100 0 -110 -87zM336 624q-48 1 -75 28.5t-27 71.5q0 50 31.5 82t81.5 32t78 -27.5t28 -72.5q0 -53 -32 -83.5t-85 -30.5zM348 792q-26 0 -41 -18t-15 -49q0 -24 12.5 -39.5t35.5 -15.5
q26 0 41 18t15 49q0 24 -13 39t-35 16z" />
    <glyph glyph-name="ae" unicode="&#xe6;" horiz-adv-x="865" 
d="M735 309l1 6q11 70 -12 114t-89 44q-61 0 -102.5 -46.5t-61.5 -117.5h264zM200 63q54 0 100 43t64 129l3 15q-109 0 -157 -9q-98 -19 -98 -95q0 -39 22.5 -61t65.5 -22zM785 138q-20 -72 -77 -111.5t-141 -39.5q-138 0 -183 116h-3q-43 -54 -89 -82t-117 -28
q-66 0 -110 38t-44 108q0 73 46 112.5t131 54.5q49 9 182 9l4 24q11 62 -13 96.5t-82 34.5q-100 0 -110 -87h-90q8 73 64 114.5t144 41.5q118 0 158 -97h1q34 45 83 71.5t104 26.5q76 0 122 -39.5t54 -97.5t-2 -126l-8 -38h-352q-2 -30 -2 -43q0 -61 29 -101.5t93 -40.5
q95 0 122 84h86z" />
    <glyph glyph-name="ccedilla" unicode="&#xe7;" horiz-adv-x="525" 
d="M200 -212q-34 0 -57 16.5t-23 49.5h56q4 -22 28 -22q37 0 37 38q0 33 -27 33q-18 0 -29 -11h-58l62 101q-72 17 -108.5 72.5t-36.5 137.5q0 59 17.5 117.5t50.5 108t88 80.5t123 31q83 0 128.5 -44.5t46.5 -127.5h-83q2 46 -24 75t-76 29q-60 0 -103.5 -44.5
t-61.5 -103.5t-18 -121q0 -63 29 -104.5t92 -42.5q61 -1 94.5 35t39.5 81h86q-17 -87 -78.5 -136t-145.5 -49h-15l-31 -50h2q11 6 34 6q27 0 43.5 -19t16.5 -48q0 -39 -27 -63.5t-72 -24.5z" />
    <glyph glyph-name="egrave" unicode="&#xe8;" horiz-adv-x="539" 
d="M409 309l1 6q11 68 -14 113t-92 45q-61 0 -101.5 -46t-59.5 -118h266zM459 138q-20 -72 -77 -111.5t-141 -39.5q-96 0 -147.5 59t-51.5 150q0 87 29 163.5t92.5 128.5t149.5 52q58 0 99 -23t59.5 -60t25 -84t-5.5 -96l-8 -38h-352q-2 -30 -2 -43q0 -60 28.5 -100
t93.5 -40q95 0 122 82h86zM307 788l70 -162h-65l-102 162h97z" />
    <glyph glyph-name="eacute" unicode="&#xe9;" horiz-adv-x="539" 
d="M409 309l1 6q11 68 -14 113t-92 45q-61 0 -101.5 -46t-59.5 -118h266zM459 138q-20 -72 -77 -111.5t-141 -39.5q-96 0 -147.5 59t-51.5 150q0 87 29 163.5t92.5 128.5t149.5 52q58 0 99 -23t59.5 -60t25 -84t-5.5 -96l-8 -38h-352q-2 -30 -2 -43q0 -60 28.5 -100
t93.5 -40q95 0 122 82h86zM304 626l81 162h101l-117 -162h-65z" />
    <glyph glyph-name="ecircumflex" unicode="&#xea;" horiz-adv-x="539" 
d="M409 309l1 6q11 68 -14 113t-92 45q-61 0 -101.5 -46t-59.5 -118h266zM459 138q-20 -72 -77 -111.5t-141 -39.5q-96 0 -147.5 59t-51.5 150q0 87 29 163.5t92.5 128.5t149.5 52q58 0 99 -23t59.5 -60t25 -84t-5.5 -96l-8 -38h-352q-2 -30 -2 -43q0 -60 28.5 -100
t93.5 -40q95 0 122 82h86zM415 788l66 -162h-78l-43 102l-79 -102h-82l123 162h93z" />
    <glyph glyph-name="edieresis" unicode="&#xeb;" horiz-adv-x="539" 
d="M409 309l1 6q11 68 -14 113t-92 45q-61 0 -101.5 -46t-59.5 -118h266zM459 138q-20 -72 -77 -111.5t-141 -39.5q-96 0 -147.5 59t-51.5 150q0 87 29 163.5t92.5 128.5t149.5 52q58 0 99 -23t59.5 -60t25 -84t-5.5 -96l-8 -38h-352q-2 -30 -2 -43q0 -60 28.5 -100
t93.5 -40q95 0 122 82h86zM395 646l19 99h90l-19 -99h-90zM203 646l19 99h90l-19 -99h-90z" />
    <glyph glyph-name="igrave" unicode="&#xec;" horiz-adv-x="273" 
d="M41 0l102 527h89l-102 -527h-89zM173 788l70 -162h-65l-102 162h97z" />
    <glyph glyph-name="iacute" unicode="&#xed;" horiz-adv-x="273" 
d="M41 0l102 527h89l-102 -527h-89zM170 626l81 162h101l-117 -162h-65z" />
    <glyph glyph-name="icircumflex" unicode="&#xee;" horiz-adv-x="273" 
d="M281 788l54 -162h-73l-36 102l-69 -102h-82l113 162h93zM41 0l102 527h89l-102 -527h-89z" />
    <glyph glyph-name="idieresis" unicode="&#xef;" horiz-adv-x="273" 
d="M255 646l20 99h81l-20 -99h-81zM84 646l20 99h81l-20 -99h-81zM41 0l102 527h89l-102 -527h-89z" />
    <glyph glyph-name="eth" unicode="&#xf0;" horiz-adv-x="559" 
d="M245 -13q-103 0 -153 57.5t-50 151.5q0 61 16.5 120t48 109.5t84.5 82t119 31.5q77 0 110 -45h2q-23 85 -76 149l-152 -52l-16 50l127 44q-41 37 -105 79l76 30q61 -35 109 -82l117 40l18 -50l-97 -33q93 -118 93 -285q0 -185 -74 -291t-197 -106zM425 338
q0 135 -115 135q-48 0 -84.5 -28t-56.5 -72t-29.5 -90.5t-9.5 -92.5q0 -65 30 -100t88 -35q50 0 86.5 29t55 75.5t27 91t8.5 87.5z" />
    <glyph glyph-name="ntilde" unicode="&#xf1;" horiz-adv-x="595" 
d="M369 0l60 311q8 38 8 68q0 86 -84 86q-66 0 -109 -47.5t-59 -132.5l-55 -285h-89l102 527h85l-18 -89h2q27 45 72.5 73.5t100.5 28.5q84 0 120 -55.5t15 -160.5l-62 -324h-89zM201 624q16 135 120 135q31 0 74 -30.5t58 -30.5q38 0 45 63h64q-16 -135 -120 -135
q-31 0 -74 30.5t-58 30.5q-38 0 -45 -63h-64z" />
    <glyph glyph-name="ograve" unicode="&#xf2;" horiz-adv-x="555" 
d="M245 -13q-102 0 -152.5 58t-50.5 151q0 48 10 95.5t32 92.5t52.5 79.5t75.5 55.5t98 21q103 0 153 -57.5t50 -150.5q0 -48 -10 -96t-31.5 -93t-52 -79.5t-76 -55.5t-98.5 -21zM425 338q0 135 -117 135q-47 0 -83 -28t-56 -72t-29.5 -91t-9.5 -92q0 -135 118 -135
q41 0 73 20.5t51 51.5t31.5 71t17 74t4.5 66zM314 788l70 -162h-65l-102 162h97z" />
    <glyph glyph-name="oacute" unicode="&#xf3;" horiz-adv-x="555" 
d="M245 -13q-102 0 -152.5 58t-50.5 151q0 48 10 95.5t32 92.5t52.5 79.5t75.5 55.5t98 21q103 0 153 -57.5t50 -150.5q0 -48 -10 -96t-31.5 -93t-52 -79.5t-76 -55.5t-98.5 -21zM425 338q0 135 -117 135q-47 0 -83 -28t-56 -72t-29.5 -91t-9.5 -92q0 -135 118 -135
q41 0 73 20.5t51 51.5t31.5 71t17 74t4.5 66zM311 626l81 162h101l-117 -162h-65z" />
    <glyph glyph-name="ocircumflex" unicode="&#xf4;" horiz-adv-x="555" 
d="M245 -13q-102 0 -152.5 58t-50.5 151q0 48 10 95.5t32 92.5t52.5 79.5t75.5 55.5t98 21q103 0 153 -57.5t50 -150.5q0 -48 -10 -96t-31.5 -93t-52 -79.5t-76 -55.5t-98.5 -21zM425 338q0 135 -117 135q-47 0 -83 -28t-56 -72t-29.5 -91t-9.5 -92q0 -135 118 -135
q41 0 73 20.5t51 51.5t31.5 71t17 74t4.5 66zM422 788l66 -162h-78l-43 102l-79 -102h-82l123 162h93z" />
    <glyph glyph-name="otilde" unicode="&#xf5;" horiz-adv-x="555" 
d="M245 -13q-102 0 -152.5 58t-50.5 151q0 48 10 95.5t32 92.5t52.5 79.5t75.5 55.5t98 21q103 0 153 -57.5t50 -150.5q0 -48 -10 -96t-31.5 -93t-52 -79.5t-76 -55.5t-98.5 -21zM425 338q0 135 -117 135q-47 0 -83 -28t-56 -72t-29.5 -91t-9.5 -92q0 -135 118 -135
q41 0 73 20.5t51 51.5t31.5 71t17 74t4.5 66zM179 624q16 135 120 135q31 0 74 -30.5t58 -30.5q38 0 45 63h64q-16 -135 -120 -135q-31 0 -74 30.5t-58 30.5q-38 0 -45 -63h-64z" />
    <glyph glyph-name="odieresis" unicode="&#xf6;" horiz-adv-x="555" 
d="M245 -13q-102 0 -152.5 58t-50.5 151q0 48 10 95.5t32 92.5t52.5 79.5t75.5 55.5t98 21q103 0 153 -57.5t50 -150.5q0 -48 -10 -96t-31.5 -93t-52 -79.5t-76 -55.5t-98.5 -21zM425 338q0 135 -117 135q-47 0 -83 -28t-56 -72t-29.5 -91t-9.5 -92q0 -135 118 -135
q41 0 73 20.5t51 51.5t31.5 71t17 74t4.5 66zM402 646l19 99h90l-19 -99h-90zM210 646l19 99h90l-19 -99h-90z" />
    <glyph glyph-name="divide" unicode="&#xf7;" horiz-adv-x="613" 
d="M303 498l19 97h93l-19 -97h-93zM89 318l16 79h454l-16 -79h-454zM323 120h-93l19 97h93z" />
    <glyph glyph-name="oslash" unicode="&#xf8;" horiz-adv-x="555" 
d="M308 473q-47 0 -83 -28t-56 -72t-29.5 -91t-9.5 -92q0 -24 3 -43l271 284q-28 42 -96 42zM248 55q41 0 73 20.5t51 51.5t31.5 71t17 74t4.5 66q0 13 -2 35l-270 -283q29 -35 95 -35zM513 332q0 -48 -10 -96t-31.5 -93t-52 -79.5t-76 -55.5t-98.5 -21q-92 0 -144 49
l-60 -63h-74l101 106q-26 49 -26 117q0 48 10 95.5t32 92.5t52.5 79.5t75.5 55.5t98 21q94 0 148 -52l59 62h75l-102 -107q23 -46 23 -111z" />
    <glyph glyph-name="ugrave" unicode="&#xf9;" horiz-adv-x="592" 
d="M226 527l-60 -311q-9 -45 -9 -71q-2 -84 81 -84q67 0 110 50.5t61 143.5l53 272h89l-103 -527h-84l18 90h-2q-60 -103 -166 -103q-86 0 -123 56t-16 161l62 323h89zM329 788l70 -162h-65l-102 162h97z" />
    <glyph glyph-name="uacute" unicode="&#xfa;" horiz-adv-x="592" 
d="M226 527l-60 -311q-9 -45 -9 -71q-2 -84 81 -84q67 0 110 50.5t61 143.5l53 272h89l-103 -527h-84l18 90h-2q-60 -103 -166 -103q-86 0 -123 56t-16 161l62 323h89zM326 626l81 162h101l-117 -162h-65z" />
    <glyph glyph-name="ucircumflex" unicode="&#xfb;" horiz-adv-x="592" 
d="M226 527l-60 -311q-9 -45 -9 -71q-2 -84 81 -84q67 0 110 50.5t61 143.5l53 272h89l-103 -527h-84l18 90h-2q-60 -103 -166 -103q-86 0 -123 56t-16 161l62 323h89zM437 788l66 -162h-78l-43 102l-79 -102h-82l123 162h93z" />
    <glyph glyph-name="udieresis" unicode="&#xfc;" horiz-adv-x="592" 
d="M226 527l-60 -311q-9 -45 -9 -71q-2 -84 81 -84q67 0 110 50.5t61 143.5l53 272h89l-103 -527h-84l18 90h-2q-60 -103 -166 -103q-86 0 -123 56t-16 161l62 323h89zM417 646l19 99h90l-19 -99h-90zM225 646l19 99h90l-19 -99h-90z" />
    <glyph glyph-name="yacute" unicode="&#xfd;" horiz-adv-x="510" 
d="M166 4l-82 523h88l48 -330l10 -82h3q18 37 40 81l166 331h90l-300 -571q-47 -90 -87.5 -122t-114.5 -33q-33 0 -63 9l15 73q25 -7 44 -7q44 1 71.5 21.5t54.5 74.5zM296 626l81 162h101l-117 -162h-65z" />
    <glyph glyph-name="thorn" unicode="&#xfe;" horiz-adv-x="598" 
d="M298 57q45 0 79.5 28.5t53 73t27.5 91t9 90.5q0 129 -104 129q-67 0 -114.5 -48.5t-61.5 -116.5l-12 -56q-9 -34 -6 -68t15 -61.5t41.5 -44.5t72.5 -17zM4 -188l190 976h89l-68 -348h1q60 100 170 100q86 0 127.5 -54.5t41.5 -146.5q0 -58 -14.5 -117t-43.5 -113t-80 -88
t-117 -34q-53 0 -95 26t-57 75h-1l-54 -276h-89z" />
    <glyph glyph-name="ydieresis" unicode="&#xff;" horiz-adv-x="510" 
d="M166 4l-82 523h88l48 -330l10 -82h3q18 37 40 81l166 331h90l-300 -571q-47 -90 -87.5 -122t-114.5 -33q-33 0 -63 9l15 73q25 -7 44 -7q44 1 71.5 21.5t54.5 74.5zM387 646l19 99h90l-19 -99h-90zM195 646l19 99h90l-19 -99h-90z" />
    <glyph glyph-name="Amacron" unicode="&#x100;" horiz-adv-x="722" 
d="M434 675q0 -1 -3 -7t-7.5 -16t-10.5 -22.5t-15 -30t-18 -35.5l-135 -262h248l-42 262l-15 111h-2zM542 0l-37 229h-297l-118 -229h-94l401 765h106l132 -765h-93zM327 852l15 73h286l-15 -73h-286z" />
    <glyph glyph-name="amacron" unicode="&#x101;" horiz-adv-x="540" 
d="M201 64q51 0 99 45.5t64 125.5l3 15q-109 0 -157 -9q-45 -9 -71.5 -33t-26.5 -62t23 -60t66 -22zM180 383h-90q8 73 64 114.5t144 41.5q102 0 146.5 -57.5t24.5 -153.5l-38 -196q-7 -34 3 -49.5t35 -13.5l-13 -73h-9q-50 0 -74 23.5t-23 64.5h-3q-61 -92 -165 -92
q-69 0 -115 39t-46 111q0 132 177 164q49 9 182 9l4 24q11 62 -13 96.5t-81 34.5q-100 0 -110 -87zM185 646l14 73h286l-14 -73h-286z" />
    <glyph glyph-name="Abreve" unicode="&#x102;" horiz-adv-x="722" 
d="M434 675q0 -1 -3 -7t-7.5 -16t-10.5 -22.5t-15 -30t-18 -35.5l-135 -262h248l-42 262l-15 111h-2zM542 0l-37 229h-297l-118 -229h-94l401 765h106l132 -765h-93zM340 957h65q-2 -36 14.5 -55t49.5 -19q72 0 97 74h68q-19 -71 -64 -105.5t-107 -34.5q-61 0 -96.5 35
t-26.5 105z" />
    <glyph glyph-name="abreve" unicode="&#x103;" horiz-adv-x="540" 
d="M201 64q51 0 99 45.5t64 125.5l3 15q-109 0 -157 -9q-45 -9 -71.5 -33t-26.5 -62t23 -60t66 -22zM180 383h-90q8 73 64 114.5t144 41.5q102 0 146.5 -57.5t24.5 -153.5l-38 -196q-7 -34 3 -49.5t35 -13.5l-13 -73h-9q-50 0 -74 23.5t-23 64.5h-3q-61 -92 -165 -92
q-69 0 -115 39t-46 111q0 132 177 164q49 9 182 9l4 24q11 62 -13 96.5t-81 34.5q-100 0 -110 -87zM336 629q-68 0 -104 39.5t-20 119.5h65q-9 -45 8.5 -69t54.5 -24q80 0 100 93h67q-16 -80 -62 -119.5t-109 -39.5z" />
    <glyph glyph-name="Aogonek" unicode="&#x104;" horiz-adv-x="722" 
d="M597 -188h-18q-53 0 -83.5 19t-30.5 56q0 74 97 113h-20l-37 229h-297l-118 -229h-94l401 765h106l132 -765q-83 -49 -83 -92q0 -34 57 -34zM434 675q0 -1 -3 -7t-7.5 -16t-10.5 -22.5t-15 -30t-18 -35.5l-135 -262h248l-42 262l-15 111h-2z" />
    <glyph glyph-name="aogonek" unicode="&#x105;" horiz-adv-x="540" 
d="M398 0v4q-48 20 -48 80h-3q-61 -92 -165 -92q-69 0 -115 39t-46 111q0 71 46 110t131 54q49 9 182 9l4 24q11 62 -13 96.5t-81 34.5q-100 0 -110 -87h-90q8 73 64 114.5t144 41.5q102 0 146 -57.5t25 -153.5l-38 -196q-7 -36 2 -50.5t36 -12.5l-12 -69q-45 -26 -64 -46
t-19 -46q0 -34 57 -34l-12 -62h-18q-114 0 -114 79q0 71 111 109zM201 64q51 0 99 45.5t64 125.5l3 15q-109 0 -157 -9q-45 -9 -71.5 -33t-26.5 -62q0 -39 23 -60.5t66 -21.5z" />
    <glyph glyph-name="Cacute" unicode="&#x106;" horiz-adv-x="755" 
d="M739 537h-91q-6 80 -52 122t-120 42q-66 0 -119 -27t-86 -69.5t-55 -98t-31 -110t-9 -108.5q0 -99 48 -164t154 -65q90 0 146 50t76 130h92q-28 -119 -113 -187t-207 -68q-140 0 -214.5 85t-74.5 235q0 65 14.5 130t47 127t78.5 109.5t114 76.5t148 29q109 0 178.5 -61.5
t75.5 -177.5zM459 827l83 133h101l-117 -133h-67z" />
    <glyph glyph-name="cacute" unicode="&#x107;" horiz-adv-x="525" 
d="M498 368h-83q2 46 -24 75t-76 29q-60 0 -103.5 -44.5t-61.5 -103.5t-18 -121q0 -63 29 -104.5t92 -42.5q61 -1 94.5 35t39.5 81h86q-17 -87 -78.5 -136t-145.5 -49q-101 0 -153 59t-52 157q0 59 17.5 117.5t50.5 108t88 80.5t123 31q83 0 128.5 -44.5t46.5 -127.5z
M309 626l81 162h101l-117 -162h-65z" />
    <glyph glyph-name="Ccircumflex" unicode="&#x108;" horiz-adv-x="755" 
d="M739 537h-91q-6 80 -52 122t-120 42q-66 0 -119 -27t-86 -69.5t-55 -98t-31 -110t-9 -108.5q0 -99 48 -164t154 -65q90 0 146 50t76 130h92q-28 -119 -113 -187t-207 -68q-140 0 -214.5 85t-74.5 235q0 65 14.5 130t47 127t78.5 109.5t114 76.5t148 29q109 0 178.5 -61.5
t75.5 -177.5zM559 960l77 -133h-75l-50 76h-1l-77 -76h-79l113 133h92z" />
    <glyph glyph-name="ccircumflex" unicode="&#x109;" horiz-adv-x="525" 
d="M498 368h-83q2 46 -24 75t-76 29q-60 0 -103.5 -44.5t-61.5 -103.5t-18 -121q0 -63 29 -104.5t92 -42.5q61 -1 94.5 35t39.5 81h86q-17 -87 -78.5 -136t-145.5 -49q-101 0 -153 59t-52 157q0 59 17.5 117.5t50.5 108t88 80.5t123 31q83 0 128.5 -44.5t46.5 -127.5z
M420 788l66 -162h-78l-43 102l-79 -102h-82l123 162h93z" />
    <glyph glyph-name="Cdotaccent" unicode="&#x10a;" horiz-adv-x="755" 
d="M739 537h-91q-6 80 -52 122t-120 42q-66 0 -119 -27t-86 -69.5t-55 -98t-31 -110t-9 -108.5q0 -99 48 -164t154 -65q90 0 146 50t76 130h92q-28 -119 -113 -187t-207 -68q-140 0 -214.5 85t-74.5 235q0 65 14.5 130t47 127t78.5 109.5t114 76.5t148 29q109 0 178.5 -61.5
t75.5 -177.5zM463 837l19 99h93l-19 -99h-93z" />
    <glyph glyph-name="cdotaccent" unicode="&#x10b;" horiz-adv-x="525" 
d="M498 368h-83q2 46 -24 75t-76 29q-60 0 -103.5 -44.5t-61.5 -103.5t-18 -121q0 -63 29 -104.5t92 -42.5q61 -1 94.5 35t39.5 81h86q-17 -87 -78.5 -136t-145.5 -49q-101 0 -153 59t-52 157q0 59 17.5 117.5t50.5 108t88 80.5t123 31q83 0 128.5 -44.5t46.5 -127.5z
M303 646l19 99h93l-19 -99h-93z" />
    <glyph glyph-name="Ccaron" unicode="&#x10c;" horiz-adv-x="755" 
d="M739 537h-91q-6 80 -52 122t-120 42q-66 0 -119 -27t-86 -69.5t-55 -98t-31 -110t-9 -108.5q0 -99 48 -164t154 -65q90 0 146 50t76 130h92q-28 -119 -113 -187t-207 -68q-140 0 -214.5 85t-74.5 235q0 65 14.5 130t47 127t78.5 109.5t114 76.5t148 29q109 0 178.5 -61.5
t75.5 -177.5zM449 827l-81 133h80l52 -76h1l79 76h86l-125 -133h-92z" />
    <glyph glyph-name="ccaron" unicode="&#x10d;" horiz-adv-x="525" 
d="M498 368h-83q2 46 -24 75t-76 29q-60 0 -103.5 -44.5t-61.5 -103.5t-18 -121q0 -63 29 -104.5t92 -42.5q61 -1 94.5 35t39.5 81h86q-17 -87 -78.5 -136t-145.5 -49q-101 0 -153 59t-52 157q0 59 17.5 117.5t50.5 108t88 80.5t123 31q83 0 128.5 -44.5t46.5 -127.5z
M301 626l-66 162h78l43 -102l79 102h82l-123 -162h-93z" />
    <glyph glyph-name="Dcaron" unicode="&#x10e;" horiz-adv-x="755" 
d="M52 0l147 765h216q141 0 223.5 -73.5t82.5 -224.5q0 -95 -24.5 -177t-73.5 -148t-132 -104t-191 -38h-248zM157 79h162q79 0 138.5 32t90.5 76.5t50 103t24 98.5t5 77q0 220 -219 220h-133zM395 827l-81 133h80l52 -76h1l79 76h86l-125 -133h-92z" />
    <glyph glyph-name="dcaron" unicode="&#x10f;" horiz-adv-x="598" 
d="M315 469q-47 0 -84 -28t-57.5 -72t-31 -91t-10.5 -93q0 -56 24.5 -91.5t80.5 -35.5q68 0 115 48t61 118l11 56q9 33 7.5 67t-11 61t-36.5 44t-69 17zM609 788l-153 -788h-84l16 85h-2q-64 -98 -163 -98q-89 0 -134 53.5t-45 145.5q0 85 27.5 163.5t89.5 134.5t147 56
q116 0 145 -97h1l66 345h89zM635 626l48 162h84l-77 -162h-55z" />
    <glyph glyph-name="Dcroat" unicode="&#x110;" horiz-adv-x="773" 
d="M318 0h-248l67 348h-84l15 78h84l65 339h216q141 0 223.5 -73.5t82.5 -224.5q0 -95 -24.5 -177t-73.5 -148t-132 -104t-191 -38zM175 79h162q79 0 138.5 32t90.5 76.5t50 103t24 98.5t5 77q0 220 -219 220h-133l-51 -260h213l-15 -78h-213z" />
    <glyph glyph-name="dcroat" unicode="&#x111;" horiz-adv-x="598" 
d="M315 469q-47 0 -84 -28t-57.5 -72t-31 -91t-10.5 -93q0 -56 24.5 -91.5t80.5 -35.5q68 0 115 48t61 118l11 56q9 33 7.5 67t-11 61t-36.5 44t-69 17zM386 85q-64 -98 -163 -98q-89 0 -134 53.5t-45 145.5q0 85 27.5 163.5t89.5 134.5t147 56q116 0 145 -97h1l35 181h-155
l12 63h155l19 101h89l-20 -101h75l-12 -63h-75l-121 -624h-84l16 85h-2z" />
    <glyph glyph-name="Emacron" unicode="&#x112;" horiz-adv-x="659" 
d="M52 0l148 765h472l-16 -82h-381l-50 -257h353l-16 -80h-352l-51 -264h390l-16 -82h-481zM314 852l15 73h286l-15 -73h-286z" />
    <glyph glyph-name="emacron" unicode="&#x113;" horiz-adv-x="539" 
d="M409 309l1 6q11 68 -14 113t-92 45q-61 0 -101.5 -46t-59.5 -118h266zM459 138q-20 -72 -77 -111.5t-141 -39.5q-96 0 -147.5 59t-51.5 150q0 87 29 163.5t92.5 128.5t149.5 52q58 0 99 -23t59.5 -60t25 -84t-5.5 -96l-8 -38h-352q-2 -30 -2 -43q0 -60 28.5 -100
t93.5 -40q95 0 122 82h86zM201 646l14 73h286l-14 -73h-286z" />
    <glyph glyph-name="Ebreve" unicode="&#x114;" horiz-adv-x="659" 
d="M52 0l148 765h472l-16 -82h-381l-50 -257h353l-16 -80h-352l-51 -264h390l-16 -82h-481zM325 970h65q-2 -36 14.5 -55t49.5 -19q72 0 97 74h68q-19 -71 -64 -105.5t-107 -34.5q-61 0 -96.5 35t-26.5 105z" />
    <glyph glyph-name="ebreve" unicode="&#x115;" horiz-adv-x="539" 
d="M409 309l1 6q11 68 -14 113t-92 45q-61 0 -101.5 -46t-59.5 -118h266zM459 138q-20 -72 -77 -111.5t-141 -39.5q-96 0 -147.5 59t-51.5 150q0 87 29 163.5t92.5 128.5t149.5 52q58 0 99 -23t59.5 -60t25 -84t-5.5 -96l-8 -38h-352q-2 -30 -2 -43q0 -60 28.5 -100
t93.5 -40q95 0 122 82h86zM353 629q-68 0 -104 39.5t-20 119.5h65q-9 -45 8.5 -69t54.5 -24q81 0 100 93h67q-16 -80 -62 -119.5t-109 -39.5z" />
    <glyph glyph-name="Edotaccent" unicode="&#x116;" horiz-adv-x="659" 
d="M52 0l148 765h472l-16 -82h-381l-50 -257h353l-16 -80h-352l-51 -264h390l-16 -82h-481zM408 837l19 99h93l-19 -99h-93z" />
    <glyph glyph-name="edotaccent" unicode="&#x117;" horiz-adv-x="539" 
d="M409 309l1 6q11 68 -14 113t-92 45q-61 0 -101.5 -46t-59.5 -118h266zM459 138q-20 -72 -77 -111.5t-141 -39.5q-96 0 -147.5 59t-51.5 150q0 87 29 163.5t92.5 128.5t149.5 52q58 0 99 -23t59.5 -60t25 -84t-5.5 -96l-8 -38h-352q-2 -30 -2 -43q0 -60 28.5 -100
t93.5 -40q95 0 122 82h86zM298 646l19 99h93l-19 -99h-93z" />
    <glyph glyph-name="Eogonek" unicode="&#x118;" horiz-adv-x="659" 
d="M507 -126l-12 -62h-18q-53 0 -83.5 19t-30.5 56q0 38 28.5 68.5t70.5 44.5h-410l148 765h472l-16 -82h-381l-50 -257h353l-16 -80h-352l-51 -264h390l-16 -82q-83 -49 -83 -92q0 -34 57 -34z" />
    <glyph glyph-name="eogonek" unicode="&#x119;" horiz-adv-x="539" 
d="M409 309l1 6q24 158 -106 158q-61 0 -101.5 -46t-59.5 -118h266zM338 -126l-12 -62h-18q-53 0 -83.5 19t-30.5 56q0 33 23.5 60t59.5 44v2q-25 -5 -44 -5q-82 -1 -136.5 55t-54.5 153q0 87 29 163.5t92.5 128.5t149.5 52q60 0 101.5 -23t59 -60t23.5 -84t-6 -96l-8 -38
h-352q-2 -30 -2 -43q0 -60 28.5 -100t93.5 -40q95 0 122 82h86q-25 -87 -109 -133q-32 -18 -51.5 -43t-19.5 -50q0 -38 59 -38z" />
    <glyph glyph-name="Ecaron" unicode="&#x11a;" horiz-adv-x="659" 
d="M52 0l148 765h472l-16 -82h-381l-50 -257h353l-16 -80h-352l-51 -264h390l-16 -82h-481zM410 827l-81 133h80l52 -76h1l79 76h86l-125 -133h-92z" />
    <glyph glyph-name="ecaron" unicode="&#x11b;" horiz-adv-x="539" 
d="M409 309l1 6q11 68 -14 113t-92 45q-61 0 -101.5 -46t-59.5 -118h266zM459 138q-20 -72 -77 -111.5t-141 -39.5q-96 0 -147.5 59t-51.5 150q0 87 29 163.5t92.5 128.5t149.5 52q58 0 99 -23t59.5 -60t25 -84t-5.5 -96l-8 -38h-352q-2 -30 -2 -43q0 -60 28.5 -100
t93.5 -40q95 0 122 82h86zM296 626l-66 162h78l43 -102l79 102h82l-123 -162h-93z" />
    <glyph glyph-name="Gcircumflex" unicode="&#x11c;" horiz-adv-x="806" 
d="M743 562h-91q-2 65 -44.5 102.5t-116.5 37.5t-132 -30.5t-91.5 -75.5t-55.5 -104t-29.5 -109.5t-7.5 -98.5q0 -95 48 -160t151 -65q106 0 172.5 65.5t86.5 169.5l2 12h-217l17 80h306l-75 -386h-79l24 124h-3q-31 -65 -95 -102t-148 -37q-72 0 -128 24.5t-89.5 66.5
t-50.5 94t-17 111q0 65 13 130t44.5 132t78 118t119.5 83t163 32q112 0 177 -55t68 -159zM578 960l77 -133h-75l-50 76h-1l-77 -76h-79l113 133h92z" />
    <glyph glyph-name="gcircumflex" unicode="&#x11d;" horiz-adv-x="596" 
d="M413 232l11 56q16 78 -7.5 129.5t-103.5 51.5q-47 0 -83.5 -27.5t-57.5 -71.5t-31.5 -91.5t-10.5 -94.5q0 -118 107 -118q67 0 114.5 48.5t61.5 117.5zM14 -50h85q2 -38 30 -59.5t79 -21.5q133 0 165 167l11 54h-2q-65 -93 -167 -93q-84 0 -128.5 50t-44.5 137
q0 62 17 123.5t48.5 114.5t84.5 85.5t119 32.5q112 0 144 -97h1l17 84h83l-99 -507q-43 -219 -257 -219q-77 0 -131.5 37.5t-54.5 111.5zM425 788l66 -162h-78l-43 102l-79 -102h-82l123 162h93z" />
    <glyph glyph-name="Gbreve" unicode="&#x11e;" horiz-adv-x="806" 
d="M743 562h-91q-2 65 -44.5 102.5t-116.5 37.5t-132 -30.5t-91.5 -75.5t-55.5 -104t-29.5 -109.5t-7.5 -98.5q0 -95 48 -160t151 -65q106 0 172.5 65.5t86.5 169.5l2 12h-217l17 80h306l-75 -386h-79l24 124h-3q-31 -65 -95 -102t-148 -37q-72 0 -128 24.5t-89.5 66.5
t-50.5 94t-17 111q0 65 13 130t44.5 132t78 118t119.5 83t163 32q112 0 177 -55t68 -159zM387 970h65q-2 -36 14.5 -55t49.5 -19q72 0 97 74h68q-19 -71 -64 -105.5t-107 -34.5q-61 0 -96.5 35t-26.5 105z" />
    <glyph glyph-name="gbreve" unicode="&#x11f;" horiz-adv-x="596" 
d="M413 232l11 56q16 78 -7.5 129.5t-103.5 51.5q-47 0 -83.5 -27.5t-57.5 -71.5t-31.5 -91.5t-10.5 -94.5q0 -118 107 -118q67 0 114.5 48.5t61.5 117.5zM14 -50h85q2 -38 30 -59.5t79 -21.5q133 0 165 167l11 54h-2q-65 -93 -167 -93q-84 0 -128.5 50t-44.5 137
q0 62 17 123.5t48.5 114.5t84.5 85.5t119 32.5q112 0 144 -97h1l17 84h83l-99 -507q-43 -219 -257 -219q-77 0 -131.5 37.5t-54.5 111.5zM363 629q-68 0 -104 39.5t-20 119.5h65q-9 -45 8.5 -69t54.5 -24q80 0 100 93h67q-16 -80 -62 -119.5t-109 -39.5z" />
    <glyph glyph-name="Gdotaccent" unicode="&#x120;" horiz-adv-x="806" 
d="M743 562h-91q-2 65 -44.5 102.5t-116.5 37.5t-132 -30.5t-91.5 -75.5t-55.5 -104t-29.5 -109.5t-7.5 -98.5q0 -95 48 -160t151 -65q106 0 172.5 65.5t86.5 169.5l2 12h-217l17 80h306l-75 -386h-79l24 124h-3q-31 -65 -95 -102t-148 -37q-72 0 -128 24.5t-89.5 66.5
t-50.5 94t-17 111q0 65 13 130t44.5 132t78 118t119.5 83t163 32q112 0 177 -55t68 -159zM469 837l19 99h93l-19 -99h-93z" />
    <glyph glyph-name="gdotaccent" unicode="&#x121;" horiz-adv-x="596" 
d="M413 232l11 56q16 78 -7.5 129.5t-103.5 51.5q-47 0 -83.5 -27.5t-57.5 -71.5t-31.5 -91.5t-10.5 -94.5q0 -118 107 -118q67 0 114.5 48.5t61.5 117.5zM14 -50h85q2 -38 30 -59.5t79 -21.5q133 0 165 167l11 54h-2q-65 -93 -167 -93q-84 0 -128.5 50t-44.5 137
q0 62 17 123.5t48.5 114.5t84.5 85.5t119 32.5q112 0 144 -97h1l17 84h83l-99 -507q-43 -219 -257 -219q-77 0 -131.5 37.5t-54.5 111.5zM308 646l19 99h93l-19 -99h-93z" />
    <glyph glyph-name="Gcommaaccent" unicode="&#x122;" horiz-adv-x="806" 
d="M743 562h-91q-2 65 -44.5 102.5t-116.5 37.5t-132 -30.5t-91.5 -75.5t-55.5 -104t-29.5 -109.5t-7.5 -98.5q0 -95 48 -160t151 -65q106 0 172.5 65.5t86.5 169.5l2 12h-217l17 80h306l-75 -386h-79l24 124h-3q-31 -65 -95 -102t-148 -37q-72 0 -128 24.5t-89.5 66.5
t-50.5 94t-17 111q0 65 13 130t44.5 132t78 118t119.5 83t163 32q112 0 177 -55t68 -159zM246 -206l49 137h95l-88 -137h-56z" />
    <glyph glyph-name="gcommaaccent" unicode="&#x123;" horiz-adv-x="596" 
d="M413 232l11 56q16 78 -7.5 129.5t-103.5 51.5q-47 0 -83.5 -27.5t-57.5 -71.5t-31.5 -91.5t-10.5 -94.5q0 -118 107 -118q67 0 114.5 48.5t61.5 117.5zM14 -50h85q2 -38 30 -59.5t79 -21.5q133 0 165 167l11 54h-2q-65 -93 -167 -93q-84 0 -128.5 50t-44.5 137
q0 62 17 123.5t48.5 114.5t84.5 85.5t119 32.5q112 0 144 -97h1l17 84h83l-99 -507q-43 -219 -257 -219q-77 0 -131.5 37.5t-54.5 111.5zM441 771l-49 -137h-95l88 137h56z" />
    <glyph glyph-name="Hcircumflex" unicode="&#x124;" horiz-adv-x="769" 
d="M211 346l-67 -346h-90l147 765h91l-65 -338h385l65 338h91l-148 -765h-91l67 346h-385zM549 960l77 -133h-75l-50 76h-1l-77 -76h-79l113 133h92z" />
    <glyph glyph-name="hcircumflex" unicode="&#x125;" horiz-adv-x="595" 
d="M370 0l60 311q18 88 -5 123q-20 31 -72 31q-66 0 -109 -47.5t-59 -132.5l-55 -285h-89l153 788h89l-68 -346h2q27 44 70 71t98 27q84 0 120 -55.5t15 -160.5l-62 -324h-88zM477 960l77 -133h-75l-50 76h-1l-77 -76h-79l113 133h92z" />
    <glyph glyph-name="Hbar" unicode="&#x126;" horiz-adv-x="769" 
d="M227 427h385l28 143h-385zM211 346l-67 -346h-90l110 570h-94l13 67h93l25 128h91l-25 -128h385l25 128h91l-25 -128h87l-13 -67h-87l-110 -570h-91l67 346h-385z" />
    <glyph glyph-name="hbar" unicode="&#x127;" horiz-adv-x="595" 
d="M185 285l-55 -285h-89l121 624h-72l12 63h72l20 101h89l-20 -101h157l-12 -63h-157l-36 -182h2q27 44 70 71t98 27q84 0 120 -55.5t15 -160.5l-62 -324h-88l60 311q18 88 -5 123q-20 31 -72 31q-66 0 -109 -47.5t-59 -132.5z" />
    <glyph glyph-name="Itilde" unicode="&#x128;" horiz-adv-x="296" 
d="M54 0l148 765h91l-148 -765h-91zM84 827q11 59 43.5 97t87.5 38q22 0 42 -9.5t32 -21t26 -21t25 -9.5q21 0 33.5 15t22.5 48h68q-11 -59 -43 -97t-87 -38q-36 0 -73.5 30t-53.5 30q-37 0 -56 -62h-67z" />
    <glyph glyph-name="itilde" unicode="&#x129;" horiz-adv-x="273" 
d="M60 624q25 135 114 135q27 0 61.5 -30.5t47.5 -30.5q34 0 44 63h55q-12 -65 -36 -100t-73 -35q-27 0 -64 30.5t-50 30.5q-32 0 -44 -63h-55zM41 0l102 527h89l-102 -527h-89z" />
    <glyph glyph-name="Imacron" unicode="&#x12a;" horiz-adv-x="296" 
d="M54 0l148 765h91l-148 -765h-91zM121 852l15 73h286l-15 -73h-286z" />
    <glyph glyph-name="imacron" unicode="&#x12b;" horiz-adv-x="273" 
d="M87 646l16 73h243l-15 -73h-244zM41 0l102 527h89l-102 -527h-89z" />
    <glyph glyph-name="Ibreve" unicode="&#x12c;" horiz-adv-x="296" 
d="M54 0l148 765h91l-148 -765h-91zM145 970h65q-2 -36 14.5 -55t49.5 -19q72 0 97 74h68q-19 -71 -64 -105.5t-107 -34.5q-61 0 -96.5 35t-26.5 105z" />
    <glyph glyph-name="ibreve" unicode="&#x12d;" horiz-adv-x="273" 
d="M214 629q-61 0 -90.5 39.5t-8.5 119.5h58q-12 -44 2.5 -68.5t47.5 -24.5q71 0 97 93h60q-41 -159 -166 -159zM41 0l102 527h89l-102 -527h-89z" />
    <glyph glyph-name="Iogonek" unicode="&#x12e;" horiz-adv-x="296" 
d="M54 0l148 765h91l-148 -765q-83 -49 -83 -92q0 -34 57 -34l-12 -62h-18q-53 0 -83.5 19t-30.5 56q0 73 96 113h-17z" />
    <glyph glyph-name="iogonek" unicode="&#x12f;" horiz-adv-x="273" 
d="M164 647l19 97h93l-19 -97h-93zM41 0l102 527h89l-102 -527q-83 -49 -83 -92q0 -34 57 -34l-12 -62h-18q-53 0 -83.5 19t-30.5 56q0 36 26 65.5t71 47.5h-16z" />
    <glyph glyph-name="Idotaccent" unicode="&#x130;" horiz-adv-x="296" 
d="M54 0l148 765h91l-148 -765h-91zM215 837l19 99h93l-19 -99h-93z" />
    <glyph glyph-name="dotlessi" unicode="&#x131;" horiz-adv-x="273" 
d="M41 0l102 527h89l-102 -527h-89z" />
    <glyph glyph-name="IJ" unicode="&#x132;" horiz-adv-x="657" 
d="M54 0l148 765h91l-148 -765h-91zM284 -3h-34l15 79h23q85 0 121.5 32.5t50.5 104.5l108 552h91l-109 -562q-13 -68 -38.5 -110.5t-82 -69t-145.5 -26.5z" />
    <glyph glyph-name="ij" unicode="&#x133;" horiz-adv-x="546" 
d="M164 647l19 97h93l-19 -97h-93zM41 0l102 527h89l-102 -527h-89zM437 647l19 97h93l-19 -97h-93zM227 -199q-33 0 -64 11l15 73q21 -7 46 -7q33 0 52.5 15.5t26.5 52.5l113 581h89l-115 -591q-26 -135 -163 -135z" />
    <glyph glyph-name="Jcircumflex" unicode="&#x134;" horiz-adv-x="416" 
d="M38 -3h-69l15 79h58q85 0 121.5 32.5t50.5 104.5l108 552h91l-109 -562q-13 -68 -38.5 -110.5t-82 -69t-145.5 -26.5zM444 960l77 -133h-75l-50 76h-1l-77 -76h-79l113 133h92z" />
    <glyph glyph-name="jcircumflex" unicode="&#x135;" horiz-adv-x="273" 
d="M281 788l54 -162h-73l-36 102l-69 -102h-82l113 162h93zM-110 -188l15 73q21 -7 46 -7q33 0 52.5 15.5t26.5 52.5l113 581h89l-115 -591q-26 -135 -163 -135q-33 0 -64 11z" />
    <glyph glyph-name="Kcommaaccent" unicode="&#x136;" horiz-adv-x="700" 
d="M190 245l-47 -245h-91l148 765h91l-78 -401l421 401h115l-346 -326l221 -439h-101l-189 377zM206 -206l49 137h95l-88 -137h-56z" />
    <glyph glyph-name="kcommaaccent" unicode="&#x137;" horiz-adv-x="550" 
d="M161 160l-31 -160h-89l153 788h89l-100 -514l260 253h107l-221 -207l142 -320h-98l-111 257zM136 -206l49 137h95l-88 -137h-56z" />
    <glyph glyph-name="kgreenlandic" unicode="&#x138;" horiz-adv-x="550" 
d="M161 159l-31 -159h-89l101 527h89l-49 -254l261 254h107l-221 -207l142 -320h-98l-111 257z" />
    <glyph glyph-name="Lacute" unicode="&#x139;" horiz-adv-x="589" 
d="M52 0l148 765h91l-132 -683h372l-16 -82h-463zM220 827l83 133h101l-117 -133h-67z" />
    <glyph glyph-name="lacute" unicode="&#x13a;" horiz-adv-x="272" 
d="M41 0l153 788h89l-153 -788h-89zM207 827l83 133h101l-117 -133h-67z" />
    <glyph glyph-name="Lcommaaccent" unicode="&#x13b;" horiz-adv-x="589" 
d="M52 0l148 765h91l-132 -683h372l-16 -82h-463zM177 -206l49 137h95l-88 -137h-56z" />
    <glyph glyph-name="lcommaaccent" unicode="&#x13c;" horiz-adv-x="272" 
d="M41 0l153 788h89l-153 -788h-89zM-21 -206l49 137h95l-88 -137h-56z" />
    <glyph glyph-name="Lcaron" unicode="&#x13d;" horiz-adv-x="589" 
d="M366 593l65 195h94l-94 -195h-65zM52 0l148 765h91l-132 -683h372l-16 -82h-463z" />
    <glyph glyph-name="lcaron" unicode="&#x13e;" horiz-adv-x="272" 
d="M41 0l153 788h89l-153 -788h-89zM309 626l48 162h84l-77 -162h-55z" />
    <glyph glyph-name="Ldot" unicode="&#x13f;" horiz-adv-x="589" 
d="M52 0l148 765h91l-132 -683h372l-16 -82h-463zM402 338l22 115h112l-22 -115h-112z" />
    <glyph glyph-name="ldot" unicode="&#x140;" horiz-adv-x="328" 
d="M41 0l153 788h89l-153 -788h-89zM267 346l19 102h100l-19 -102h-100z" />
    <glyph glyph-name="Lslash" unicode="&#x141;" horiz-adv-x="591" 
d="M54 0l56 289l-85 -31l17 87l85 31l75 389h91l-68 -353l260 95l-17 -87l-260 -95l-47 -243h372l-16 -82h-463z" />
    <glyph glyph-name="lslash" unicode="&#x142;" horiz-adv-x="279" 
d="M130 0h-88l63 324l-93 -57l17 87l93 57l73 377h88l-61 -316l95 58l-18 -87l-94 -58z" />
    <glyph glyph-name="Nacute" unicode="&#x143;" horiz-adv-x="779" 
d="M52 0l148 765h112l223 -580l23 -75h3l127 655h86l-148 -765h-111l-223 579l-25 74h-2l-126 -653h-87zM460 827l83 133h101l-117 -133h-67z" />
    <glyph glyph-name="nacute" unicode="&#x144;" horiz-adv-x="595" 
d="M369 0l60 311q8 38 8 68q0 86 -84 86q-66 0 -109 -47.5t-59 -132.5l-55 -285h-89l102 527h85l-18 -89h2q27 45 72.5 73.5t100.5 28.5q84 0 120 -55.5t15 -160.5l-62 -324h-89zM333 626l81 162h101l-117 -162h-65z" />
    <glyph glyph-name="Ncommaaccent" unicode="&#x145;" horiz-adv-x="779" 
d="M52 0l148 765h112l223 -580l23 -75h3l127 655h86l-148 -765h-111l-223 579l-25 74h-2l-126 -653h-87zM232 -206l49 137h95l-88 -137h-56z" />
    <glyph glyph-name="ncommaaccent" unicode="&#x146;" horiz-adv-x="595" 
d="M369 0l60 311q8 38 8 68q0 86 -84 86q-66 0 -109 -47.5t-59 -132.5l-55 -285h-89l102 527h85l-18 -89h2q27 45 72.5 73.5t100.5 28.5q84 0 120 -55.5t15 -160.5l-62 -324h-89zM141 -206l49 137h95l-88 -137h-56z" />
    <glyph glyph-name="Ncaron" unicode="&#x147;" horiz-adv-x="779" 
d="M52 0l148 765h112l223 -580l23 -75h3l127 655h86l-148 -765h-111l-223 579l-25 74h-2l-126 -653h-87zM457 827l-81 133h80l52 -76h1l79 76h86l-125 -133h-92z" />
    <glyph glyph-name="ncaron" unicode="&#x148;" horiz-adv-x="595" 
d="M369 0l60 311q8 38 8 68q0 86 -84 86q-66 0 -109 -47.5t-59 -132.5l-55 -285h-89l102 527h85l-18 -89h2q27 45 72.5 73.5t100.5 28.5q84 0 120 -55.5t15 -160.5l-62 -324h-89zM314 626l-66 162h78l43 -102l79 102h82l-123 -162h-93z" />
    <glyph glyph-name="napostrophe" unicode="&#x149;" horiz-adv-x="595" 
d="M369 0l60 311q8 38 8 68q0 86 -84 86q-66 0 -109 -47.5t-59 -132.5l-55 -285h-89l102 527h85l-18 -89h2q27 45 72.5 73.5t100.5 28.5q84 0 120 -55.5t15 -160.5l-62 -324h-89zM109 651l49 137h95l-88 -137h-56z" />
    <glyph glyph-name="Eng" unicode="&#x14a;" horiz-adv-x="779" 
d="M363 -188h-64l15 79h53q72 0 107.5 20.5t51.5 62.5l-234 605l-25 74h-2l-126 -653h-87l148 765h112l223 -580l23 -75h3l127 655h86l-140 -721l-5 -26q-13 -68 -38.5 -110.5t-82 -69t-145.5 -26.5z" />
    <glyph glyph-name="eng" unicode="&#x14b;" horiz-adv-x="595" 
d="M283 -199q-33 0 -64 11l15 73q21 -7 46 -7q33 0 52 15.5t26 52.5l11 54l60 311q8 38 8 68q0 86 -84 86q-66 0 -109 -47.5t-59 -132.5l-55 -285h-89l102 527h85l-18 -89h2q27 45 72.5 73.5t100.5 28.5q84 0 120 -55.5t15 -160.5l-62 -324l-12 -64q-26 -135 -163 -135z" />
    <glyph glyph-name="Omacron" unicode="&#x14c;" horiz-adv-x="802" 
d="M81 287q0 210 113 349.5t284 139.5q137 0 213 -85t76 -222q0 -88 -25.5 -173t-73 -155t-124 -113.5t-169.5 -43.5q-137 0 -215.5 85.5t-78.5 217.5zM673 473q0 45 -10.5 84.5t-33 73t-62.5 52.5t-94 19q-64 0 -116.5 -28t-85.5 -71.5t-55 -100t-31.5 -111t-9.5 -107.5
q0 -95 49.5 -160t153.5 -65q77 0 137 42.5t92.5 108t49 133.5t16.5 130zM373 852l15 73h286l-15 -73h-286z" />
    <glyph glyph-name="omacron" unicode="&#x14d;" horiz-adv-x="555" 
d="M245 -13q-102 0 -152.5 58t-50.5 151q0 48 10 95.5t32 92.5t52.5 79.5t75.5 55.5t98 21q103 0 153 -57.5t50 -150.5q0 -48 -10 -96t-31.5 -93t-52 -79.5t-76 -55.5t-98.5 -21zM425 338q0 135 -117 135q-47 0 -83 -28t-56 -72t-29.5 -91t-9.5 -92q0 -135 118 -135
q41 0 73 20.5t51 51.5t31.5 71t17 74t4.5 66zM208 646l14 73h286l-14 -73h-286z" />
    <glyph glyph-name="Obreve" unicode="&#x14e;" horiz-adv-x="802" 
d="M81 287q0 210 113 349.5t284 139.5q137 0 213 -85t76 -222q0 -88 -25.5 -173t-73 -155t-124 -113.5t-169.5 -43.5q-137 0 -215.5 85.5t-78.5 217.5zM673 473q0 45 -10.5 84.5t-33 73t-62.5 52.5t-94 19q-64 0 -116.5 -28t-85.5 -71.5t-55 -100t-31.5 -111t-9.5 -107.5
q0 -95 49.5 -160t153.5 -65q77 0 137 42.5t92.5 108t49 133.5t16.5 130zM397 970h65q-2 -36 14.5 -55t49.5 -19q72 0 97 74h68q-19 -71 -64 -105.5t-107 -34.5q-61 0 -96.5 35t-26.5 105z" />
    <glyph glyph-name="obreve" unicode="&#x14f;" horiz-adv-x="555" 
d="M245 -13q-102 0 -152.5 58t-50.5 151q0 48 10 95.5t32 92.5t52.5 79.5t75.5 55.5t98 21q103 0 153 -57.5t50 -150.5q0 -48 -10 -96t-31.5 -93t-52 -79.5t-76 -55.5t-98.5 -21zM425 338q0 135 -117 135q-47 0 -83 -28t-56 -72t-29.5 -91t-9.5 -92q0 -135 118 -135
q41 0 73 20.5t51 51.5t31.5 71t17 74t4.5 66zM360 629q-68 0 -104 39.5t-20 119.5h65q-9 -45 8.5 -69t54.5 -24q80 0 100 93h67q-16 -80 -62 -119.5t-109 -39.5z" />
    <glyph glyph-name="Ohungarumlaut" unicode="&#x150;" horiz-adv-x="802" 
d="M81 287q0 210 113 349.5t284 139.5q137 0 213 -85t76 -222q0 -88 -25.5 -173t-73 -155t-124 -113.5t-169.5 -43.5q-137 0 -215.5 85.5t-78.5 217.5zM673 473q0 45 -10.5 84.5t-33 73t-62.5 52.5t-94 19q-64 0 -116.5 -28t-85.5 -71.5t-55 -100t-31.5 -111t-9.5 -107.5
q0 -95 49.5 -160t153.5 -65q77 0 137 42.5t92.5 108t49 133.5t16.5 130zM546 837l57 133h89l-90 -133h-56zM409 837l57 133h89l-91 -133h-55z" />
    <glyph glyph-name="ohungarumlaut" unicode="&#x151;" horiz-adv-x="555" 
d="M245 -13q-102 0 -152.5 58t-50.5 151q0 48 10 95.5t32 92.5t52.5 79.5t75.5 55.5t98 21q103 0 153 -57.5t50 -150.5q0 -48 -10 -96t-31.5 -93t-52 -79.5t-76 -55.5t-98.5 -21zM425 338q0 135 -117 135q-47 0 -83 -28t-56 -72t-29.5 -91t-9.5 -92q0 -135 118 -135
q41 0 73 20.5t51 51.5t31.5 71t17 74t4.5 66zM367 626l84 162h89l-117 -162h-56zM230 626l84 162h89l-117 -162h-56z" />
    <glyph glyph-name="OE" unicode="&#x152;" horiz-adv-x="1196" 
d="M377 59q103 0 176 74t98 196l19 92q6 37 7 75.5t-12.5 75.5t-35 66t-62.5 46.5t-94 17.5q-64 0 -116.5 -28t-85.5 -71.5t-55 -100t-31.5 -111t-9.5 -106.5q0 -96 49 -161t153 -65zM606 102q-37 -53 -99 -85.5t-133 -32.5q-139 0 -216 86t-77 215q0 213 113 352t284 139
q88 0 147 -37.5t84 -99.5h3l25 126h472l-16 -82h-381l-50 -257h353l-16 -80h-352l-51 -264h390l-16 -82h-481l20 102h-3z" />
    <glyph glyph-name="oe" unicode="&#x153;" horiz-adv-x="914" 
d="M784 309l1 6q11 70 -12 114t-89 44q-61 0 -102.5 -46.5t-61.5 -117.5h264zM425 338q0 135 -117 135q-47 0 -83 -28t-56 -72t-29.5 -91t-9.5 -92q0 -135 118 -135q41 0 73 20.5t51 51.5t31.5 71t17 74t4.5 66zM834 138q-20 -72 -77 -111.5t-141 -39.5q-133 0 -174 115
q-66 -115 -197 -115q-102 0 -152.5 58t-50.5 151q0 48 10 95.5t32 92.5t52.5 79.5t75.5 55.5t98 21q145 0 175 -125q76 125 207 125q76 0 122 -39.5t54 -97.5t-2 -126l-8 -38h-352q-2 -30 -2 -43q0 -61 29 -101.5t93 -40.5q95 0 122 84h86z" />
    <glyph glyph-name="Racute" unicode="&#x154;" horiz-adv-x="678" 
d="M219 401h181q77 0 119.5 44t42.5 125q0 119 -132 119h-155zM206 325l-64 -325h-90l147 765h241q98 0 155 -46q61 -50 61 -148q0 -86 -46.5 -148.5t-137.5 -84.5v-3l122 -335h-96l-115 325h-177zM393 827l83 133h101l-117 -133h-67z" />
    <glyph glyph-name="racute" unicode="&#x155;" horiz-adv-x="384" 
d="M41 0l102 527h85l-20 -99h3q24 45 69.5 77t106.5 32h5l-17 -94h-9q-149 0 -181 -156l-55 -287h-89zM249 626l81 162h101l-117 -162h-65z" />
    <glyph glyph-name="Rcommaaccent" unicode="&#x156;" horiz-adv-x="678" 
d="M219 401h181q77 0 119.5 44t42.5 125q0 119 -132 119h-155zM206 325l-64 -325h-90l147 765h241q98 0 155 -46q61 -50 61 -148q0 -86 -46.5 -148.5t-137.5 -84.5v-3l122 -335h-96l-115 325h-177zM217 -206l49 137h95l-88 -137h-56z" />
    <glyph glyph-name="rcommaaccent" unicode="&#x157;" horiz-adv-x="384" 
d="M41 0l102 527h85l-20 -99h3q24 45 69.5 77t106.5 32h5l-17 -94h-9q-149 0 -181 -156l-55 -287h-89zM-23 -206l49 137h95l-88 -137h-56z" />
    <glyph glyph-name="Rcaron" unicode="&#x158;" horiz-adv-x="678" 
d="M219 401h181q77 0 119.5 44t42.5 125q0 119 -132 119h-155zM206 325l-64 -325h-90l147 765h241q98 0 155 -46q61 -50 61 -148q0 -86 -46.5 -148.5t-137.5 -84.5v-3l122 -335h-96l-115 325h-177zM374 827l-81 133h80l52 -76h1l79 76h86l-125 -133h-92z" />
    <glyph glyph-name="rcaron" unicode="&#x159;" horiz-adv-x="384" 
d="M41 0l102 527h85l-20 -99h3q24 45 69.5 77t106.5 32h5l-17 -94h-9q-149 0 -181 -156l-55 -287h-89zM241 626l-66 162h78l43 -102l79 102h82l-123 -162h-93z" />
    <glyph glyph-name="Sacute" unicode="&#x15a;" horiz-adv-x="666" 
d="M51 225h94q-3 -163 173 -163q75 0 129 39.5t54 112.5q0 44 -25.5 71.5t-84.5 49.5l-90 33q-158 56 -158 184q0 103 74.5 164t187.5 60t175 -57.5t55 -168.5h-91q5 69 -32 110.5t-112 41.5q-69 0 -116.5 -35.5t-47.5 -101.5q0 -77 104 -115l86 -31q91 -32 129.5 -77
t38.5 -120q0 -107 -78.5 -172t-200.5 -65q-121 0 -195.5 58.5t-68.5 181.5zM391 827l83 133h101l-117 -133h-67z" />
    <glyph glyph-name="sacute" unicode="&#x15b;" horiz-adv-x="493" 
d="M451 388h-85q2 41 -25 63t-73 22q-41 0 -73.5 -21.5t-32.5 -62.5q0 -55 63 -72l61 -16q80 -21 111.5 -55t31.5 -89q0 -80 -57 -125t-151 -45q-85 0 -143.5 42.5t-53.5 129.5h85q-4 -49 27.5 -77t88.5 -28q49 0 83.5 23t34.5 68q0 28 -18.5 47t-64.5 31l-61 16
q-124 33 -124 139q0 77 57 119.5t139 42.5q81 0 133 -38t47 -114zM268 626l81 162h101l-117 -162h-65z" />
    <glyph glyph-name="Scircumflex" unicode="&#x15c;" horiz-adv-x="666" 
d="M51 225h94q-3 -163 173 -163q75 0 129 39.5t54 112.5q0 44 -25.5 71.5t-84.5 49.5l-90 33q-158 56 -158 184q0 103 74.5 164t187.5 60t175 -57.5t55 -168.5h-91q5 69 -32 110.5t-112 41.5q-69 0 -116.5 -35.5t-47.5 -101.5q0 -77 104 -115l86 -31q91 -32 129.5 -77
t38.5 -120q0 -107 -78.5 -172t-200.5 -65q-121 0 -195.5 58.5t-68.5 181.5zM484 960l77 -133h-75l-50 76h-1l-77 -76h-79l113 133h92z" />
    <glyph glyph-name="scircumflex" unicode="&#x15d;" horiz-adv-x="493" 
d="M451 388h-85q2 41 -25 63t-73 22q-41 0 -73.5 -21.5t-32.5 -62.5q0 -55 63 -72l61 -16q80 -21 111.5 -55t31.5 -89q0 -80 -57 -125t-151 -45q-85 0 -143.5 42.5t-53.5 129.5h85q-4 -49 27.5 -77t88.5 -28q49 0 83.5 23t34.5 68q0 28 -18.5 47t-64.5 31l-61 16
q-124 33 -124 139q0 77 57 119.5t139 42.5q81 0 133 -38t47 -114zM379 788l66 -162h-78l-43 102l-79 -102h-82l123 162h93z" />
    <glyph glyph-name="Scedilla" unicode="&#x15e;" horiz-adv-x="666" 
d="M258 -212q-34 0 -57 16.5t-23 49.5h56q4 -22 28 -22q37 0 37 38q0 33 -27 33q-18 0 -29 -11h-58l61 98q-94 15 -147.5 73t-47.5 162h94q-3 -163 173 -163q75 0 129 39.5t54 112.5q0 44 -25.5 71.5t-84.5 49.5l-90 33q-158 56 -158 184q0 103 74.5 164t187.5 60t175 -57.5
t55 -168.5h-91q5 69 -32 110.5t-112 41.5q-69 0 -116.5 -35.5t-47.5 -101.5q0 -77 104 -115l86 -31q91 -32 129.5 -77t38.5 -120q0 -107 -78.5 -172t-200.5 -65q-16 0 -24 1l-30 -49h2q11 6 34 6q27 0 43.5 -19t16.5 -48q0 -39 -27 -63.5t-72 -24.5z" />
    <glyph glyph-name="scedilla" unicode="&#x15f;" horiz-adv-x="493" 
d="M179 -212q-34 0 -57 16.5t-23 49.5h56q4 -22 28 -22q37 0 37 38q0 33 -27 33q-18 0 -29 -11h-58l61 100q-66 12 -106.5 53.5t-36.5 113.5h85q-4 -49 27.5 -77t88.5 -28q49 0 83.5 23t34.5 68q0 28 -18.5 47t-64.5 31l-61 16q-124 33 -124 139q0 77 57 119.5t139 42.5
q81 0 133 -38t47 -114h-85q2 41 -25 63t-73 22q-41 0 -73.5 -21.5t-32.5 -62.5q0 -55 63 -72l61 -16q80 -21 111.5 -55t31.5 -89q0 -80 -57 -125t-151 -45h-8l-31 -50h2q11 6 34 6q27 0 43.5 -19t16.5 -48q0 -39 -27 -63.5t-72 -24.5z" />
    <glyph glyph-name="Scaron" unicode="&#x160;" horiz-adv-x="666" 
d="M51 225h94q-3 -163 173 -163q75 0 129 39.5t54 112.5q0 44 -25.5 71.5t-84.5 49.5l-90 33q-158 56 -158 184q0 103 74.5 164t187.5 60t175 -57.5t55 -168.5h-91q5 69 -32 110.5t-112 41.5q-69 0 -116.5 -35.5t-47.5 -101.5q0 -77 104 -115l86 -31q91 -32 129.5 -77
t38.5 -120q0 -107 -78.5 -172t-200.5 -65q-121 0 -195.5 58.5t-68.5 181.5zM378 827l-81 133h80l52 -76h1l79 76h86l-125 -133h-92z" />
    <glyph glyph-name="scaron" unicode="&#x161;" horiz-adv-x="493" 
d="M451 388h-85q2 41 -25 63t-73 22q-41 0 -73.5 -21.5t-32.5 -62.5q0 -55 63 -72l61 -16q80 -21 111.5 -55t31.5 -89q0 -80 -57 -125t-151 -45q-85 0 -143.5 42.5t-53.5 129.5h85q-4 -49 27.5 -77t88.5 -28q49 0 83.5 23t34.5 68q0 28 -18.5 47t-64.5 31l-61 16
q-124 33 -124 139q0 77 57 119.5t139 42.5q81 0 133 -38t47 -114zM249 626l-66 162h78l43 -102l79 102h82l-123 -162h-93z" />
    <glyph glyph-name="Tcommaaccent" unicode="&#x162;" horiz-adv-x="624" 
d="M441 685l-133 -685h-92l133 685h-253l16 80h595l-16 -80h-250zM156 -206l49 137h95l-88 -137h-56z" />
    <glyph glyph-name="tcommaaccent" unicode="&#x163;" horiz-adv-x="356" 
d="M202 680h80l-30 -153h125l-14 -69h-125l-59 -302q-10 -52 3 -71t57 -19l50 5l-15 -73q-33 -6 -58 -6q-155 0 -126 151l61 315h-90l13 66h11q53 0 73.5 21.5t35.5 96.5zM57 -206l49 137h95l-88 -137h-56z" />
    <glyph glyph-name="Tcaron" unicode="&#x164;" horiz-adv-x="624" 
d="M441 685l-133 -685h-92l133 685h-253l16 80h595l-16 -80h-250zM381 827l-81 133h80l52 -76h1l79 76h86l-125 -133h-92z" />
    <glyph glyph-name="tcaron" unicode="&#x165;" horiz-adv-x="356" 
d="M202 680h80l-30 -153h125l-14 -69h-125l-59 -302q-10 -52 3 -71t57 -19l50 5l-15 -73q-33 -6 -58 -6q-155 0 -126 151l61 315h-90l13 66h11q53 0 73.5 21.5t35.5 96.5zM350 626l48 162h84l-77 -162h-55z" />
    <glyph glyph-name="Tbar" unicode="&#x166;" horiz-adv-x="624" 
d="M391 426l-83 -426h-92l83 426h-192l13 67h192l37 192h-253l16 80h595l-16 -80h-250l-37 -192h195l-13 -67h-195z" />
    <glyph glyph-name="tbar" unicode="&#x167;" horiz-adv-x="356" 
d="M274 -2q-33 -6 -58 -6q-155 0 -126 151l21 108h-94l13 69h94l27 138h-90l13 66h11q53 0 73.5 21.5t35.5 96.5l8 38h80l-30 -153h125l-14 -69h-125l-27 -138h127l-13 -69h-127l-19 -95q-10 -52 3 -71t57 -19l50 5z" />
    <glyph glyph-name="Utilde" unicode="&#x168;" horiz-adv-x="744" 
d="M97 292l91 473h91l-83 -430q-30 -158 1 -210q38 -64 147 -64q107 0 165 61q13 14 22.5 29t16 36t9.5 33t8.5 42t7.5 42l89 461h91l-101 -523q-25 -132 -102 -194.5t-209 -62.5q-304 0 -244 307zM297 827q11 59 43.5 97t87.5 38q22 0 42 -9.5t32 -21t26 -21t25 -9.5
q21 0 33.5 15t22.5 48h68q-11 -59 -43 -97t-87 -38q-36 0 -73.5 30t-53.5 30q-37 0 -56 -62h-67z" />
    <glyph glyph-name="utilde" unicode="&#x169;" horiz-adv-x="592" 
d="M226 527l-60 -311q-9 -45 -9 -71q-2 -84 81 -84q67 0 110 50.5t61 143.5l53 272h89l-103 -527h-84l18 90h-2q-60 -103 -166 -103q-86 0 -123 56t-16 161l62 323h89zM194 624q16 135 120 135q31 0 74 -30.5t58 -30.5q38 0 45 63h64q-16 -135 -120 -135q-31 0 -74 30.5
t-58 30.5q-38 0 -45 -63h-64z" />
    <glyph glyph-name="Umacron" unicode="&#x16a;" horiz-adv-x="744" 
d="M97 292l91 473h91l-83 -430q-30 -158 1 -210q38 -64 147 -64q107 0 165 61q13 14 22.5 29t16 36t9.5 33t8.5 42t7.5 42l89 461h91l-101 -523q-25 -132 -102 -194.5t-209 -62.5q-304 0 -244 307zM334 852l15 73h286l-15 -73h-286z" />
    <glyph glyph-name="umacron" unicode="&#x16b;" horiz-adv-x="592" 
d="M226 527l-60 -311q-9 -45 -9 -71q-2 -84 81 -84q67 0 110 50.5t61 143.5l53 272h89l-103 -527h-84l18 90h-2q-60 -103 -166 -103q-86 0 -123 56t-16 161l62 323h89zM223 646l14 73h286l-14 -73h-286z" />
    <glyph glyph-name="Ubreve" unicode="&#x16c;" horiz-adv-x="744" 
d="M97 292l91 473h91l-83 -430q-30 -158 1 -210q38 -64 147 -64q107 0 165 61q13 14 22.5 29t16 36t9.5 33t8.5 42t7.5 42l89 461h91l-101 -523q-25 -132 -102 -194.5t-209 -62.5q-304 0 -244 307zM358 970h65q-2 -36 14.5 -55t49.5 -19q72 0 97 74h68q-19 -71 -64 -105.5
t-107 -34.5q-61 0 -96.5 35t-26.5 105z" />
    <glyph glyph-name="ubreve" unicode="&#x16d;" horiz-adv-x="592" 
d="M226 527l-60 -311q-9 -45 -9 -71q-2 -84 81 -84q67 0 110 50.5t61 143.5l53 272h89l-103 -527h-84l18 90h-2q-60 -103 -166 -103q-86 0 -123 56t-16 161l62 323h89zM375 629q-68 0 -104 39.5t-20 119.5h65q-9 -45 8.5 -69t54.5 -24q81 0 100 93h67q-16 -80 -62 -119.5
t-109 -39.5z" />
    <glyph glyph-name="Uring" unicode="&#x16e;" horiz-adv-x="744" 
d="M97 292l91 473h91l-83 -430q-30 -158 1 -210q38 -64 147 -64q107 0 165 61q13 14 22.5 29t16 36t9.5 33t8.5 42t7.5 42l89 461h91l-101 -523q-25 -132 -102 -194.5t-209 -62.5q-304 0 -244 307zM482 808q-48 1 -75 28.5t-27 71.5q0 50 31.5 82t81.5 32t78 -27.5t28 -72.5
q0 -53 -32 -83.5t-85 -30.5zM494 976q-26 0 -41 -18t-15 -49q0 -24 12.5 -39.5t35.5 -15.5q26 0 41 18t15 49q0 24 -13 39t-35 16z" />
    <glyph glyph-name="uring" unicode="&#x16f;" horiz-adv-x="592" 
d="M226 527l-60 -311q-9 -45 -9 -71q-2 -84 81 -84q67 0 110 50.5t61 143.5l53 272h89l-103 -527h-84l18 90h-2q-60 -103 -166 -103q-86 0 -123 56t-16 161l62 323h89zM375 624q-48 1 -75 28.5t-27 71.5q0 50 31.5 82t81.5 32t78 -27.5t28 -72.5q0 -53 -32 -83.5t-85 -30.5z
M387 792q-26 0 -41 -18t-15 -49q0 -24 12.5 -39.5t35.5 -15.5q26 0 41 18t15 49q0 24 -13 39t-35 16z" />
    <glyph glyph-name="Uhungarumlaut" unicode="&#x170;" horiz-adv-x="744" 
d="M97 292l91 473h91l-83 -430q-30 -158 1 -210q38 -64 147 -64q107 0 165 61q13 14 22.5 29t16 36t9.5 33t8.5 42t7.5 42l89 461h91l-101 -523q-25 -132 -102 -194.5t-209 -62.5q-304 0 -244 307zM507 837l57 133h89l-90 -133h-56zM370 837l57 133h89l-91 -133h-55z" />
    <glyph glyph-name="uhungarumlaut" unicode="&#x171;" horiz-adv-x="592" 
d="M226 527l-60 -311q-9 -45 -9 -71q-2 -84 81 -84q67 0 110 50.5t61 143.5l53 272h89l-103 -527h-84l18 90h-2q-60 -103 -166 -103q-86 0 -123 56t-16 161l62 323h89zM382 626l84 162h89l-117 -162h-56zM245 626l84 162h89l-117 -162h-56z" />
    <glyph glyph-name="Uogonek" unicode="&#x172;" horiz-adv-x="744" 
d="M296 -13q-32 3 -60 10.5t-55.5 22.5t-46 37.5t-32.5 56t-14 77.5t9 101l91 473h91l-83 -430q-30 -158 1 -210q38 -64 147 -64q107 0 165 61q13 14 22.5 29t16 36t9.5 33t8.5 42t7.5 42l89 461h91l-101 -523q-13 -68 -37 -115t-59.5 -74t-70.5 -41t-86 -24
q-40 -8 -61.5 -29t-21.5 -47q0 -38 57 -38l-12 -62h-18q-53 0 -83.5 19t-30.5 56q0 58 67 98v2z" />
    <glyph glyph-name="uogonek" unicode="&#x173;" horiz-adv-x="592" 
d="M364 0l18 90h-2q-60 -103 -166 -103q-86 0 -123 56t-16 161l62 323h89l-60 -311q-9 -45 -9 -71q-2 -84 81 -84q67 0 110 50.5t61 143.5l53 272h89l-103 -527q-83 -49 -83 -92q0 -34 57 -34l-12 -62h-18q-53 0 -83.5 19t-30.5 56q0 71 95 113h-9z" />
    <glyph glyph-name="Wcircumflex" unicode="&#x174;" horiz-adv-x="1038" 
d="M283 0h-99l-56 765h89l32 -529q2 -40 2.5 -74.5t0.5 -49.5l-1 -14h2q15 49 50 124l254 543h104l35 -529q3 -40 3.5 -74.5t-0.5 -49.5l-1 -14h2q15 48 50 124l251 543h92l-363 -765h-100l-37 527q-3 40 -3.5 74.5t0.5 49.5v15h-2q-15 -49 -51 -125zM684 960l77 -133h-75
l-50 76h-1l-77 -76h-79l113 133h92z" />
    <glyph glyph-name="wcircumflex" unicode="&#x175;" horiz-adv-x="784" 
d="M123 0l-49 527h89l21 -345l3 -77h2q22 47 37 78l171 344h90l37 -345l6 -79h2q20 49 34 80l158 344h87l-252 -527h-93l-37 353l-6 74h-1q-18 -41 -34 -75l-172 -352h-93zM528 788l66 -162h-78l-43 102l-79 -102h-82l123 162h93z" />
    <glyph glyph-name="Ycircumflex" unicode="&#x176;" horiz-adv-x="640" 
d="M221 0l65 334l-177 431h102l134 -352h2l280 352h100l-352 -438l-63 -327h-91zM485 960l77 -133h-75l-50 76h-1l-77 -76h-79l113 133h92z" />
    <glyph glyph-name="ycircumflex" unicode="&#x177;" horiz-adv-x="510" 
d="M166 4l-82 523h88l48 -330l10 -82h3q18 37 40 81l166 331h90l-300 -571q-47 -90 -87.5 -122t-114.5 -33q-33 0 -63 9l15 73q25 -7 44 -7q44 1 71.5 21.5t54.5 74.5zM407 788l66 -162h-78l-43 102l-79 -102h-82l123 162h93z" />
    <glyph glyph-name="Ydieresis" unicode="&#x178;" horiz-adv-x="640" 
d="M221 0l65 334l-177 431h102l134 -352h2l280 352h100l-352 -438l-63 -327h-91zM488 822l19 99h90l-19 -99h-90zM276 822l19 99h90l-19 -99h-90z" />
    <glyph glyph-name="Zacute" unicode="&#x179;" horiz-adv-x="637" 
d="M144 684l16 81h521l-14 -70l-537 -614h426l-15 -81h-545l13 70l537 614h-402zM385 827l83 133h101l-117 -133h-67z" />
    <glyph glyph-name="zacute" unicode="&#x17a;" horiz-adv-x="511" 
d="M105 453l15 74h386l-15 -81l-369 -371h302l-14 -75h-406l15 81l367 372h-281zM289 626l81 162h101l-117 -162h-65z" />
    <glyph glyph-name="Zdotaccent" unicode="&#x17b;" horiz-adv-x="637" 
d="M144 684l16 81h521l-14 -70l-537 -614h426l-15 -81h-545l13 70l537 614h-402zM380 837l19 99h93l-19 -99h-93z" />
    <glyph glyph-name="zdotaccent" unicode="&#x17c;" horiz-adv-x="511" 
d="M105 453l15 74h386l-15 -81l-369 -371h302l-14 -75h-406l15 81l367 372h-281zM283 646l19 99h93l-19 -99h-93z" />
    <glyph glyph-name="Zcaron" unicode="&#x17d;" horiz-adv-x="637" 
d="M144 684l16 81h521l-14 -70l-537 -614h426l-15 -81h-545l13 70l537 614h-402zM382 827l-81 133h80l52 -76h1l79 76h86l-125 -133h-92z" />
    <glyph glyph-name="zcaron" unicode="&#x17e;" horiz-adv-x="511" 
d="M105 453l15 74h386l-15 -81l-369 -371h302l-14 -75h-406l15 81l367 372h-281zM281 626l-66 162h78l43 -102l79 102h82l-123 -162h-93z" />
    <glyph glyph-name="florin" unicode="&#x192;" horiz-adv-x="375" 
d="M225 367l-145 -556h-86l144 556h-104l13 69h109l55 213q33 136 181 136q36 0 59 -6l-18 -74q-20 5 -48 5q-36 0 -58 -17.5t-33 -59.5l-51 -197h129l-13 -69h-134z" />
    <glyph glyph-name="Aringacute" unicode="&#x1fa;" horiz-adv-x="722" 
d="M434 675q0 -1 -3 -7t-7.5 -16t-10.5 -22.5t-15 -30t-18 -35.5l-135 -262h248l-42 262l-15 111h-2zM542 0l-37 229h-297l-118 -229h-94l401 765h106l132 -765h-93zM467 800q-48 1 -75 28.5t-27 71.5q0 50 31.5 82t81.5 32t78 -27.5t28 -72.5q0 -53 -32 -83.5t-85 -30.5z
M479 968q-26 0 -41 -18t-15 -49q0 -24 12.5 -39.5t35.5 -15.5q26 0 41 18t15 49q0 24 -13 39t-35 16zM462 1041l83 133h101l-117 -133h-67z" />
    <glyph glyph-name="aringacute" unicode="&#x1fb;" horiz-adv-x="540" 
d="M201 64q51 0 99 45.5t64 125.5l3 15q-109 0 -157 -9q-45 -9 -71.5 -33t-26.5 -62t23 -60t66 -22zM180 383h-90q8 73 64 114.5t144 41.5q102 0 146.5 -57.5t24.5 -153.5l-38 -196q-7 -34 3 -49.5t35 -13.5l-13 -73h-9q-50 0 -74 23.5t-23 64.5h-3q-61 -92 -165 -92
q-69 0 -115 39t-46 111q0 132 177 164q49 9 182 9l4 24q11 62 -13 96.5t-81 34.5q-100 0 -110 -87zM334 590q-48 1 -75 28.5t-27 71.5q0 50 31.5 82t81.5 32t78 -27.5t28 -72.5q0 -53 -32 -83.5t-85 -30.5zM346 758q-26 0 -41 -18t-15 -49q0 -24 12.5 -39.5t35.5 -15.5
q26 0 41 18t15 49q0 24 -13 39t-35 16zM332 841l83 133h101l-117 -133h-67z" />
    <glyph glyph-name="AEacute" unicode="&#x1fc;" horiz-adv-x="1002" 
d="M453 302l74 381h-81q-37 -76 -62 -119l-155 -262h224zM395 0l44 229h-253l-135 -229h-94l446 765h612l-16 -82h-381l-50 -257h353l-16 -80h-352l-51 -264h390l-16 -82h-481zM581 827l83 133h101l-117 -133h-67z" />
    <glyph glyph-name="aeacute" unicode="&#x1fd;" horiz-adv-x="865" 
d="M736 309l1 6q11 70 -12 114t-89 44q-61 0 -102.5 -46.5t-61.5 -117.5h264zM201 63q54 0 100 43t64 129l3 15q-109 0 -157 -9q-98 -19 -98 -95q0 -39 22.5 -61t65.5 -22zM786 138q-20 -72 -77 -111.5t-141 -39.5q-138 0 -183 116h-3q-43 -54 -89 -82t-117 -28
q-66 0 -110 38t-44 108q0 73 46 112.5t131 54.5q49 9 182 9l4 24q11 62 -13 96.5t-82 34.5q-100 0 -110 -87h-90q8 73 64 114.5t144 41.5q118 0 158 -97h1q34 45 83 71.5t104 26.5q76 0 122 -39.5t54 -97.5t-2 -126l-8 -38h-352q-2 -30 -2 -43q0 -61 29 -101.5t93 -40.5
q95 0 122 84h86zM457 626l81 162h101l-117 -162h-65z" />
    <glyph glyph-name="Oslashacute" unicode="&#x1fe;" horiz-adv-x="802" 
d="M473 702q-64 0 -116.5 -28t-85.5 -71.5t-55 -100t-31.5 -111t-9.5 -107.5q0 -56 11 -94l436 458q-51 54 -149 54zM378 59q77 0 137 42.5t92.5 108t49 133.5t16.5 130q0 69 -16 114l-440 -462q50 -66 161 -66zM767 469q0 -88 -25.5 -173t-73 -155t-124 -113.5
t-169.5 -43.5q-133 0 -213 83l-89 -93h-92l140 148q-40 72 -40 165q0 210 113 349.5t284 139.5q122 0 198 -71l79 83h93l-129 -135q48 -75 48 -184zM462 827l83 133h101l-117 -133h-67z" />
    <glyph glyph-name="oslashacute" unicode="&#x1ff;" horiz-adv-x="555" 
d="M308 473q-47 0 -83 -28t-56 -72t-29.5 -91t-9.5 -92q0 -24 3 -43l271 284q-28 42 -96 42zM248 55q41 0 73 20.5t51 51.5t31.5 71t17 74t4.5 66q0 13 -2 35l-270 -283q29 -35 95 -35zM513 332q0 -48 -10 -96t-31.5 -93t-52 -79.5t-76 -55.5t-98.5 -21q-92 0 -144 49
l-60 -63h-74l101 106q-26 49 -26 117q0 48 10 95.5t32 92.5t52.5 79.5t75.5 55.5t98 21q94 0 148 -52l59 62h75l-102 -107q23 -46 23 -111zM310 626l81 162h101l-117 -162h-65z" />
    <glyph glyph-name="Scommaaccent" unicode="&#x218;" horiz-adv-x="666" 
d="M51 225h94q-3 -163 173 -163q75 0 129 39.5t54 112.5q0 44 -25.5 71.5t-84.5 49.5l-90 33q-158 56 -158 184q0 103 74.5 164t187.5 60t175 -57.5t55 -168.5h-91q5 69 -32 110.5t-112 41.5q-69 0 -116.5 -35.5t-47.5 -101.5q0 -77 104 -115l86 -31q91 -32 129.5 -77
t38.5 -120q0 -107 -78.5 -172t-200.5 -65q-121 0 -195.5 58.5t-68.5 181.5zM204 -206l49 137h95l-88 -137h-56z" />
    <glyph glyph-name="scommaaccent" unicode="&#x219;" horiz-adv-x="493" 
d="M451 388h-85q2 41 -25 63t-73 22q-41 0 -73.5 -21.5t-32.5 -62.5q0 -55 63 -72l61 -16q80 -21 111.5 -55t31.5 -89q0 -80 -57 -125t-151 -45q-85 0 -143.5 42.5t-53.5 129.5h85q-4 -49 27.5 -77t88.5 -28q49 0 83.5 23t34.5 68q0 28 -18.5 47t-64.5 31l-61 16
q-124 33 -124 139q0 77 57 119.5t139 42.5q81 0 133 -38t47 -114zM100 -206l49 137h95l-88 -137h-56z" />
    <glyph glyph-name="uni021A" unicode="&#x21a;" horiz-adv-x="624" 
d="M441 685l-133 -685h-92l133 685h-253l16 80h595l-16 -80h-250zM156 -206l49 137h95l-88 -137h-56z" />
    <glyph glyph-name="uni021B" unicode="&#x21b;" horiz-adv-x="356" 
d="M202 680h80l-30 -153h125l-14 -69h-125l-59 -302q-10 -52 3 -71t57 -19l50 5l-15 -73q-33 -6 -58 -6q-155 0 -126 151l61 315h-90l13 66h11q53 0 73.5 21.5t35.5 96.5zM57 -206l49 137h95l-88 -137h-56z" />
    <glyph glyph-name="uni0237" unicode="&#x237;" horiz-adv-x="273" 
d="M-110 -188l15 73q21 -7 46 -7q33 0 52.5 15.5t26.5 52.5l113 581h89l-115 -591q-26 -135 -163 -135q-33 0 -64 11z" />
    <glyph glyph-name="circumflex" unicode="&#x2c6;" horiz-adv-x="362" 
d="M330 788l66 -162h-78l-43 102l-79 -102h-82l123 162h93z" />
    <glyph glyph-name="caron" unicode="&#x2c7;" horiz-adv-x="327" 
d="M182 626l-66 162h78l43 -102l79 102h82l-123 -162h-93z" />
    <glyph glyph-name="breve" unicode="&#x2d8;" horiz-adv-x="365" 
d="M255 629q-68 0 -104 39.5t-20 119.5h65q-9 -45 8.5 -69t54.5 -24q81 0 100 93h67q-16 -80 -62 -119.5t-109 -39.5z" />
    <glyph glyph-name="dotaccent" unicode="&#x2d9;" horiz-adv-x="183" 
d="M123 646l19 99h93l-19 -99h-93z" />
    <glyph glyph-name="ring" unicode="&#x2da;" horiz-adv-x="372" 
d="M263 624q-48 1 -75 28.5t-27 71.5q0 50 31.5 82t81.5 32t78 -27.5t28 -72.5q0 -53 -32 -83.5t-85 -30.5zM275 792q-26 0 -41 -18t-15 -49q0 -24 12.5 -39.5t35.5 -15.5q26 0 41 18t15 49q0 24 -13 39t-35 16z" />
    <glyph glyph-name="ogonek" unicode="&#x2db;" horiz-adv-x="377" 
d="M144 1l68 -1q-83 -49 -83 -92q0 -34 57 -34l-12 -62h-18q-53 0 -83.5 19t-30.5 56q0 38 29 68.5t73 45.5z" />
    <glyph glyph-name="tilde" unicode="&#x2dc;" horiz-adv-x="365" 
d="M76 624q16 135 120 135q31 0 74 -30.5t58 -30.5q38 0 45 63h64q-16 -135 -120 -135q-31 0 -74 30.5t-58 30.5q-38 0 -45 -63h-64z" />
    <glyph glyph-name="hungarumlaut" unicode="&#x2dd;" horiz-adv-x="341" 
d="M231 626l84 162h89l-117 -162h-56zM94 626l84 162h89l-117 -162h-56z" />
    <glyph glyph-name="Wgrave" unicode="&#x1e80;" horiz-adv-x="1038" 
d="M283 0h-99l-56 765h89l32 -529q2 -40 2.5 -74.5t0.5 -49.5l-1 -14h2q15 49 50 124l254 543h104l35 -529q3 -40 3.5 -74.5t-0.5 -49.5l-1 -14h2q15 48 50 124l251 543h92l-363 -765h-100l-37 527q-3 40 -3.5 74.5t0.5 49.5v15h-2q-15 -49 -51 -125zM614 960l45 -133h-66
l-70 133h91z" />
    <glyph glyph-name="wgrave" unicode="&#x1e81;" horiz-adv-x="784" 
d="M123 0l-49 527h89l21 -345l3 -77h2q22 47 37 78l171 344h90l37 -345l6 -79h2q20 49 34 80l158 344h87l-252 -527h-93l-37 353l-6 74h-1q-18 -41 -34 -75l-172 -352h-93zM419 788l70 -162h-65l-102 162h97z" />
    <glyph glyph-name="Wacute" unicode="&#x1e82;" horiz-adv-x="1038" 
d="M283 0h-99l-56 765h89l32 -529q2 -40 2.5 -74.5t0.5 -49.5l-1 -14h2q15 49 50 124l254 543h104l35 -529q3 -40 3.5 -74.5t-0.5 -49.5l-1 -14h2q15 48 50 124l251 543h92l-363 -765h-100l-37 527q-3 40 -3.5 74.5t0.5 49.5v15h-2q-15 -49 -51 -125zM581 827l83 133h101
l-117 -133h-67z" />
    <glyph glyph-name="wacute" unicode="&#x1e83;" horiz-adv-x="784" 
d="M123 0l-49 527h89l21 -345l3 -77h2q22 47 37 78l171 344h90l37 -345l6 -79h2q20 49 34 80l158 344h87l-252 -527h-93l-37 353l-6 74h-1q-18 -41 -34 -75l-172 -352h-93zM426 626l81 162h101l-117 -162h-65z" />
    <glyph glyph-name="Wdieresis" unicode="&#x1e84;" horiz-adv-x="1038" 
d="M283 0h-99l-56 765h89l32 -529q2 -40 2.5 -74.5t0.5 -49.5l-1 -14h2q15 49 50 124l254 543h104l35 -529q3 -40 3.5 -74.5t-0.5 -49.5l-1 -14h2q15 48 50 124l251 543h92l-363 -765h-100l-37 527q-3 40 -3.5 74.5t0.5 49.5v15h-2q-15 -49 -51 -125zM681 822l19 99h90
l-19 -99h-90zM469 822l19 99h90l-19 -99h-90z" />
    <glyph glyph-name="wdieresis" unicode="&#x1e85;" horiz-adv-x="784" 
d="M123 0l-49 527h89l21 -345l3 -77h2q22 47 37 78l171 344h90l37 -345l6 -79h2q20 49 34 80l158 344h87l-252 -527h-93l-37 353l-6 74h-1q-18 -41 -34 -75l-172 -352h-93zM517 646l19 99h90l-19 -99h-90zM325 646l19 99h90l-19 -99h-90z" />
    <glyph glyph-name="Ygrave" unicode="&#x1ef2;" horiz-adv-x="640" 
d="M221 0l65 334l-177 431h102l134 -352h2l280 352h100l-352 -438l-63 -327h-91zM422 960l45 -133h-66l-70 133h91z" />
    <glyph glyph-name="ygrave" unicode="&#x1ef3;" horiz-adv-x="510" 
d="M166 4l-82 523h88l48 -330l10 -82h3q18 37 40 81l166 331h90l-300 -571q-47 -90 -87.5 -122t-114.5 -33q-33 0 -63 9l15 73q25 -7 44 -7q44 1 71.5 21.5t54.5 74.5zM299 788l70 -162h-65l-102 162h97z" />
    <glyph glyph-name="uni2009" unicode="&#x2009;" horiz-adv-x="50" 
 />
    <glyph glyph-name="endash" unicode="&#x2013;" horiz-adv-x="528" 
d="M67 292l14 71h415l-14 -71h-415z" />
    <glyph glyph-name="emdash" unicode="&#x2014;" horiz-adv-x="878" 
d="M67 292l14 71h765l-14 -71h-765z" />
    <glyph glyph-name="quoteleft" unicode="&#x2018;" horiz-adv-x="224" 
d="M270 765l-74 -220h-108l120 220h62z" />
    <glyph glyph-name="quoteright" unicode="&#x2019;" horiz-adv-x="224" 
d="M106 544l74 221h109l-120 -221h-63z" />
    <glyph glyph-name="quotesinglbase" unicode="&#x201a;" horiz-adv-x="224" 
d="M-21 -113l73 221h109l-119 -221h-63z" />
    <glyph glyph-name="quotedblleft" unicode="&#x201c;" horiz-adv-x="387" 
d="M433 765l-74 -220h-109l120 220h63zM270 765l-74 -220h-108l120 220h62z" />
    <glyph glyph-name="quotedblright" unicode="&#x201d;" horiz-adv-x="396" 
d="M268 544l75 221h108l-120 -221h-63zM106 544l74 221h109l-120 -221h-63z" />
    <glyph glyph-name="quotedblbase" unicode="&#x201e;" horiz-adv-x="387" 
d="M141 -113l74 221h108l-119 -221h-63zM-21 -113l73 221h109l-119 -221h-63z" />
    <glyph glyph-name="dagger" unicode="&#x2020;" horiz-adv-x="291" 
d="M245 597l-59 -307h-70l59 307h-91l12 66h92l20 102h70l-20 -102h91l-12 -66h-92z" />
    <glyph glyph-name="daggerdbl" unicode="&#x2021;" horiz-adv-x="292" 
d="M206 392l-20 -102h-70l20 102h-92l13 66h92l26 139h-91l12 66h92l20 102h70l-20 -102h92l-12 -66h-93l-26 -139h92l-13 -66h-92z" />
    <glyph glyph-name="bullet" unicode="&#x2022;" horiz-adv-x="442" 
d="M217 199q-47 0 -76.5 30t-29.5 79q0 47 31 78t76 31q48 0 77.5 -30.5t29.5 -78.5q0 -49 -31 -79t-77 -30z" />
    <glyph glyph-name="ellipsis" unicode="&#x2026;" horiz-adv-x="699" 
d="M475 0l23 122h119l-23 -122h-119zM242 0l23 122h119l-23 -122h-119zM9 0l23 122h119l-23 -122h-119z" />
    <glyph glyph-name="perthousand" unicode="&#x2030;" horiz-adv-x="1211" 
d="M37 -40l695 821h93l-696 -821h-92zM79 520q0 88 47.5 154t142.5 66q74 0 111.5 -39.5t37.5 -100.5q0 -41 -10.5 -78.5t-31.5 -70.5t-59.5 -52.5t-88.5 -19.5q-74 0 -111.5 39.5t-37.5 101.5zM229 443q32 0 55 17t34 43.5t15.5 51t4.5 47.5q0 33 -17 55t-55 22
q-39 0 -65 -28t-35 -61.5t-9 -69.5q0 -77 72 -77zM983 -7q-74 0 -111.5 39.5t-37.5 101.5q0 88 47.5 154t142.5 66q74 0 111.5 -39.5t37.5 -100.5q0 -41 -10.5 -78.5t-31.5 -70.5t-59.5 -52.5t-88.5 -19.5zM587 -7q-74 0 -111.5 39.5t-37.5 101.5q0 88 47.5 154t142.5 66
q74 0 111.5 -39.5t37.5 -100.5q0 -41 -10.5 -78.5t-31.5 -70.5t-59.5 -52.5t-88.5 -19.5zM984 57q32 0 55 17t34 43.5t15.5 51t4.5 47.5q0 33 -17 55t-55 22q-39 0 -65 -28t-35 -61.5t-9 -69.5q0 -77 72 -77zM588 57q32 0 55 17t34 43.5t15.5 51t4.5 47.5q0 33 -17 55
t-55 22q-39 0 -65 -28t-35 -61.5t-9 -69.5q0 -77 72 -77z" />
    <glyph glyph-name="uni2032" unicode="&#x2032;" horiz-adv-x="209" 
d="M95 544l51 221h108l-97 -221h-62z" />
    <glyph glyph-name="uni2033" unicode="&#x2033;" horiz-adv-x="371" 
d="M256 544l52 221h108l-96 -221h-64zM95 544l51 221h108l-97 -221h-62z" />
    <glyph glyph-name="guilsinglleft" unicode="&#x2039;" horiz-adv-x="332" 
d="M216 464h87l-151 -206l64 -201h-82l-70 209z" />
    <glyph glyph-name="guilsinglright" unicode="&#x203a;" horiz-adv-x="332" 
d="M120 57h-87l151 206l-64 201h82l70 -209z" />
    <glyph glyph-name="fraction" unicode="&#x2044;" horiz-adv-x="265" 
d="M-237 -40l694 821h82l-694 -821h-82z" />
    <glyph glyph-name="Euro" unicode="&#x20ac;" horiz-adv-x="593" 
d="M551 207q-27 -100 -99.5 -161.5t-171.5 -61.5q-100 0 -159 66.5t-55 200.5h-85l14 71h76q2 12 8 46q7 33 10 45h-78l14 71h84q89 268 310 268q92 0 147 -63.5t41 -160.5h-87q7 73 -23 111.5t-93 38.5q-140 0 -204 -194h228l-14 -71h-234q-5 -16 -10 -45q-6 -34 -8 -46
h236l-14 -71h-229q-7 -192 139 -192q59 0 106.5 43.5t63.5 104.5h87z" />
    <glyph glyph-name="trademark" unicode="&#x2122;" horiz-adv-x="641" 
d="M236 716l9 49h93l-9 -49h-93zM186 459h-57l50 257h-92l9 49h149zM429 695l-46 -236h-52l59 306h84l24 -178l2 -46h3q5 19 19 46l96 178h89l-59 -306h-57l46 236h-4q-11 -28 -29 -62l-93 -174h-48l-26 173l-4 63h-4z" />
    <glyph glyph-name="onethird" unicode="&#x2153;" horiz-adv-x="857" 
d="M123 334l63 301h-90l11 56h13q44 0 69 18q23 19 33 56h64l-90 -431h-73zM-13 -40l694 821h82l-694 -821h-82zM644 191h-48l12 55h48q36 0 59.5 20.5t23.5 54.5q0 27 -19 42.5t-50 15.5q-78 0 -88 -74h-70q4 57 47.5 94t115.5 37q62 0 99.5 -28t37.5 -81q0 -41 -26.5 -70
t-67.5 -40v-2q69 -19 69 -89q0 -62 -49.5 -98.5t-124.5 -36.5q-71 0 -110.5 35t-35.5 97h71q0 -74 82 -74q43 0 68 22t25 56q0 64 -69 64z" />
    <glyph glyph-name="twothirds" unicode="&#x2154;" horiz-adv-x="950" 
d="M178 625h-69q4 68 50.5 106.5t117.5 38.5q60 0 96.5 -28t36.5 -81q0 -48 -31 -86t-94 -86l-123 -93v-1h206l-12 -61h-317l9 48l184 146q5 4 17.5 13.5t17 13t14.5 12t13.5 12l11 11t10.5 12t7.5 12t6 13.5t3 13t1.5 15q0 26 -17 41.5t-47 15.5q-82 0 -92 -87zM104 -40
l694 821h82l-694 -821h-82zM737 191h-48l12 55h48q36 0 59.5 20.5t23.5 54.5q0 27 -19 42.5t-50 15.5q-78 0 -88 -74h-70q4 57 47.5 94t115.5 37q62 0 99.5 -28t37.5 -81q0 -41 -26.5 -70t-67.5 -40v-2q69 -19 69 -89q0 -62 -49.5 -98.5t-124.5 -36.5q-71 0 -110.5 35
t-35.5 97h71q0 -74 82 -74q43 0 68 22t25 56q0 64 -69 64z" />
    <glyph glyph-name="oneeighth" unicode="&#x215b;" horiz-adv-x="865" 
d="M123 334l63 301h-90l11 56h13q44 0 69 18q23 19 33 56h64l-90 -431h-73zM-3 -40l694 821h82l-694 -821h-82zM682 436q62 0 100 -28.5t38 -81.5q0 -41 -24.5 -69.5t-63.5 -39.5v-2q65 -22 65 -89q0 -61 -48 -98t-126 -37q-74 0 -112 30t-38 84q0 45 28.5 76t76.5 42v2
q-52 22 -52 82q0 57 44 93t112 36zM680 381q-37 0 -58 -22t-21 -54q0 -29 17.5 -45t47.5 -16q37 0 58 21t21 57q0 28 -18.5 43.5t-46.5 15.5zM629 45q44 0 68 23t24 59q0 31 -23.5 47.5t-58.5 16.5q-43 0 -66.5 -22.5t-23.5 -60.5q0 -31 22 -47t58 -16z" />
    <glyph glyph-name="threeeighths" unicode="&#x215c;" horiz-adv-x="948" 
d="M252 525h-48l12 55h48q36 0 59.5 20.5t23.5 54.5q0 27 -19 42.5t-50 15.5q-78 0 -88 -74h-70q4 57 47.5 94t115.5 37q62 0 99.5 -28t37.5 -81q0 -41 -26.5 -70t-67.5 -40v-2q69 -19 69 -89q0 -62 -49.5 -98.5t-124.5 -36.5q-71 0 -110.5 35t-35.5 97h71q0 -74 82 -74
q43 0 68 22t25 56q0 64 -69 64zM103 -40l694 821h82l-694 -821h-82zM765 441q62 0 100 -28.5t38 -81.5q0 -41 -24.5 -69.5t-63.5 -39.5v-2q65 -22 65 -89q0 -61 -48 -98t-126 -37q-74 0 -112 30t-38 84q0 45 28.5 76t76.5 42v2q-52 22 -52 82q0 57 44 93t112 36zM763 386
q-37 0 -58 -22t-21 -54q0 -29 17.5 -45t47.5 -16q37 0 58 21t21 57q0 28 -18.5 43.5t-46.5 15.5zM712 50q44 0 68 23t24 59q0 31 -23.5 47.5t-58.5 16.5q-43 0 -66.5 -22.5t-23.5 -60.5q0 -31 22 -47t58 -16z" />
    <glyph glyph-name="fiveeighths" unicode="&#x215d;" horiz-adv-x="944" 
d="M324 492q0 68 -70 69q-49 0 -80 -36h-65l68 239h249l-13 -62h-189l-35 -120h2q36 36 93 36q56 0 86.5 -32.5t30.5 -85.5q0 -77 -51.5 -126t-132.5 -49q-73 0 -108 32.5t-33 93.5h73q-1 -31 19.5 -48.5t51.5 -17.5q48 0 76 31.5t28 75.5zM98 -40l694 821h82l-694 -821h-82
zM761 436q62 0 100 -28.5t38 -81.5q0 -41 -24.5 -69.5t-63.5 -39.5v-2q65 -22 65 -89q0 -61 -48 -98t-126 -37q-74 0 -112 30t-38 84q0 45 28.5 76t76.5 42v2q-52 22 -52 82q0 57 44 93t112 36zM759 381q-37 0 -58 -22t-21 -54q0 -29 17.5 -45t47.5 -16q37 0 58 21t21 57
q0 28 -18.5 43.5t-46.5 15.5zM708 45q44 0 68 23t24 59q0 31 -23.5 47.5t-58.5 16.5q-43 0 -66.5 -22.5t-23.5 -60.5q0 -31 22 -47t58 -16z" />
    <glyph glyph-name="seveneighths" unicode="&#x215e;" horiz-adv-x="873" 
d="M77 334l249 367h-214l13 63h302l-10 -45l-260 -385h-80zM4 -40l694 821h82l-694 -821h-82zM690 436q62 0 100 -28.5t38 -81.5q0 -41 -24.5 -69.5t-63.5 -39.5v-2q65 -22 65 -89q0 -61 -48 -98t-126 -37q-74 0 -112 30t-38 84q0 45 28.5 76t76.5 42v2q-52 22 -52 82
q0 57 44 93t112 36zM688 381q-37 0 -58 -22t-21 -54q0 -29 17.5 -45t47.5 -16q37 0 58 21t21 57q0 28 -18.5 43.5t-46.5 15.5zM637 45q44 0 68 23t24 59q0 31 -23.5 47.5t-58.5 16.5q-43 0 -66.5 -22.5t-23.5 -60.5q0 -31 22 -47t58 -16z" />
    <glyph glyph-name="minus" unicode="&#x2212;" horiz-adv-x="613" 
d="M89 318l16 79h454l-16 -79h-454z" />
    <glyph glyph-name="approxequal" unicode="&#x2248;" horiz-adv-x="454" 
d="M55 375q11 57 46.5 93.5t92.5 36.5q36 0 86.5 -29.5t70.5 -29.5q22 0 35.5 13t26.5 48h63q-11 -56 -46.5 -93t-86.5 -37q-40 0 -92 29.5t-72 29.5q-23 0 -37 -13.5t-24 -47.5h-63zM24 213q11 57 46 93.5t92 36.5q36 0 87 -29.5t71 -29.5q22 0 35.5 13t26.5 48h63
q-11 -56 -47 -93t-87 -37q-40 0 -91.5 29.5t-71.5 29.5q-23 0 -37 -13.5t-24 -47.5h-63z" />
    <glyph glyph-name="notequal" unicode="&#x2260;" horiz-adv-x="647" 
d="M287 229l-81 -120h-79l81 120h-119l15 76h156l71 105h-207l15 76h244l81 120h79l-81 -120h131l-15 -76h-168l-71 -105h219l-15 -76h-256z" />
    <glyph glyph-name="lessequal" unicode="&#x2264;" horiz-adv-x="605" 
d="M498 131l-415 229l12 58l502 222l-15 -90l-386 -167l318 -172zM472 0h-454l16 77h454z" />
    <glyph glyph-name="greaterequal" unicode="&#x2265;" horiz-adv-x="605" 
d="M155 632l415 -229l-12 -58l-502 -222l15 91l386 167l-318 172zM487 0h-454l16 77h454z" />
    <glyph glyph-name="uni24C5" unicode="&#x24c5;" horiz-adv-x="907" 
d="M75 380q0 169 112.5 283t281.5 114t282 -114t113 -283q0 -168 -113 -282t-282 -114t-281.5 113.5t-112.5 282.5zM469 41q141 0 235.5 97.5t94.5 241.5t-94.5 242t-235.5 98t-235 -97.5t-94 -242.5q0 -144 94 -241.5t235 -97.5zM312 179l77 409h123q63 0 102.5 -32.5
t36.5 -91.5q-4 -70 -47 -104.5t-113 -34.5h-83l-28 -146h-68zM417 379h74q87 0 94 79q3 37 -19.5 57.5t-62.5 20.5h-55z" />
    <glyph glyph-name="quotedblright.sc" horiz-adv-x="396" 
d="M244 423l75 221h108l-120 -221h-63zM82 423l74 221h109l-120 -221h-63z" />
    <glyph glyph-name="Ibreve.sc" horiz-adv-x="271" 
d="M40 0l125 644h89l-126 -644h-88zM236 719q-68 0 -104 39.5t-20 119.5h65q-9 -45 8.5 -69t54.5 -24q80 0 100 93h67q-16 -80 -62 -119.5t-109 -39.5z" />
    <glyph glyph-name="exclamdown.uc" horiz-adv-x="234" 
d="M204 528l-98 -551h-100l123 551h75zM151 765h116l-22 -118h-116z" />
    <glyph glyph-name="hyphen.uc" horiz-adv-x="389" 
d="M76 332l16 81h274l-16 -81h-274z" />
    <glyph glyph-name="endash.uc" horiz-adv-x="528" 
d="M76 337l14 71h415l-14 -71h-415z" />
    <glyph glyph-name="emdash.uc" horiz-adv-x="878" 
d="M76 337l14 71h765l-14 -71h-765z" />
    <glyph glyph-name="guilsinglleft.uc" horiz-adv-x="342" 
d="M227 524h87l-151 -206l64 -201h-82l-70 209z" />
    <glyph glyph-name="guilsinglright.uc" horiz-adv-x="332" 
d="M120 117h-87l151 206l-64 201h82l70 -209z" />
    <glyph glyph-name="guillemotleft.uc" horiz-adv-x="544" 
d="M429 524h87l-151 -206l64 -201h-82l-70 209zM227 524h87l-151 -206l64 -201h-82l-70 209z" />
    <glyph glyph-name="guillemotright.uc" horiz-adv-x="534" 
d="M120 117h-87l151 206l-64 201h82l70 -209zM322 117h-87l151 206l-64 201h82l70 -209z" />
    <glyph glyph-name="parenleft.uc" horiz-adv-x="326" 
d="M230 -100h-67q-21 53 -33.5 89.5t-24 101t-11.5 133.5q0 299 236 594h73q-108 -150 -164.5 -295.5t-59.5 -314.5q-2 -147 51 -308z" />
    <glyph glyph-name="parenright.uc" horiz-adv-x="326" 
d="M127 818h67q21 -53 33.5 -89.5t24 -101t11.5 -133.5q0 -299 -236 -594h-73q108 150 164.5 295.5t59.5 314.5q2 147 -51 308z" />
    <glyph glyph-name="space_uni0326" horiz-adv-x="369" 
d="M130 -206l49 137h95l-88 -137h-56z" />
    <glyph glyph-name="grave.uc" horiz-adv-x="367" 
d="M190 960l45 -133h-66l-70 133h91z" />
    <glyph glyph-name="bracketleft.uc" horiz-adv-x="357" 
d="M32 -100l179 918h213l-13 -67h-132l-153 -784h132l-13 -67h-213z" />
    <glyph glyph-name="bracketright.uc" horiz-adv-x="388" 
d="M356 818l-179 -918h-213l13 67h132l153 784h-132l13 67h213z" />
    <glyph glyph-name="braceleft.uc" horiz-adv-x="348" 
d="M65 331h-24l15 74h24q43 0 62 15.5t27 57.5l40 211q15 78 67.5 109.5t153.5 23.5l-12 -62q-69 4 -97 -19t-39 -82l-37 -191q-8 -45 -26 -68t-67 -30l-1 -4q42 -12 52 -47.5t-2 -74.5l-36 -179q-12 -61 8.5 -79.5t89.5 -27.5l-13 -62q-99 3 -140 42t-23 127l37 185
q9 44 -5.5 62.5t-53.5 18.5z" />
    <glyph glyph-name="braceright.uc" horiz-adv-x="386" 
d="M321 387h24l-15 -74h-24q-43 0 -62 -15.5t-27 -57.5l-40 -211q-15 -78 -67.5 -109.5t-153.5 -23.5l12 62q69 -4 97 19t39 82l32 167q6 32 14.5 55t30 44t53.5 23l1 4q-42 12 -52 47.5t2 74.5l36 179q12 61 -8.5 79.5t-89.5 27.5l13 62q100 -3 140 -43.5t22 -132.5
l-36 -178q-9 -44 5.5 -62.5t53.5 -18.5z" />
    <glyph glyph-name="slash.uc" horiz-adv-x="563" 
d="M-62 -74l591 872h87l-586 -872h-92z" />
    <glyph glyph-name="backslash.uc" horiz-adv-x="524" 
d="M374 -74l-256 872h75l261 -872h-80z" />
    <glyph glyph-name="bar.uc" horiz-adv-x="276" 
d="M31 -74l169 872h71l-169 -872h-71z" />
    <glyph glyph-name="acute.uc" horiz-adv-x="367" 
d="M84 827l83 133h101l-117 -133h-67z" />
    <glyph glyph-name="at.uc" horiz-adv-x="1043" 
d="M761 131q-118 0 -131 88h-3q-56 -91 -155 -91q-72 0 -113 46t-43 122q-3 108 60.5 197.5t168.5 89.5q49 0 81 -23t43 -61h2l13 68h75l-53 -267q-11 -51 6 -79.5t62 -28.5q54 0 97.5 56.5t43.5 178.5q0 140 -93.5 231t-247.5 91q-166 0 -287 -126t-121 -307
q0 -165 95.5 -265.5t254.5 -100.5q156 0 261 84l36 -50q-120 -97 -307 -97q-190 0 -306 118t-116 311q0 210 144.5 353t345.5 143q186 0 302.5 -104.5t116.5 -272.5q0 -82 -22 -144t-58 -95t-74.5 -49t-77.5 -16zM491 193q50 0 88.5 38t50.5 96l9 43q5 34 1.5 66.5t-27.5 56
t-64 23.5q-70 0 -109 -67.5t-39 -152.5q0 -45 23 -74t67 -29z" />
    <glyph glyph-name="f.short" horiz-adv-x="350" 
d="M238 458l-88 -458h-88l89 458h-90l14 69h89l25 128q26 136 175 136q36 0 59 -6l-14 -74q-20 5 -49 5q-36 0 -57 -17.5t-30 -59.5l-22 -112h121l-13 -69h-121z" />
    <glyph glyph-name="f_f.short" horiz-adv-x="680" 
d="M238 458l-88 -458h-88l89 458h-90l14 69h89l24 122q26 136 175 136q37 0 59 -6l-14 -74q-20 5 -49 5q-36 0 -57 -17.5t-30 -59.5l-20 -106h242l25 128q26 136 175 136q36 0 59 -6l-14 -74q-20 5 -49 5q-36 0 -57 -17.5t-30 -59.5l-22 -112h121l-13 -69h-121l-88 -458h-88
l89 458h-243z" />
    <glyph glyph-name="macron.uc" horiz-adv-x="369" 
d="M33 852l15 73h286l-15 -73h-286z" />
    <glyph glyph-name="circumflex.uc" horiz-adv-x="369" 
d="M236 960l77 -133h-75l-50 76h-1l-77 -76h-79l113 133h92z" />
    <glyph glyph-name="caron.uc" horiz-adv-x="369" 
d="M128 827l-81 133h80l52 -76h1l79 76h86l-125 -133h-92z" />
    <glyph glyph-name="breve.uc" horiz-adv-x="369" 
d="M56 970h65q-2 -36 14.5 -55t49.5 -19q72 0 97 74h68q-19 -71 -64 -105.5t-107 -34.5q-61 0 -96.5 35t-26.5 105z" />
    <glyph glyph-name="caron.alt" horiz-adv-x="369" 
d="M128 626l48 162h84l-77 -162h-55z" />
    <glyph glyph-name="dotaccent.uc" horiz-adv-x="369" 
d="M128 837l19 99h93l-19 -99h-93z" />
    <glyph glyph-name="ring.uc" horiz-adv-x="369" 
d="M180 808q-48 1 -75 28.5t-27 71.5q0 50 31.5 82t81.5 32t78 -27.5t28 -72.5q0 -53 -32 -83.5t-85 -30.5zM192 976q-26 0 -41 -18t-15 -49q0 -24 12.5 -39.5t35.5 -15.5q26 0 41 18t15 49q0 24 -13 39t-35 16z" />
    <glyph glyph-name="sterling.tab" 
d="M518 80l-15 -80h-483l13 69l41 29q25 18 39.5 30.5t29 28t21.5 30t11.5 34t4 42.5t-5.5 53h-103l14 71h77l-8 51q-22 136 44.5 225t200.5 89q108 0 160.5 -62.5t32.5 -160.5h-88q25 149 -110 149q-87 0 -124 -62t-23 -154l10 -75h216l-14 -71h-193q7 -75 -14 -125.5
t-81 -93.5l-21 -15v-2h368z" />
    <glyph glyph-name="tilde.uc" horiz-adv-x="369" 
d="M-6 827q11 59 43.5 97t87.5 38q22 0 42 -9.5t32 -21t26 -21t25 -9.5q21 0 33.5 15t22.5 48h68q-11 -59 -43 -97t-87 -38q-36 0 -73.5 30t-53.5 30q-37 0 -56 -62h-67z" />
    <glyph glyph-name="cent.tab" 
d="M427 172h86q-17 -85 -76 -134t-141 -51l-20 -103h-71l21 110q-70 18 -106 73t-36 136q0 120 65.5 221t182.5 114l19 97h71l-19 -98q64 -10 99 -53t36 -116h-83q3 81 -66 100l-79 -411q53 5 82 39t35 76zM240 67l78 401q-48 -13 -82.5 -58t-49 -98.5t-14.5 -108.5
q0 -106 68 -136z" />
    <glyph glyph-name="plus.tab" 
d="M366 319l-38 -192h-86l38 192h-182l14 77h183l37 191h86l-37 -191h182l-14 -77h-183z" />
    <glyph glyph-name="minus.tab" 
d="M97 318l16 79h454l-16 -79h-454z" />
    <glyph glyph-name="multiply.tab" 
d="M122 124l-46 61l194 165l-131 164l62 53l128 -166l195 172l50 -60l-199 -168l134 -170l-62 -53l-129 171z" />
    <glyph glyph-name="divide.tab" 
d="M308 498l19 97h93l-19 -97h-93zM94 318l16 79h454l-16 -79h-454zM328 120h-93l19 97h93z" />
    <glyph glyph-name="equal.tab" 
d="M112 410l15 76h454l-15 -76h-454zM531 229h-454l15 76h454z" />
    <glyph glyph-name="less.tab" 
d="M489 77l-415 229l12 58l502 222l-15 -90l-386 -167l318 -172z" />
    <glyph glyph-name="greater.tab" 
d="M138 589l415 -229l-12 -58l-502 -222l15 91l386 167l-318 172z" />
    <glyph glyph-name="florin.tab" 
d="M340 367l-145 -556h-86l144 556h-104l13 69h109l55 213q33 136 181 136q37 0 59 -6l-18 -74q-20 5 -48 5q-36 0 -58 -17.5t-33 -59.5l-51 -197h129l-13 -69h-134z" />
    <glyph glyph-name="plusminus.tab" 
d="M366 349l-37 -192h-86l37 192h-182l15 77h182l37 191h86l-37 -191h183l-15 -77h-183zM31 0l14 77h451l-14 -77h-451z" />
    <glyph glyph-name="notequal.tab" 
d="M276 229l-81 -120h-79l81 120h-119l15 76h156l71 105h-207l15 76h244l81 120h79l-81 -120h131l-15 -76h-168l-71 -105h219l-15 -76h-256z" />
    <glyph glyph-name="approxequal.tab" 
d="M122 375q11 57 46.5 93.5t92.5 36.5q36 0 86.5 -29.5t70.5 -29.5q22 0 35.5 13t26.5 48h63q-11 -56 -46.5 -93t-86.5 -37q-40 0 -92 29.5t-72 29.5q-23 0 -37 -13.5t-24 -47.5h-63zM91 213q11 57 46 93.5t92 36.5q36 0 87 -29.5t71 -29.5q22 0 35.5 13t26.5 48h63
q-11 -56 -47 -93t-87 -37q-40 0 -91.5 29.5t-71.5 29.5q-23 0 -37 -13.5t-24 -47.5h-63z" />
    <glyph glyph-name="lessequal.tab" 
d="M510 131l-415 229l12 58l502 222l-15 -90l-386 -167l318 -172zM484 0h-454l16 77h454z" />
    <glyph glyph-name="greaterequal.tab" 
d="M153 632l415 -229l-12 -58l-502 -222l15 91l386 167l-318 172zM485 0h-454l16 77h454z" />
    <glyph glyph-name="period.tab" horiz-adv-x="300" 
d="M67 0l23 122h119l-23 -122h-119z" />
    <glyph glyph-name="comma.tab" horiz-adv-x="300" 
d="M22 -117l79 240h115l-131 -240h-63z" />
    <glyph glyph-name="colon.tab" horiz-adv-x="300" 
d="M123 404l24 123h121l-24 -123h-121zM166 0h-121l23 123h121z" />
    <glyph glyph-name="semicolon.tab" horiz-adv-x="300" 
d="M130 404l24 123h121l-24 -123h-121zM63 -117h-62l78 240h115z" />
    <glyph glyph-name="hungarumlaut.uc" horiz-adv-x="369" 
d="M184 837l57 133h89l-90 -133h-56zM47 837l57 133h89l-91 -133h-55z" />
    <glyph glyph-name="currency.tab" 
d="M187 347q0 -52 31 -86t80 -34q50 0 81 34t31 86t-31 86.5t-81 34.5q-49 0 -80 -34.5t-31 -86.5zM119 347q0 52 26 96l-79 79l57 57l78 -79q44 27 97 27q55 0 100 -29l82 84l55 -55l-84 -83q27 -44 27 -97q0 -54 -27 -97l81 -80l-57 -57l-80 81q-43 -26 -97 -26t-97 26
l-81 -82l-55 55l82 81q-28 44 -28 99z" />
    <glyph glyph-name="percent.tab" horiz-adv-x="900" 
d="M83 -40l695 821h93l-696 -821h-92zM120 515q0 86 51.5 155.5t144.5 69.5q74 0 110.5 -38t36.5 -97q0 -88 -51 -157t-145 -69q-73 0 -110 38t-37 98zM270 443q32 0 55 17t34.5 43.5t16.5 51t5 47.5q0 77 -70 77q-39 0 -65.5 -27.5t-36 -61.5t-9.5 -70q0 -77 70 -77z
M626 -7q-73 0 -110 38t-37 98q0 86 51.5 155.5t144.5 69.5q74 0 110.5 -38t36.5 -97q0 -88 -51 -157t-145 -69zM629 57q32 0 55 17t34.5 43.5t16.5 51t5 47.5q0 77 -70 77q-39 0 -65.5 -27.5t-36 -61.5t-9.5 -70q0 -77 70 -77z" />
    <glyph glyph-name="perthousand.tab" horiz-adv-x="1200" 
d="M41 -40l695 821h93l-696 -821h-92zM102 520q0 53 16.5 99.5t60.5 82.5t108 37q63 1 97.5 -36.5t36.5 -103.5q1 -37 -9 -74.5t-31 -70.5t-59 -53.5t-86 -20.5q-64 0 -99 37.5t-35 102.5zM240 443q30 0 52 17t32 44.5t14 52t4 48.5q0 30 -16 52t-45 22q-38 0 -61.5 -29
t-31 -63t-7.5 -71q0 -33 16 -53t43 -20zM955 -7q-64 0 -99 37.5t-35 102.5q0 53 16.5 99.5t60.5 82.5t108 37q63 1 97.5 -36.5t36.5 -103.5q1 -37 -9 -74.5t-31 -70.5t-59 -53.5t-86 -20.5zM576 -7q-64 0 -99 37.5t-35 102.5q0 53 16.5 99.5t60.5 82.5t108 37
q63 1 97.5 -36.5t36.5 -103.5q1 -37 -9 -74.5t-31 -70.5t-59 -53.5t-86 -20.5zM959 56q30 0 52 17t32 44.5t14 52t4 48.5q0 30 -16 52t-45 22q-38 0 -61.5 -29t-31 -63t-7.5 -71q0 -33 16 -53t43 -20zM580 56q30 0 52 17t32 44.5t14 52t4 48.5q0 30 -16 52t-45 22
q-38 0 -61.5 -29t-31 -63t-7.5 -71q0 -33 16 -53t43 -20z" />
    <glyph glyph-name="idotaccent" horiz-adv-x="273" 
d="M164 647l19 97h93l-19 -97h-93zM41 0l102 527h89l-102 -527h-89z" />
    <glyph glyph-name="A.sc" horiz-adv-x="634" 
d="M370 557q0 -1 -2.5 -6t-6.5 -13.5t-9 -19.5t-12 -26t-15 -30l-109 -211h206l-38 210q-5 26 -8 50t-4 35v11h-2zM463 0l-29 179h-255l-93 -179h-92l341 644h104l117 -644h-93z" />
    <glyph glyph-name="AE.sc" horiz-adv-x="892" 
d="M409 251l62 314h-38q-4 -6 -20 -32.5t-24 -38.5l-155 -243h175zM360 0l35 179h-207l-115 -179h-90l412 644h495l-15 -79h-316l-40 -202h293l-15 -78h-293l-41 -206h324l-15 -79h-412z" />
    <glyph glyph-name="B.sc" horiz-adv-x="612" 
d="M294 0h-254l126 644h220q85 0 134.5 -38t49.5 -108q0 -124 -129 -157v-2q50 -10 78 -47t28 -89q0 -101 -71 -152t-182 -51zM201 372h138q143 0 143 118q0 82 -104 82h-137zM142 72h152q73 0 118.5 32t45.5 102q0 99 -128 99h-141z" />
    <glyph glyph-name="C.sc" horiz-adv-x="645" 
d="M613 445h-88q2 65 -33 100t-94 35q-68 0 -119.5 -33.5t-79 -87.5t-40.5 -110.5t-13 -112.5q0 -75 39.5 -125t125.5 -51q73 0 118.5 40t61.5 106h90q-21 -103 -94.5 -161t-180.5 -58q-115 0 -182.5 67t-67.5 182q0 110 39.5 204t119.5 153.5t186 59.5q103 0 159.5 -51.5
t52.5 -156.5z" />
    <glyph glyph-name="D.sc" horiz-adv-x="658" 
d="M40 0l125 644h189q117 0 191.5 -60.5t74.5 -181.5q0 -177 -94.5 -289.5t-275.5 -112.5h-210zM141 75h131q64 0 113 26t75 63t42.5 85t21 83.5t4.5 66.5q0 88 -48.5 129t-133.5 41h-106z" />
    <glyph glyph-name="Dcroat.sc" horiz-adv-x="658" 
d="M250 0h-210l56 288h-71l15 74h70l55 282h189q117 0 191.5 -60.5t74.5 -181.5q0 -177 -94.5 -289.5t-275.5 -112.5zM141 75h131q64 0 113 26t75 63t42.5 85t21 83.5t4.5 66.5q0 88 -48.5 129t-133.5 41h-106l-41 -207h171l-14 -74h-172z" />
    <glyph glyph-name="E.sc" horiz-adv-x="572" 
d="M40 0l126 644h404l-14 -77h-316l-40 -205h292l-14 -76h-293l-41 -209h323l-15 -77h-412z" />
    <glyph glyph-name="Eng.sc" horiz-adv-x="677" 
d="M307 -157h-55l15 77h42q59 0 88.5 15.5t43.5 49.5l-188 468l-23 72h-2l-104 -525h-84l126 644h103l179 -451q7 -19 12.5 -37.5t7.5 -27.5l1 -8h2l105 524h84l-115 -586l-8 -43q-17 -88 -67.5 -130t-162.5 -42z" />
    <glyph glyph-name="Eth.sc" horiz-adv-x="658" 
d="M250 0h-210l56 288h-71l15 74h70l55 282h189q117 0 191.5 -60.5t74.5 -181.5q0 -177 -94.5 -289.5t-275.5 -112.5zM141 75h131q64 0 113 26t75 63t42.5 85t21 83.5t4.5 66.5q0 88 -48.5 129t-133.5 41h-106l-41 -207h171l-14 -74h-172z" />
    <glyph glyph-name="F.sc" horiz-adv-x="525" 
d="M181 268l-52 -268h-89l126 644h383l-15 -79h-294l-44 -222h271l-14 -75h-272z" />
    <glyph glyph-name="G.sc" horiz-adv-x="669" 
d="M618 466h-86q-1 54 -33.5 85.5t-92.5 31.5q-59 0 -106.5 -25t-75 -62t-46 -85.5t-25 -90.5t-6.5 -82q0 -76 38.5 -127t122.5 -51q85 0 142.5 54.5t71.5 128.5l3 16h-182l15 71h263l-64 -330h-75l20 101h-3q-65 -114 -203 -114q-119 0 -180 70.5t-61 180.5q0 56 12 112.5
t39.5 111.5t68 97t102 68t136.5 26q98 0 151.5 -46.5t53.5 -140.5z" />
    <glyph glyph-name="H.sc" horiz-adv-x="673" 
d="M184 287l-56 -287h-88l125 644h89l-55 -282h313l55 282h89l-126 -644h-89l56 287h-313z" />
    <glyph glyph-name="I.sc" horiz-adv-x="271" 
d="M40 0l125 644h89l-126 -644h-88z" />
    <glyph glyph-name="IJ.sc" horiz-adv-x="583" 
d="M40 0l125 644h89l-126 -644h-88zM248 -3h-31l14 79h19q71 0 101 26.5t41 85.5l91 456h88l-92 -466q-18 -94 -68 -137.5t-163 -43.5z" />
    <glyph glyph-name="J.sc" horiz-adv-x="390" 
d="M56 -3h-58l15 79h45q71 0 101.5 26.5t41.5 85.5l88 456h89l-91 -466q-18 -94 -68.5 -137.5t-162.5 -43.5z" />
    <glyph glyph-name="K.sc" horiz-adv-x="609" 
d="M165 184l-36 -184h-89l126 644h89l-67 -341l340 341h109l-283 -281l191 -363h-96l-163 304z" />
    <glyph glyph-name="L.sc" horiz-adv-x="515" 
d="M40 0l126 644h89l-110 -564h307l-15 -80h-397z" />
    <glyph glyph-name="M.sc" horiz-adv-x="801" 
d="M40 0l125 644h130l60 -413l12 -107h2q29 60 54 106l227 414h134l-126 -644h-86l107 541h-3q-29 -59 -53 -106l-237 -435h-82l-61 435l-12 105h-2l-108 -540h-81z" />
    <glyph glyph-name="N.sc" horiz-adv-x="677" 
d="M40 0l126 644h103l179 -451q8 -19 13 -37.5t7 -27.5l1 -8h2l105 524h84l-126 -644h-101l-180 453l-23 72h-2l-104 -525h-84z" />
    <glyph glyph-name="O.sc" horiz-adv-x="687" 
d="M63 226q0 66 12.5 127t39.5 116t65.5 95.5t94 64.5t122.5 24q115 0 182 -65.5t67 -172.5q0 -83 -20.5 -158.5t-60 -136.5t-105 -97t-147.5 -36q-114 0 -182 65t-68 174zM554 413q0 74 -41 120.5t-122 46.5q-53 0 -95 -23t-67.5 -59.5t-43 -84.5t-24 -94t-6.5 -93
q0 -73 40.5 -119.5t124.5 -46.5q52 0 93.5 23.5t67 60t42.5 85t24 94t7 90.5z" />
    <glyph glyph-name="OE.sc" horiz-adv-x="1014" 
d="M319 59q83 0 140 58t77 155l16 84q21 99 -26 162t-133 63q-53 0 -95 -23t-68.5 -59.5t-43.5 -85t-24 -94.5t-7 -92q0 -74 40 -121t124 -47zM495 80q-69 -93 -190 -93q-110 0 -176 63.5t-66 175.5q0 83 20.5 158t60 136t104.5 97t147 36q143 0 191 -107h3l19 98h404
l-14 -77h-316l-40 -205h292l-14 -76h-293l-41 -209h323l-15 -77h-412l16 80h-3z" />
    <glyph glyph-name="Oslash.sc" horiz-adv-x="687" 
d="M395 582q-65 0 -114 -33.5t-75.5 -89t-39 -115.5t-12.5 -123q0 -28 6 -52l355 367q-41 46 -120 46zM318 59q64 0 112.5 34.5t74.5 90.5t38.5 114t12.5 116q0 40 -11 69l-358 -371q40 -53 131 -53zM646 415q0 -83 -20.5 -158.5t-60 -136.5t-105 -97t-147.5 -36
q-115 0 -183 66l-73 -75h-81l118 122q-31 54 -31 126q0 66 12.5 127t39.5 116t65.5 95.5t94 64.5t122.5 24q108 0 174 -58l67 69h82l-110 -114q36 -58 36 -135z" />
    <glyph glyph-name="P.sc" horiz-adv-x="545" 
d="M294 237h-119l-46 -237h-89l126 644h176q93 0 148 -45t55 -132q0 -111 -69 -170.5t-182 -59.5zM190 313h109q72 0 114.5 38t42.5 113q0 107 -125 107h-90z" />
    <glyph glyph-name="Q.sc" horiz-adv-x="687" 
d="M312 -11q-114 0 -181.5 64t-67.5 173q0 83 20.5 158.5t60.5 136t105.5 96.5t147.5 36q117 0 183 -66.5t66 -171.5q0 -128 -42 -223t-113 -144v-4q48 -4 79 -24t56 -60l-74 -50q-32 48 -61 66.5t-75 18.5q-15 0 -45.5 -3t-58.5 -3zM320 60q52 0 93.5 23t67 59.5t42.5 84.5
t24 94t7 92q0 75 -41 121t-122 46q-65 0 -113.5 -34t-74 -89t-37 -113t-11.5 -118q0 -73 40.5 -119.5t124.5 -46.5z" />
    <glyph glyph-name="R.sc" horiz-adv-x="599" 
d="M194 339h144q64 0 99 35t35 101q0 96 -110 96h-124zM179 266l-51 -266h-88l125 644h207q84 0 131 -34q60 -40 60 -133q0 -73 -41.5 -128t-121.5 -73v-3l109 -273h-91l-104 266h-135z" />
    <glyph glyph-name="S.sc" horiz-adv-x="584" 
d="M44 189h87q-1 -65 36 -97.5t106 -32.5q62 0 106.5 30t44.5 88q0 40 -20 61t-69 36l-77 24q-136 43 -136 163q0 90 63.5 141.5t163.5 50.5q98 -1 151 -47.5t47 -141.5h-84q3 53 -28.5 86t-95.5 33q-57 0 -94 -28.5t-37 -79.5q0 -37 19.5 -58.5t66.5 -35.5l77 -24
q78 -24 110 -61t32 -100q0 -94 -68 -151.5t-182 -57.5q-100 0 -162.5 50t-56.5 152z" />
    <glyph glyph-name="T.sc" horiz-adv-x="564" 
d="M386 567l-111 -567h-89l111 567h-208l14 77h506l-14 -77h-209z" />
    <glyph glyph-name="Tbar.sc" horiz-adv-x="564" 
d="M343 346l-68 -346h-89l68 346h-163l12 64h163l31 157h-208l14 77h506l-14 -77h-209l-31 -157h163l-12 -64h-163z" />
    <glyph glyph-name="Thorn.sc" horiz-adv-x="543" 
d="M280 209h6q69 2 108 37.5t40 102.5q0 103 -124 103h-93l-47 -243h110zM278 138h-122l-27 -138h-89l126 644h89l-24 -122h91q92 0 146.5 -42.5t54.5 -126.5q-1 -103 -69 -159t-176 -56z" />
    <glyph glyph-name="U.sc" horiz-adv-x="648" 
d="M82 247l77 397h90l-72 -369q-23 -121 3 -162q32 -50 120 -50q82 0 130 48q6 6 11.5 13.5t9.5 14t8 17t6 16.5t5 19t4.5 18.5t4.5 21t4 20.5l76 393h89l-86 -437q-22 -113 -87 -166.5t-180 -53.5q-122 0 -180.5 63t-32.5 197z" />
    <glyph glyph-name="V.sc" horiz-adv-x="610" 
d="M203 0l-98 644h91l63 -449q4 -32 6.5 -59t2.5 -38v-11h1q14 36 46 97l248 460h92l-348 -644h-104z" />
    <glyph glyph-name="W.sc" horiz-adv-x="885" 
d="M250 0h-96l-54 644h87l31 -421l2 -116h2q11 42 41 105l202 432h95l34 -421l3 -116h2q11 41 40 105l198 432h88l-298 -644h-96l-35 419q-3 33 -3.5 62t-0.5 41l1 12h-3q-15 -48 -44 -112z" />
    <glyph glyph-name="X.sc" horiz-adv-x="605" 
d="M-11 0l280 336l-137 308h95l104 -240h2l196 240h97l-259 -310l155 -334h-97l-117 268h-1l-221 -268h-97z" />
    <glyph glyph-name="Y.sc" horiz-adv-x="577" 
d="M188 0l56 285l-146 359h91l111 -288h2l222 288h95l-288 -364l-54 -280h-89z" />
    <glyph glyph-name="Z.sc" horiz-adv-x="570" 
d="M127 567l15 77h447l-11 -63l-447 -504h355l-14 -77h-467l12 65l445 502h-335z" />
    <glyph glyph-name="ampersand.sc" horiz-adv-x="602" 
d="M235 499q0 -24 7 -46t12 -31.5t22 -37.5q62 26 96 56.5t34 75.5q0 32 -19.5 55t-56.5 23q-42 0 -68.5 -27t-26.5 -68zM233 300l-6 -3q-62 -26 -90 -58t-28 -81q0 -44 31 -74t86 -30q71 0 126 50q-2 3 -14 22zM553 0h-19q-90 0 -139 47q-74 -60 -177 -60q-91 0 -142 44
t-51 122q0 71 45 118t131 83q-46 76 -46 132q0 75 53 121t130 46q67 0 107 -37.5t40 -99.5q0 -114 -177 -187l81 -137q10 -16 15 -23q34 54 72 151h80q-50 -140 -105 -214q21 -22 46.5 -29.5t69.5 -7.5z" />
    <glyph glyph-name="uni0237.sc" horiz-adv-x="390" 
d="M56 -3h-58l15 79h45q71 0 101.5 26.5t41.5 85.5l88 456h89l-91 -466q-18 -94 -68.5 -137.5t-162.5 -43.5z" />
    <glyph glyph-name="exclam.sc" horiz-adv-x="259" 
d="M92 201l77 443h98l-105 -443h-70zM151 0h-118l18 118h118z" />
    <glyph glyph-name="exclamdown.sc" horiz-adv-x="259" 
d="M211 443l-77 -443h-98l105 443h70zM152 644h118l-18 -118h-118z" />
    <glyph glyph-name="germandbls.sc" horiz-adv-x="1168" 
d="M44 189h87q-1 -65 36 -97.5t106 -32.5q62 0 106.5 30t44.5 88q0 40 -20 61t-69 36l-77 24q-136 43 -136 163q0 90 63.5 141.5t163.5 50.5q98 -1 151 -47.5t47 -141.5h-84q3 53 -28.5 86t-95.5 33q-57 0 -94 -28.5t-37 -79.5q0 -37 19.5 -58.5t66.5 -35.5l77 -24
q78 -24 110 -61t32 -100q0 -94 -68 -151.5t-182 -57.5q-100 0 -162.5 50t-56.5 152zM628 189h87q-1 -65 36 -97.5t106 -32.5q62 0 106.5 30t44.5 88q0 40 -20 61t-69 36l-77 24q-136 43 -136 163q0 90 63.5 141.5t163.5 50.5q98 -1 151 -47.5t47 -141.5h-84q3 53 -28.5 86
t-95.5 33q-57 0 -94 -28.5t-37 -79.5q0 -37 19.5 -58.5t66.5 -35.5l77 -24q78 -24 110 -61t32 -100q0 -94 -68 -151.5t-182 -57.5q-100 0 -162.5 50t-56.5 152z" />
    <glyph glyph-name="question.sc" horiz-adv-x="653" 
d="M357 194h-77l7 42q5 30 19.5 47.5t41.5 36.5l77 53q31 22 47 47t16 64q0 41 -30.5 69.5t-81.5 28.5q-124 0 -133 -148h-80q0 38 11 74.5t34.5 70.5t67.5 54.5t103 20.5q93 0 142.5 -50t49.5 -112q0 -46 -15 -80.5t-35.5 -54.5t-57.5 -46l-49 -34q-5 -3 -14.5 -10t-12 -9
t-8.5 -6.5t-7.5 -7.5t-4.5 -8.5t-4.5 -11t-2.5 -13.5zM226 0l18 118h118l-18 -118h-118z" />
    <glyph glyph-name="questiondown.sc" horiz-adv-x="613" 
d="M297 450h77l-7 -42q-5 -30 -19.5 -47.5t-41.5 -36.5l-77 -53q-31 -22 -47 -47t-16 -64q0 -41 30.5 -69.5t81.5 -28.5q124 0 133 148h80q0 -38 -11 -74.5t-34.5 -70.5t-67.5 -54.5t-103 -20.5q-93 0 -142.5 50t-49.5 112q0 46 15 80.5t35.5 54.5t57.5 46l49 34
q5 3 14.5 10t12 9t8.5 6.5t7.5 7.5t4.5 8.5t4.5 11t2.5 13.5zM428 644l-18 -118h-118l18 118h118z" />
    <glyph glyph-name="quotedblleft.sc" horiz-adv-x="387" 
d="M409 644l-74 -220h-109l120 220h63zM246 644l-74 -220h-108l120 220h62z" />
    <glyph glyph-name="space.tab" horiz-adv-x="300" 
 />
    <glyph glyph-name="quoteleft.sc" horiz-adv-x="224" 
d="M246 644l-74 -220h-108l120 220h62z" />
    <glyph glyph-name="quoteright.sc" horiz-adv-x="224" 
d="M82 423l74 221h109l-120 -221h-63z" />
    <glyph glyph-name="Lslash.sc" horiz-adv-x="515" 
d="M41 0l46 238l-71 -25l15 81l72 25l63 325h89l-57 -291l217 76l-16 -81l-217 -76l-37 -192h308l-15 -80h-397z" />
    <glyph glyph-name="AEacute.sc" horiz-adv-x="892" 
d="M409 251l62 314h-38q-4 -6 -20 -32.5t-24 -38.5l-155 -243h175zM360 0l35 179h-207l-115 -179h-90l412 644h495l-15 -79h-316l-40 -202h293l-15 -78h-293l-41 -206h324l-15 -79h-412zM518 716l81 162h101l-117 -162h-65z" />
    <glyph glyph-name="Aacute.sc" horiz-adv-x="634" 
d="M370 557q0 -1 -2.5 -6t-6.5 -13.5t-9 -19.5t-12 -26t-15 -30l-109 -211h206l-38 210q-5 26 -8 50t-4 35v11h-2zM463 0l-29 179h-255l-93 -179h-92l341 644h104l117 -644h-93zM365 716l81 162h101l-117 -162h-65z" />
    <glyph glyph-name="Abreve.sc" horiz-adv-x="634" 
d="M370 557q0 -1 -2.5 -6t-6.5 -13.5t-9 -19.5t-12 -26t-15 -30l-109 -211h206l-38 210q-5 26 -8 50t-4 35v11h-2zM463 0l-29 179h-255l-93 -179h-92l341 644h104l117 -644h-93zM414 719q-68 0 -104 39.5t-20 119.5h65q-9 -45 8.5 -69t54.5 -24q81 0 100 93h67
q-16 -80 -62 -119.5t-109 -39.5z" />
    <glyph glyph-name="Acircumflex.sc" horiz-adv-x="634" 
d="M370 557q0 -1 -2.5 -6t-6.5 -13.5t-9 -19.5t-12 -26t-15 -30l-109 -211h206l-38 210q-5 26 -8 50t-4 35v11h-2zM463 0l-29 179h-255l-93 -179h-92l341 644h104l117 -644h-93zM476 878l66 -162h-78l-43 102l-79 -102h-82l123 162h93z" />
    <glyph glyph-name="Adieresis.sc" horiz-adv-x="634" 
d="M370 557q0 -1 -2.5 -6t-6.5 -13.5t-9 -19.5t-12 -26t-15 -30l-109 -211h206l-38 210q-5 26 -8 50t-4 35v11h-2zM463 0l-29 179h-255l-93 -179h-92l341 644h104l117 -644h-93zM456 736l19 99h90l-19 -99h-90zM264 736l19 99h90l-19 -99h-90z" />
    <glyph glyph-name="Agrave.sc" horiz-adv-x="634" 
d="M370 557q0 -1 -2.5 -6t-6.5 -13.5t-9 -19.5t-12 -26t-15 -30l-109 -211h206l-38 210q-5 26 -8 50t-4 35v11h-2zM463 0l-29 179h-255l-93 -179h-92l341 644h104l117 -644h-93zM368 878l70 -162h-65l-102 162h97z" />
    <glyph glyph-name="Amacron.sc" horiz-adv-x="634" 
d="M370 557q0 -1 -2.5 -6t-6.5 -13.5t-9 -19.5t-12 -26t-15 -30l-109 -211h206l-38 210q-5 26 -8 50t-4 35v11h-2zM463 0l-29 179h-255l-93 -179h-92l341 644h104l117 -644h-93zM262 736l14 73h286l-14 -73h-286z" />
    <glyph glyph-name="Aogonek.sc" horiz-adv-x="634" 
d="M370 557q0 -1 -2.5 -6t-6.5 -13.5t-9 -19.5t-12 -26t-15 -30l-109 -211h206l-38 210q-5 26 -8 50t-4 35v11h-2zM530 -126l-12 -62h-18q-53 0 -83.5 19t-30.5 56q0 38 28.5 68.5t70.5 44.5h-22l-29 179h-255l-93 -179h-92l341 644h104l117 -644q-83 -49 -83 -92
q0 -34 57 -34z" />
    <glyph glyph-name="Aring.sc" horiz-adv-x="634" 
d="M370 557q0 -1 -2.5 -6t-6.5 -13.5t-9 -19.5t-12 -26t-15 -30l-109 -211h206l-38 210q-5 26 -8 50t-4 35v11h-2zM463 0l-29 179h-255l-93 -179h-92l341 644h104l117 -644h-93zM414 714q-48 1 -75 28.5t-27 71.5q0 50 31.5 82t81.5 32t78 -27.5t28 -72.5q0 -53 -32 -83.5
t-85 -30.5zM426 882q-26 0 -41 -18t-15 -49q0 -24 12.5 -39.5t35.5 -15.5q26 0 41 18t15 49q0 24 -13 39t-35 16z" />
    <glyph glyph-name="uni01FA.sc" horiz-adv-x="634" 
d="M370 557q0 -1 -2.5 -6t-6.5 -13.5t-9 -19.5t-12 -26t-15 -30l-109 -211h206l-38 210q-5 26 -8 50t-4 35v11h-2zM463 0l-29 179h-255l-93 -179h-92l341 644h104l117 -644h-93zM414 714q-48 1 -75 28.5t-27 71.5q0 50 31.5 82t81.5 32t78 -27.5t28 -72.5q0 -53 -32 -83.5
t-85 -30.5zM426 882q-26 0 -41 -18t-15 -49q0 -24 12.5 -39.5t35.5 -15.5q26 0 41 18t15 49q0 24 -13 39t-35 16zM414 989l83 133h101l-117 -133h-67z" />
    <glyph glyph-name="Atilde.sc" horiz-adv-x="634" 
d="M370 557q0 -1 -2.5 -6t-6.5 -13.5t-9 -19.5t-12 -26t-15 -30l-109 -211h206l-38 210q-5 26 -8 50t-4 35v11h-2zM463 0l-29 179h-255l-93 -179h-92l341 644h104l117 -644h-93zM233 714q16 135 120 135q31 0 74 -30.5t58 -30.5q38 0 45 63h64q-16 -135 -120 -135
q-31 0 -74 30.5t-58 30.5q-38 0 -45 -63h-64z" />
    <glyph glyph-name="Cacute.sc" horiz-adv-x="645" 
d="M613 445h-88q2 65 -33 100t-94 35q-68 0 -119.5 -33.5t-79 -87.5t-40.5 -110.5t-13 -112.5q0 -75 39.5 -125t125.5 -51q73 0 118.5 40t61.5 106h90q-21 -103 -94.5 -161t-180.5 -58q-115 0 -182.5 67t-67.5 182q0 110 39.5 204t119.5 153.5t186 59.5q103 0 159.5 -51.5
t52.5 -156.5zM376 716l81 162h101l-117 -162h-65z" />
    <glyph glyph-name="Ccaron.sc" horiz-adv-x="645" 
d="M613 445h-88q2 65 -33 100t-94 35q-68 0 -119.5 -33.5t-79 -87.5t-40.5 -110.5t-13 -112.5q0 -75 39.5 -125t125.5 -51q73 0 118.5 40t61.5 106h90q-21 -103 -94.5 -161t-180.5 -58q-115 0 -182.5 67t-67.5 182q0 110 39.5 204t119.5 153.5t186 59.5q103 0 159.5 -51.5
t52.5 -156.5zM367 716l-66 162h78l43 -102l79 102h82l-123 -162h-93z" />
    <glyph glyph-name="Ccedilla.sc" horiz-adv-x="645" 
d="M269 -212q-34 0 -57 16.5t-23 49.5h56q4 -22 28 -22q37 0 37 38q0 33 -27 33q-18 0 -29 -11h-58l61 99q-94 14 -147.5 78.5t-53.5 166.5q0 110 39.5 204t119.5 153.5t186 59.5q103 0 159.5 -51.5t52.5 -156.5h-88q2 65 -33 100t-94 35q-68 0 -119.5 -33.5t-79 -87.5
t-40.5 -110.5t-13 -112.5q0 -75 39.5 -125t125.5 -51q73 0 118.5 40t61.5 106h90q-21 -103 -94.5 -161t-180.5 -58h-3l-31 -50h2q11 6 34 6q27 0 43.5 -19t16.5 -48q0 -39 -27 -63.5t-72 -24.5z" />
    <glyph glyph-name="Ccircumflex.sc" horiz-adv-x="645" 
d="M613 445h-88q2 65 -33 100t-94 35q-68 0 -119.5 -33.5t-79 -87.5t-40.5 -110.5t-13 -112.5q0 -75 39.5 -125t125.5 -51q73 0 118.5 40t61.5 106h90q-21 -103 -94.5 -161t-180.5 -58q-115 0 -182.5 67t-67.5 182q0 110 39.5 204t119.5 153.5t186 59.5q103 0 159.5 -51.5
t52.5 -156.5zM487 878l66 -162h-78l-43 102l-79 -102h-82l123 162h93z" />
    <glyph glyph-name="Cdotaccent.sc" horiz-adv-x="645" 
d="M613 445h-88q2 65 -33 100t-94 35q-68 0 -119.5 -33.5t-79 -87.5t-40.5 -110.5t-13 -112.5q0 -75 39.5 -125t125.5 -51q73 0 118.5 40t61.5 106h90q-21 -103 -94.5 -161t-180.5 -58q-115 0 -182.5 67t-67.5 182q0 110 39.5 204t119.5 153.5t186 59.5q103 0 159.5 -51.5
t52.5 -156.5zM369 736l19 99h93l-19 -99h-93z" />
    <glyph glyph-name="Dcaron.sc" horiz-adv-x="658" 
d="M40 0l125 644h189q117 0 191.5 -60.5t74.5 -181.5q0 -177 -94.5 -289.5t-275.5 -112.5h-210zM141 75h131q64 0 113 26t75 63t42.5 85t21 83.5t4.5 66.5q0 88 -48.5 129t-133.5 41h-106zM346 716l-66 162h78l43 -102l79 102h82l-123 -162h-93z" />
    <glyph glyph-name="Eacute.sc" horiz-adv-x="572" 
d="M40 0l126 644h404l-14 -77h-316l-40 -205h292l-14 -76h-293l-41 -209h323l-15 -77h-412zM345 716l81 162h101l-117 -162h-65z" />
    <glyph glyph-name="Ecaron.sc" horiz-adv-x="572" 
d="M40 0l126 644h404l-14 -77h-316l-40 -205h292l-14 -76h-293l-41 -209h323l-15 -77h-412zM337 716l-66 162h78l43 -102l79 102h82l-123 -162h-93z" />
    <glyph glyph-name="Ecircumflex.sc" horiz-adv-x="572" 
d="M40 0l126 644h404l-14 -77h-316l-40 -205h292l-14 -76h-293l-41 -209h323l-15 -77h-412zM456 878l66 -162h-78l-43 102l-79 -102h-82l123 162h93z" />
    <glyph glyph-name="Edieresis.sc" horiz-adv-x="572" 
d="M40 0l126 644h404l-14 -77h-316l-40 -205h292l-14 -76h-293l-41 -209h323l-15 -77h-412zM436 736l19 99h90l-19 -99h-90zM244 736l19 99h90l-19 -99h-90z" />
    <glyph glyph-name="Edotaccent.sc" horiz-adv-x="572" 
d="M40 0l126 644h404l-14 -77h-316l-40 -205h292l-14 -76h-293l-41 -209h323l-15 -77h-412zM339 736l19 99h93l-19 -99h-93z" />
    <glyph glyph-name="Egrave.sc" horiz-adv-x="572" 
d="M40 0l126 644h404l-14 -77h-316l-40 -205h292l-14 -76h-293l-41 -209h323l-15 -77h-412zM348 878l70 -162h-65l-102 162h97z" />
    <glyph glyph-name="Emacron.sc" horiz-adv-x="572" 
d="M40 0l126 644h404l-14 -77h-316l-40 -205h292l-14 -76h-293l-41 -209h323l-15 -77h-412zM242 736l14 73h286l-14 -73h-286z" />
    <glyph glyph-name="Eogonek.sc" horiz-adv-x="572" 
d="M415 -188h-18q-53 0 -83.5 19t-30.5 56q0 38 28.5 68.5t70.5 44.5h-342l126 644h404l-14 -77h-316l-40 -205h292l-14 -76h-293l-41 -209h323l-15 -77q-82 -49 -82 -92q0 -34 57 -34z" />
    <glyph glyph-name="Gbreve.sc" horiz-adv-x="669" 
d="M618 466h-86q-1 54 -33.5 85.5t-92.5 31.5q-59 0 -106.5 -25t-75 -62t-46 -85.5t-25 -90.5t-6.5 -82q0 -76 38.5 -127t122.5 -51q85 0 142.5 54.5t71.5 128.5l3 16h-182l15 71h263l-64 -330h-75l20 101h-3q-65 -114 -203 -114q-119 0 -180 70.5t-61 180.5q0 56 12 112.5
t39.5 111.5t68 97t102 68t136.5 26q98 0 151.5 -46.5t53.5 -140.5zM441 719q-68 0 -104 39.5t-20 119.5h65q-9 -45 8.5 -69t54.5 -24q81 0 100 93h67q-16 -80 -62 -119.5t-109 -39.5z" />
    <glyph glyph-name="Gcircumflex.sc" horiz-adv-x="669" 
d="M618 466h-86q-1 54 -33.5 85.5t-92.5 31.5q-59 0 -106.5 -25t-75 -62t-46 -85.5t-25 -90.5t-6.5 -82q0 -76 38.5 -127t122.5 -51q85 0 142.5 54.5t71.5 128.5l3 16h-182l15 71h263l-64 -330h-75l20 101h-3q-65 -114 -203 -114q-119 0 -180 70.5t-61 180.5q0 56 12 112.5
t39.5 111.5t68 97t102 68t136.5 26q98 0 151.5 -46.5t53.5 -140.5zM504 878l66 -162h-78l-43 102l-79 -102h-82l123 162h93z" />
    <glyph glyph-name="Gcommaaccent.sc" horiz-adv-x="669" 
d="M618 466h-86q-1 54 -33.5 85.5t-92.5 31.5q-59 0 -106.5 -25t-75 -62t-46 -85.5t-25 -90.5t-6.5 -82q0 -76 38.5 -127t122.5 -51q85 0 142.5 54.5t71.5 128.5l3 16h-182l15 71h263l-64 -330h-75l20 101h-3q-65 -114 -203 -114q-119 0 -180 70.5t-61 180.5q0 56 12 112.5
t39.5 111.5t68 97t102 68t136.5 26q98 0 151.5 -46.5t53.5 -140.5zM183 -206l49 137h95l-88 -137h-56z" />
    <glyph glyph-name="Gdotaccent.sc" horiz-adv-x="669" 
d="M618 466h-86q-1 54 -33.5 85.5t-92.5 31.5q-59 0 -106.5 -25t-75 -62t-46 -85.5t-25 -90.5t-6.5 -82q0 -76 38.5 -127t122.5 -51q85 0 142.5 54.5t71.5 128.5l3 16h-182l15 71h263l-64 -330h-75l20 101h-3q-65 -114 -203 -114q-119 0 -180 70.5t-61 180.5q0 56 12 112.5
t39.5 111.5t68 97t102 68t136.5 26q98 0 151.5 -46.5t53.5 -140.5zM386 736l19 99h93l-19 -99h-93z" />
    <glyph glyph-name="Hcircumflex.sc" horiz-adv-x="673" 
d="M184 287l-56 -287h-88l125 644h89l-55 -282h313l55 282h89l-126 -644h-89l56 287h-313zM499 878l66 -162h-78l-43 102l-79 -102h-82l123 162h93z" />
    <glyph glyph-name="Iacute.sc" horiz-adv-x="271" 
d="M40 0l125 644h89l-126 -644h-88zM187 716l81 162h101l-117 -162h-65z" />
    <glyph glyph-name="questiondown.uc" horiz-adv-x="549" 
d="M288 538h83l-12 -64q-9 -49 -27 -71t-76 -61l-50 -35q-84 -57 -84 -145q0 -54 33 -86.5t90 -32.5q76 0 116 45.5t49 137.5h87q-7 -124 -75.5 -191t-180.5 -67q-98 0 -153.5 53t-55.5 133q0 43 11.5 78.5t34 62.5t42.5 44t49 38l44 31q6 4 18 12.5t14.5 10.5t9.5 8t8.5 9
t5.5 10t5.5 13.5t3.5 17.5zM426 765l-22 -118h-115l22 118h115z" />
    <glyph glyph-name="Icircumflex.sc" horiz-adv-x="271" 
d="M40 0l125 644h89l-126 -644h-88zM298 878l66 -162h-78l-43 102l-79 -102h-82l123 162h93z" />
    <glyph glyph-name="Idieresis.sc" horiz-adv-x="271" 
d="M40 0l125 644h89l-126 -644h-88zM278 736l19 99h90l-19 -99h-90zM86 736l19 99h90l-19 -99h-90z" />
    <glyph glyph-name="Igrave.sc" horiz-adv-x="271" 
d="M40 0l125 644h89l-126 -644h-88zM190 878l70 -162h-65l-102 162h97z" />
    <glyph glyph-name="Imacron.sc" horiz-adv-x="271" 
d="M40 0l125 644h89l-126 -644h-88zM84 736l14 73h286l-14 -73h-286z" />
    <glyph glyph-name="Iogonek.sc" horiz-adv-x="271" 
d="M91 -188h-18q-53 0 -83.5 19t-30.5 56q0 38 28.5 68.5t70.5 44.5h-18l125 644h89l-126 -644q-82 -49 -82 -92q0 -34 57 -34z" />
    <glyph glyph-name="Itilde.sc" horiz-adv-x="271" 
d="M40 0l125 644h89l-126 -644h-88zM55 714q16 135 120 135q31 0 74 -30.5t58 -30.5q38 0 45 63h64q-16 -135 -120 -135q-31 0 -74 30.5t-58 30.5q-38 0 -45 -63h-64z" />
    <glyph glyph-name="Jcircumflex.sc" horiz-adv-x="390" 
d="M56 -3h-58l15 79h45q71 0 101.5 26.5t41.5 85.5l88 456h89l-91 -466q-18 -94 -68.5 -137.5t-162.5 -43.5zM422 878l66 -162h-78l-43 102l-79 -102h-82l123 162h93z" />
    <glyph glyph-name="Kcommaaccent.sc" horiz-adv-x="609" 
d="M165 184l-36 -184h-89l126 644h89l-67 -341l340 341h109l-283 -281l191 -363h-96l-163 304zM169 -206l49 137h95l-88 -137h-56z" />
    <glyph glyph-name="Lacute.sc" horiz-adv-x="515" 
d="M40 0l126 644h89l-110 -564h307l-15 -80h-397zM201 741l81 162h101l-117 -162h-65z" />
    <glyph glyph-name="Lcaron.sc" horiz-adv-x="515" 
d="M40 0l126 644h89l-110 -564h307l-15 -80h-397zM312 482l48 162h84l-77 -162h-55z" />
    <glyph glyph-name="Lcommaaccent.sc" horiz-adv-x="515" 
d="M40 0l126 644h89l-110 -564h307l-15 -80h-397zM137 -206l49 137h95l-88 -137h-56z" />
    <glyph glyph-name="Nacute.sc" horiz-adv-x="677" 
d="M40 0l126 644h103l179 -451q8 -19 13 -37.5t7 -27.5l1 -8h2l105 524h84l-126 -644h-101l-180 453l-23 72h-2l-104 -525h-84zM390 716l81 162h101l-117 -162h-65z" />
    <glyph glyph-name="Ncaron.sc" horiz-adv-x="677" 
d="M40 0l126 644h103l179 -451q8 -19 13 -37.5t7 -27.5l1 -8h2l105 524h84l-126 -644h-101l-180 453l-23 72h-2l-104 -525h-84zM382 716l-66 162h78l43 -102l79 102h82l-123 -162h-93z" />
    <glyph glyph-name="Ncommaaccent.sc" horiz-adv-x="677" 
d="M40 0l126 644h103l179 -451q8 -19 13 -37.5t7 -27.5l1 -8h2l105 524h84l-126 -644h-101l-180 453l-23 72h-2l-104 -525h-84zM181 -206l49 137h95l-88 -137h-56z" />
    <glyph glyph-name="Ntilde.sc" horiz-adv-x="677" 
d="M40 0l126 644h103l179 -451q8 -19 13 -37.5t7 -27.5l1 -8h2l105 524h84l-126 -644h-101l-180 453l-23 72h-2l-104 -525h-84zM258 714q16 135 120 135q31 0 74 -30.5t58 -30.5q38 0 45 63h64q-16 -135 -120 -135q-31 0 -74 30.5t-58 30.5q-38 0 -45 -63h-64z" />
    <glyph glyph-name="Oacute.sc" horiz-adv-x="687" 
d="M63 226q0 66 12.5 127t39.5 116t65.5 95.5t94 64.5t122.5 24q115 0 182 -65.5t67 -172.5q0 -83 -20.5 -158.5t-60 -136.5t-105 -97t-147.5 -36q-114 0 -182 65t-68 174zM554 413q0 74 -41 120.5t-122 46.5q-53 0 -95 -23t-67.5 -59.5t-43 -84.5t-24 -94t-6.5 -93
q0 -73 40.5 -119.5t124.5 -46.5q52 0 93.5 23.5t67 60t42.5 85t24 94t7 90.5zM393 716l81 162h101l-117 -162h-65z" />
    <glyph glyph-name="Obreve.sc" horiz-adv-x="687" 
d="M63 226q0 66 12.5 127t39.5 116t65.5 95.5t94 64.5t122.5 24q115 0 182 -65.5t67 -172.5q0 -83 -20.5 -158.5t-60 -136.5t-105 -97t-147.5 -36q-114 0 -182 65t-68 174zM554 413q0 74 -41 120.5t-122 46.5q-53 0 -95 -23t-67.5 -59.5t-43 -84.5t-24 -94t-6.5 -93
q0 -73 40.5 -119.5t124.5 -46.5q52 0 93.5 23.5t67 60t42.5 85t24 94t7 90.5zM441 719q-68 0 -104 39.5t-20 119.5h65q-9 -45 8.5 -69t54.5 -24q81 0 100 93h67q-16 -80 -62 -119.5t-109 -39.5z" />
    <glyph glyph-name="Ocircumflex.sc" horiz-adv-x="687" 
d="M63 226q0 66 12.5 127t39.5 116t65.5 95.5t94 64.5t122.5 24q115 0 182 -65.5t67 -172.5q0 -83 -20.5 -158.5t-60 -136.5t-105 -97t-147.5 -36q-114 0 -182 65t-68 174zM554 413q0 74 -41 120.5t-122 46.5q-53 0 -95 -23t-67.5 -59.5t-43 -84.5t-24 -94t-6.5 -93
q0 -73 40.5 -119.5t124.5 -46.5q52 0 93.5 23.5t67 60t42.5 85t24 94t7 90.5zM504 878l66 -162h-78l-43 102l-79 -102h-82l123 162h93z" />
    <glyph glyph-name="Odieresis.sc" horiz-adv-x="687" 
d="M63 226q0 66 12.5 127t39.5 116t65.5 95.5t94 64.5t122.5 24q115 0 182 -65.5t67 -172.5q0 -83 -20.5 -158.5t-60 -136.5t-105 -97t-147.5 -36q-114 0 -182 65t-68 174zM554 413q0 74 -41 120.5t-122 46.5q-53 0 -95 -23t-67.5 -59.5t-43 -84.5t-24 -94t-6.5 -93
q0 -73 40.5 -119.5t124.5 -46.5q52 0 93.5 23.5t67 60t42.5 85t24 94t7 90.5zM483 736l19 99h90l-19 -99h-90zM291 736l19 99h90l-19 -99h-90z" />
    <glyph glyph-name="Ograve.sc" horiz-adv-x="687" 
d="M63 226q0 66 12.5 127t39.5 116t65.5 95.5t94 64.5t122.5 24q115 0 182 -65.5t67 -172.5q0 -83 -20.5 -158.5t-60 -136.5t-105 -97t-147.5 -36q-114 0 -182 65t-68 174zM554 413q0 74 -41 120.5t-122 46.5q-53 0 -95 -23t-67.5 -59.5t-43 -84.5t-24 -94t-6.5 -93
q0 -73 40.5 -119.5t124.5 -46.5q52 0 93.5 23.5t67 60t42.5 85t24 94t7 90.5zM395 878l70 -162h-65l-102 162h97z" />
    <glyph glyph-name="Ohungarumlaut.sc" horiz-adv-x="687" 
d="M63 226q0 66 12.5 127t39.5 116t65.5 95.5t94 64.5t122.5 24q115 0 182 -65.5t67 -172.5q0 -83 -20.5 -158.5t-60 -136.5t-105 -97t-147.5 -36q-114 0 -182 65t-68 174zM554 413q0 74 -41 120.5t-122 46.5q-53 0 -95 -23t-67.5 -59.5t-43 -84.5t-24 -94t-6.5 -93
q0 -73 40.5 -119.5t124.5 -46.5q52 0 93.5 23.5t67 60t42.5 85t24 94t7 90.5zM448 716l84 162h89l-117 -162h-56zM311 716l84 162h89l-117 -162h-56z" />
    <glyph glyph-name="Omacron.sc" horiz-adv-x="687" 
d="M63 226q0 66 12.5 127t39.5 116t65.5 95.5t94 64.5t122.5 24q115 0 182 -65.5t67 -172.5q0 -83 -20.5 -158.5t-60 -136.5t-105 -97t-147.5 -36q-114 0 -182 65t-68 174zM554 413q0 74 -41 120.5t-122 46.5q-53 0 -95 -23t-67.5 -59.5t-43 -84.5t-24 -94t-6.5 -93
q0 -73 40.5 -119.5t124.5 -46.5q52 0 93.5 23.5t67 60t42.5 85t24 94t7 90.5zM290 736l14 73h286l-14 -73h-286z" />
    <glyph glyph-name="Oslashacute.sc" horiz-adv-x="687" 
d="M395 582q-65 0 -114 -33.5t-75.5 -89t-39 -115.5t-12.5 -123q0 -28 6 -52l355 367q-41 46 -120 46zM318 59q64 0 112.5 34.5t74.5 90.5t38.5 114t12.5 116q0 40 -11 69l-358 -371q40 -53 131 -53zM646 415q0 -83 -20.5 -158.5t-60 -136.5t-105 -97t-147.5 -36
q-115 0 -183 66l-73 -75h-81l118 122q-31 54 -31 126q0 66 12.5 127t39.5 116t65.5 95.5t94 64.5t122.5 24q108 0 174 -58l67 69h82l-110 -114q36 -58 36 -135zM385 716l81 162h101l-117 -162h-65z" />
    <glyph glyph-name="Otilde.sc" horiz-adv-x="687" 
d="M63 226q0 66 12.5 127t39.5 116t65.5 95.5t94 64.5t122.5 24q115 0 182 -65.5t67 -172.5q0 -83 -20.5 -158.5t-60 -136.5t-105 -97t-147.5 -36q-114 0 -182 65t-68 174zM554 413q0 74 -41 120.5t-122 46.5q-53 0 -95 -23t-67.5 -59.5t-43 -84.5t-24 -94t-6.5 -93
q0 -73 40.5 -119.5t124.5 -46.5q52 0 93.5 23.5t67 60t42.5 85t24 94t7 90.5zM261 714q16 135 120 135q31 0 74 -30.5t58 -30.5q38 0 45 63h64q-16 -135 -120 -135q-31 0 -74 30.5t-58 30.5q-38 0 -45 -63h-64z" />
    <glyph glyph-name="Racute.sc" horiz-adv-x="599" 
d="M194 339h144q64 0 99 35t35 101q0 96 -110 96h-124zM179 266l-51 -266h-88l125 644h207q84 0 131 -34q60 -40 60 -133q0 -73 -41.5 -128t-121.5 -73v-3l109 -273h-91l-104 266h-135zM323 716l81 162h101l-117 -162h-65z" />
    <glyph glyph-name="Rcaron.sc" horiz-adv-x="599" 
d="M194 339h144q64 0 99 35t35 101q0 96 -110 96h-124zM179 266l-51 -266h-88l125 644h207q84 0 131 -34q60 -40 60 -133q0 -73 -41.5 -128t-121.5 -73v-3l109 -273h-91l-104 266h-135zM315 716l-66 162h78l43 -102l79 102h82l-123 -162h-93z" />
    <glyph glyph-name="Rcommaaccent.sc" horiz-adv-x="599" 
d="M194 339h144q64 0 99 35t35 101q0 96 -110 96h-124zM179 266l-51 -266h-88l125 644h207q84 0 131 -34q60 -40 60 -133q0 -73 -41.5 -128t-121.5 -73v-3l109 -273h-91l-104 266h-135zM168 -206l49 137h95l-88 -137h-56z" />
    <glyph glyph-name="Sacute.sc" horiz-adv-x="584" 
d="M44 189h87q-1 -65 36 -97.5t106 -32.5q62 0 106.5 30t44.5 88q0 40 -20 61t-69 36l-77 24q-136 43 -136 163q0 90 63.5 141.5t163.5 50.5q98 -1 151 -47.5t47 -141.5h-84q3 53 -28.5 86t-95.5 33q-57 0 -94 -28.5t-37 -79.5q0 -37 19.5 -58.5t66.5 -35.5l77 -24
q78 -24 110 -61t32 -100q0 -94 -68 -151.5t-182 -57.5q-100 0 -162.5 50t-56.5 152zM336 716l81 162h101l-117 -162h-65z" />
    <glyph glyph-name="Scaron.sc" horiz-adv-x="584" 
d="M44 189h87q-1 -65 36 -97.5t106 -32.5q62 0 106.5 30t44.5 88q0 40 -20 61t-69 36l-77 24q-136 43 -136 163q0 90 63.5 141.5t163.5 50.5q98 -1 151 -47.5t47 -141.5h-84q3 53 -28.5 86t-95.5 33q-57 0 -94 -28.5t-37 -79.5q0 -37 19.5 -58.5t66.5 -35.5l77 -24
q78 -24 110 -61t32 -100q0 -94 -68 -151.5t-182 -57.5q-100 0 -162.5 50t-56.5 152zM327 716l-66 162h78l43 -102l79 102h82l-123 -162h-93z" />
    <glyph glyph-name="Scedilla.sc" horiz-adv-x="584" 
d="M229 -212q-34 0 -57 16.5t-23 49.5h56q4 -22 28 -22q37 0 37 38q0 33 -27 33q-18 0 -29 -11h-58l60 98q-81 10 -129 59.5t-43 139.5h87q-1 -65 36 -97.5t106 -32.5q62 0 106.5 30t44.5 88q0 40 -20 61t-69 36l-77 24q-136 43 -136 163q0 90 63.5 141.5t163.5 50.5
q98 -1 151 -47.5t47 -141.5h-84q3 53 -28.5 86t-95.5 33q-57 0 -94 -28.5t-37 -79.5q0 -37 19.5 -58.5t66.5 -35.5l77 -24q78 -24 110 -61t32 -100q0 -94 -68 -151.5t-182 -57.5l-31 -50h2q11 6 34 6q27 0 43.5 -19t16.5 -48q0 -39 -27 -63.5t-72 -24.5z" />
    <glyph glyph-name="Scircumflex.sc" horiz-adv-x="584" 
d="M44 189h87q-1 -65 36 -97.5t106 -32.5q62 0 106.5 30t44.5 88q0 40 -20 61t-69 36l-77 24q-136 43 -136 163q0 90 63.5 141.5t163.5 50.5q98 -1 151 -47.5t47 -141.5h-84q3 53 -28.5 86t-95.5 33q-57 0 -94 -28.5t-37 -79.5q0 -37 19.5 -58.5t66.5 -35.5l77 -24
q78 -24 110 -61t32 -100q0 -94 -68 -151.5t-182 -57.5q-100 0 -162.5 50t-56.5 152zM447 878l66 -162h-78l-43 102l-79 -102h-82l123 162h93z" />
    <glyph glyph-name="Scommaaccent.sc" horiz-adv-x="584" 
d="M44 189h87q-1 -65 36 -97.5t106 -32.5q62 0 106.5 30t44.5 88q0 40 -20 61t-69 36l-77 24q-136 43 -136 163q0 90 63.5 141.5t163.5 50.5q98 -1 151 -47.5t47 -141.5h-84q3 53 -28.5 86t-95.5 33q-57 0 -94 -28.5t-37 -79.5q0 -37 19.5 -58.5t66.5 -35.5l77 -24
q78 -24 110 -61t32 -100q0 -94 -68 -151.5t-182 -57.5q-100 0 -162.5 50t-56.5 152zM140 -206l49 137h95l-88 -137h-56z" />
    <glyph glyph-name="Tcaron.sc" horiz-adv-x="564" 
d="M386 567l-111 -567h-89l111 567h-208l14 77h506l-14 -77h-209zM325 716l-66 162h78l43 -102l79 102h82l-123 -162h-93z" />
    <glyph glyph-name="Tcommaaccent.sc" horiz-adv-x="564" 
d="M386 567l-111 -567h-89l111 567h-208l14 77h506l-14 -77h-209zM124 -206l49 137h95l-88 -137h-56z" />
    <glyph glyph-name="Uacute.sc" horiz-adv-x="648" 
d="M82 247l77 397h90l-72 -369q-23 -121 3 -162q32 -50 120 -50q82 0 130 48q6 6 11.5 13.5t9.5 14t8 17t6 16.5t5 19t4.5 18.5t4.5 21t4 20.5l76 393h89l-86 -437q-22 -113 -87 -166.5t-180 -53.5q-122 0 -180.5 63t-32.5 197zM376 716l81 162h101l-117 -162h-65z" />
    <glyph glyph-name="Ubreve.sc" horiz-adv-x="648" 
d="M82 247l77 397h90l-72 -369q-23 -121 3 -162q32 -50 120 -50q82 0 130 48q6 6 11.5 13.5t9.5 14t8 17t6 16.5t5 19t4.5 18.5t4.5 21t4 20.5l76 393h89l-86 -437q-22 -113 -87 -166.5t-180 -53.5q-122 0 -180.5 63t-32.5 197zM424 719q-68 0 -104 39.5t-20 119.5h65
q-9 -45 8.5 -69t54.5 -24q80 0 100 93h67q-16 -80 -62 -119.5t-109 -39.5z" />
    <glyph glyph-name="Ucircumflex.sc" horiz-adv-x="648" 
d="M82 247l77 397h90l-72 -369q-23 -121 3 -162q32 -50 120 -50q82 0 130 48q6 6 11.5 13.5t9.5 14t8 17t6 16.5t5 19t4.5 18.5t4.5 21t4 20.5l76 393h89l-86 -437q-22 -113 -87 -166.5t-180 -53.5q-122 0 -180.5 63t-32.5 197zM487 878l66 -162h-78l-43 102l-79 -102h-82
l123 162h93z" />
    <glyph glyph-name="Udieresis.sc" horiz-adv-x="648" 
d="M82 247l77 397h90l-72 -369q-23 -121 3 -162q32 -50 120 -50q82 0 130 48q6 6 11.5 13.5t9.5 14t8 17t6 16.5t5 19t4.5 18.5t4.5 21t4 20.5l76 393h89l-86 -437q-22 -113 -87 -166.5t-180 -53.5q-122 0 -180.5 63t-32.5 197zM466 736l19 99h90l-19 -99h-90zM274 736
l19 99h90l-19 -99h-90z" />
    <glyph glyph-name="Ugrave.sc" horiz-adv-x="648" 
d="M82 247l77 397h90l-72 -369q-23 -121 3 -162q32 -50 120 -50q82 0 130 48q6 6 11.5 13.5t9.5 14t8 17t6 16.5t5 19t4.5 18.5t4.5 21t4 20.5l76 393h89l-86 -437q-22 -113 -87 -166.5t-180 -53.5q-122 0 -180.5 63t-32.5 197zM378 878l70 -162h-65l-102 162h97z" />
    <glyph glyph-name="Uhungarumlaut.sc" horiz-adv-x="648" 
d="M82 247l77 397h90l-72 -369q-23 -121 3 -162q32 -50 120 -50q82 0 130 48q6 6 11.5 13.5t9.5 14t8 17t6 16.5t5 19t4.5 18.5t4.5 21t4 20.5l76 393h89l-86 -437q-22 -113 -87 -166.5t-180 -53.5q-122 0 -180.5 63t-32.5 197zM431 716l84 162h89l-117 -162h-56zM294 716
l84 162h89l-117 -162h-56z" />
    <glyph glyph-name="Umacron.sc" horiz-adv-x="648" 
d="M82 247l77 397h90l-72 -369q-23 -121 3 -162q32 -50 120 -50q82 0 130 48q6 6 11.5 13.5t9.5 14t8 17t6 16.5t5 19t4.5 18.5t4.5 21t4 20.5l76 393h89l-86 -437q-22 -113 -87 -166.5t-180 -53.5q-122 0 -180.5 63t-32.5 197zM273 736l14 73h286l-14 -73h-286z" />
    <glyph glyph-name="Uogonek.sc" horiz-adv-x="648" 
d="M301 -188h-18q-53 0 -83.5 19t-30.5 56q0 65 76 100v3q-97 12 -142 75t-21 182l77 397h90l-72 -369q-23 -121 3 -162q32 -50 120 -50q82 0 130 48q6 6 11.5 13.5t9.5 14t8 17t6 16.5t5 19t4.5 18.5t4.5 21t4 20.5l76 393h89l-86 -437q-20 -101 -70.5 -151t-130.5 -64
q-105 -18 -105 -77q0 -41 57 -41z" />
    <glyph glyph-name="Uring.sc" horiz-adv-x="648" 
d="M82 247l77 397h90l-72 -369q-23 -121 3 -162q32 -50 120 -50q82 0 130 48q6 6 11.5 13.5t9.5 14t8 17t6 16.5t5 19t4.5 18.5t4.5 21t4 20.5l76 393h89l-86 -437q-22 -113 -87 -166.5t-180 -53.5q-122 0 -180.5 63t-32.5 197zM424 714q-48 1 -75 28.5t-27 71.5
q0 50 31.5 82t81.5 32t78 -27.5t28 -72.5q0 -53 -32 -83.5t-85 -30.5zM436 882q-26 0 -41 -18t-15 -49q0 -24 12.5 -39.5t35.5 -15.5q26 0 41 18t15 49q0 24 -13 39t-35 16z" />
    <glyph glyph-name="Utilde.sc" horiz-adv-x="648" 
d="M82 247l77 397h90l-72 -369q-23 -121 3 -162q32 -50 120 -50q82 0 130 48q6 6 11.5 13.5t9.5 14t8 17t6 16.5t5 19t4.5 18.5t4.5 21t4 20.5l76 393h89l-86 -437q-22 -113 -87 -166.5t-180 -53.5q-122 0 -180.5 63t-32.5 197zM244 714q16 135 120 135q31 0 74 -30.5
t58 -30.5q38 0 45 63h64q-16 -135 -120 -135q-31 0 -74 30.5t-58 30.5q-38 0 -45 -63h-64z" />
    <glyph glyph-name="Wacute.sc" horiz-adv-x="885" 
d="M250 0h-96l-54 644h87l31 -421l2 -116h2q11 42 41 105l202 432h95l34 -421l3 -116h2q11 41 40 105l198 432h88l-298 -644h-96l-35 419q-3 33 -3.5 62t-0.5 41l1 12h-3q-15 -48 -44 -112zM489 716l81 162h101l-117 -162h-65z" />
    <glyph glyph-name="Wcircumflex.sc" horiz-adv-x="885" 
d="M250 0h-96l-54 644h87l31 -421l2 -116h2q11 42 41 105l202 432h95l34 -421l3 -116h2q11 41 40 105l198 432h88l-298 -644h-96l-35 419q-3 33 -3.5 62t-0.5 41l1 12h-3q-15 -48 -44 -112zM600 878l66 -162h-78l-43 102l-79 -102h-82l123 162h93z" />
    <glyph glyph-name="Wdieresis.sc" horiz-adv-x="885" 
d="M250 0h-96l-54 644h87l31 -421l2 -116h2q11 42 41 105l202 432h95l34 -421l3 -116h2q11 41 40 105l198 432h88l-298 -644h-96l-35 419q-3 33 -3.5 62t-0.5 41l1 12h-3q-15 -48 -44 -112zM580 736l19 99h90l-19 -99h-90zM388 736l19 99h90l-19 -99h-90z" />
    <glyph glyph-name="Wgrave.sc" horiz-adv-x="885" 
d="M250 0h-96l-54 644h87l31 -421l2 -116h2q11 42 41 105l202 432h95l34 -421l3 -116h2q11 41 40 105l198 432h88l-298 -644h-96l-35 419q-3 33 -3.5 62t-0.5 41l1 12h-3q-15 -48 -44 -112zM492 878l70 -162h-65l-102 162h97z" />
    <glyph glyph-name="Yacute.sc" horiz-adv-x="577" 
d="M188 0l56 285l-146 359h91l111 -288h2l222 288h95l-288 -364l-54 -280h-89zM337 716l81 162h101l-117 -162h-65z" />
    <glyph glyph-name="Ycircumflex.sc" horiz-adv-x="577" 
d="M188 0l56 285l-146 359h91l111 -288h2l222 288h95l-288 -364l-54 -280h-89zM448 878l66 -162h-78l-43 102l-79 -102h-82l123 162h93z" />
    <glyph glyph-name="Ydieresis.sc" horiz-adv-x="577" 
d="M188 0l56 285l-146 359h91l111 -288h2l222 288h95l-288 -364l-54 -280h-89zM428 736l19 99h90l-19 -99h-90zM236 736l19 99h90l-19 -99h-90z" />
    <glyph glyph-name="Ygrave.sc" horiz-adv-x="577" 
d="M188 0l56 285l-146 359h91l111 -288h2l222 288h95l-288 -364l-54 -280h-89zM340 878l70 -162h-65l-102 162h97z" />
    <glyph glyph-name="Zacute.sc" horiz-adv-x="570" 
d="M127 567l15 77h447l-11 -63l-447 -504h355l-14 -77h-467l12 65l445 502h-335zM337 716l81 162h101l-117 -162h-65z" />
    <glyph glyph-name="Zcaron.sc" horiz-adv-x="570" 
d="M127 567l15 77h447l-11 -63l-447 -504h355l-14 -77h-467l12 65l445 502h-335zM329 716l-66 162h78l43 -102l79 102h82l-123 -162h-93z" />
    <glyph glyph-name="Zdotaccent.sc" horiz-adv-x="570" 
d="M127 567l15 77h447l-11 -63l-447 -504h355l-14 -77h-467l12 65l445 502h-335zM331 736l19 99h93l-19 -99h-93z" />
    <glyph glyph-name="Ldot.sc" horiz-adv-x="515" 
d="M347 287l20 106h104l-20 -106h-104zM40 0l126 644h89l-110 -564h307l-15 -80h-397z" />
    <glyph glyph-name="napostrophe.sc" horiz-adv-x="677" 
d="M40 0l126 644h103l179 -451q8 -19 13 -37.5t7 -27.5l1 -8h2l105 524h84l-126 -644h-101l-180 453l-23 72h-2l-104 -525h-84z" />
    <glyph glyph-name="Hbar.sc" horiz-adv-x="673" 
d="M512 362l23 116h-313l-23 -116h313zM184 287l-56 -287h-88l93 478h-75l12 63h75l20 103h89l-20 -103h313l20 103h89l-20 -103h73l-12 -63h-73l-94 -478h-89l56 287h-313z" />
    <glyph glyph-name="Idotaccent.sc" horiz-adv-x="271" 
d="M40 0l125 644h89l-126 -644h-88zM179 736l19 99h93l-19 -99h-93z" />
    <glyph glyph-name="Ebreve.sc" horiz-adv-x="572" 
d="M40 0l126 644h404l-14 -77h-316l-40 -205h292l-14 -76h-293l-41 -209h323l-15 -77h-412zM383 719q-68 0 -104 39.5t-20 119.5h65q-9 -45 8.5 -69t54.5 -24q81 0 100 93h67q-16 -80 -62 -119.5t-109 -39.5z" />
    <glyph glyph-name="yen.tab" 
d="M205 0l35 180h-193l14 69h192l18 93h-194l13 69h169l-136 330h97l110 -295h2l227 295h104l-263 -330h167l-13 -69h-197l-18 -93h199l-14 -69h-198l-35 -180h-86z" />
    <glyph glyph-name="eight.den" horiz-adv-x="411" 
d="M228 436q62 0 100 -28.5t38 -81.5q0 -41 -24.5 -69.5t-63.5 -39.5v-2q65 -22 65 -89q0 -61 -48 -98t-126 -37q-74 0 -112 30t-38 84q0 45 28.5 76t76.5 42v2q-52 22 -52 82q0 57 44 93t112 36zM226 381q-37 0 -58 -22t-21 -54q0 -29 17.5 -45t47.5 -16q37 0 58 21t21 57
q0 28 -18.5 43.5t-46.5 15.5zM175 45q44 0 68 23t24 59q0 31 -23.5 47.5t-58.5 16.5q-43 0 -66.5 -22.5t-23.5 -60.5q0 -31 22 -47t58 -16z" />
    <glyph glyph-name="five.den" horiz-adv-x="398" 
d="M260 158q0 68 -70 69q-49 0 -80 -36h-65l68 239h249l-13 -62h-189l-35 -120h2q36 36 93 36q56 0 86.5 -32.5t30.5 -85.5q0 -77 -51.5 -126t-132.5 -49q-73 0 -108 32.5t-33 93.5h73q-1 -31 19.5 -48.5t51.5 -17.5q48 0 76 31.5t28 75.5z" />
    <glyph glyph-name="four.den" horiz-adv-x="408" 
d="M85 156h141l45 212h-2q-13 -33 -57 -79zM340 100h-58l-21 -100h-69l21 100h-216l10 54l259 276h85l-57 -271h58z" />
    <glyph glyph-name="nine.den" horiz-adv-x="406" 
d="M207 379q-43 0 -69 -30.5t-26 -69.5q2 -73 71 -73q44 0 70 30.5t26 70.5q0 32 -19 52t-53 20zM147 -9q-125 2 -132 110h70q7 -53 65 -53q93 0 125 159h-2q-41 -57 -112 -57q-53 0 -87 33t-34 87q-1 70 47.5 118t120.5 48q76 0 111.5 -43t35.5 -116q0 -44 -10.5 -90.5
t-32.5 -92.5t-65 -75t-100 -28z" />
    <glyph glyph-name="one.den" horiz-adv-x="273" 
d="M59 0l63 301h-90l11 56h13q44 0 69 18q23 19 33 56h64l-90 -431h-73z" />
    <glyph glyph-name="seven.den" horiz-adv-x="363" 
d="M13 0l249 367h-214l13 63h302l-10 -45l-260 -385h-80z" />
    <glyph glyph-name="six.den" horiz-adv-x="415" 
d="M377 326h-73q-2 25 -19.5 40t-47.5 15q-46 0 -78.5 -40.5t-46.5 -114.5h3q15 23 45.5 38t62.5 15q59 0 94 -33t35 -88q1 -70 -49 -118.5t-122 -48.5q-77 0 -114.5 42t-37.5 113q0 33 6 69t21 76t38 71.5t62 52.5t87 21q67 0 100.5 -31t33.5 -79zM180 47q43 0 69.5 29
t26.5 68q0 37 -19.5 58t-56.5 21q-41 0 -67.5 -26.5t-26.5 -71.5q0 -35 19 -56.5t55 -21.5z" />
    <glyph glyph-name="three.den" horiz-adv-x="401" 
d="M188 191h-48l12 55h48q36 0 59.5 20.5t23.5 54.5q0 27 -19 42.5t-50 15.5q-78 0 -88 -74h-70q4 57 47.5 94t115.5 37q62 0 99.5 -28t37.5 -81q0 -41 -26.5 -70t-67.5 -40v-2q69 -19 69 -89q0 -62 -49.5 -98.5t-124.5 -36.5q-71 0 -110.5 35t-35.5 97h71q0 -74 82 -74
q43 0 68 22t25 56q0 64 -69 64z" />
    <glyph glyph-name="two.den" horiz-adv-x="391" 
d="M114 291h-69q4 68 50.5 106.5t117.5 38.5q60 0 96.5 -28t36.5 -81q0 -48 -31 -86t-94 -86l-123 -93v-1h206l-12 -61h-317l9 48l184 146q5 4 17.5 13.5t17 13t14.5 12t13.5 12l11 11t10.5 12t7.5 12t6 13.5t3 13t1.5 15q0 26 -17 41.5t-47 15.5q-82 0 -92 -87z" />
    <glyph glyph-name="zero.den" horiz-adv-x="439" 
d="M30 146q0 46 11.5 94t35 93.5t66 74t97.5 28.5q72 0 110.5 -42.5t36.5 -117.5q-1 -49 -13 -97t-35.5 -91.5t-65 -70t-95.5 -26.5q-72 0 -110 40.5t-38 114.5zM180 49q41 0 71.5 41t43.5 92.5t13 100.5q0 94 -72 94q-42 0 -72.5 -43t-42.5 -94.5t-12 -99.5q0 -91 71 -91z
" />
    <glyph glyph-name="zero.num" horiz-adv-x="439" 
d="M94 480q0 46 11.5 94t35 93.5t66 74t97.5 28.5q72 0 110.5 -42.5t36.5 -117.5q-1 -49 -13 -97t-35.5 -91.5t-65 -70t-95.5 -26.5q-72 0 -110 40.5t-38 114.5zM244 383q41 0 71.5 41t43.5 92.5t13 100.5q0 94 -72 94q-42 0 -72.5 -43t-42.5 -94.5t-12 -99.5q0 -91 71 -91z
" />
    <glyph glyph-name="one.num" horiz-adv-x="273" 
d="M123 334l63 301h-90l11 56h13q44 0 69 18q23 19 33 56h64l-90 -431h-73z" />
    <glyph glyph-name="two.num" horiz-adv-x="391" 
d="M178 625h-69q4 68 50.5 106.5t117.5 38.5q60 0 96.5 -28t36.5 -81q0 -48 -31 -86t-94 -86l-123 -93v-1h206l-12 -61h-317l9 48l184 146q5 4 17.5 13.5t17 13t14.5 12t13.5 12l11 11t10.5 12t7.5 12t6 13.5t3 13t1.5 15q0 26 -17 41.5t-47 15.5q-82 0 -92 -87z" />
    <glyph glyph-name="three.num" horiz-adv-x="401" 
d="M252 525h-48l12 55h48q36 0 59.5 20.5t23.5 54.5q0 27 -19 42.5t-50 15.5q-78 0 -88 -74h-70q4 57 47.5 94t115.5 37q62 0 99.5 -28t37.5 -81q0 -41 -26.5 -70t-67.5 -40v-2q69 -19 69 -89q0 -62 -49.5 -98.5t-124.5 -36.5q-71 0 -110.5 35t-35.5 97h71q0 -74 82 -74
q43 0 68 22t25 56q0 64 -69 64z" />
    <glyph glyph-name="four.num" horiz-adv-x="408" 
d="M149 490h141l45 212h-2q-13 -33 -57 -79zM404 434h-58l-21 -100h-69l21 100h-216l10 54l259 276h85l-57 -271h58z" />
    <glyph glyph-name="five.num" horiz-adv-x="398" 
d="M324 492q0 68 -70 69q-49 0 -80 -36h-65l68 239h249l-13 -62h-189l-35 -120h2q36 36 93 36q56 0 86.5 -32.5t30.5 -85.5q0 -77 -51.5 -126t-132.5 -49q-73 0 -108 32.5t-33 93.5h73q-1 -31 19.5 -48.5t51.5 -17.5q48 0 76 31.5t28 75.5z" />
    <glyph glyph-name="six.num" horiz-adv-x="415" 
d="M441 660h-73q-2 25 -19.5 40t-47.5 15q-46 0 -78.5 -40.5t-46.5 -114.5h3q15 23 45.5 38t62.5 15q59 0 94 -33t35 -88q1 -70 -49 -118.5t-122 -48.5q-77 0 -114.5 42t-37.5 113q0 33 6 69t21 76t38 71.5t62 52.5t87 21q67 0 100.5 -31t33.5 -79zM244 381q43 0 69.5 29
t26.5 68q0 37 -19.5 58t-56.5 21q-41 0 -67.5 -26.5t-26.5 -71.5q0 -35 19 -56.5t55 -21.5z" />
    <glyph glyph-name="seven.num" horiz-adv-x="363" 
d="M77 334l249 367h-214l13 63h302l-10 -45l-260 -385h-80z" />
    <glyph glyph-name="eight.num" horiz-adv-x="411" 
d="M292 770q62 0 100 -28.5t38 -81.5q0 -41 -24.5 -69.5t-63.5 -39.5v-2q65 -22 65 -89q0 -61 -48 -98t-126 -37q-74 0 -112 30t-38 84q0 45 28.5 76t76.5 42v2q-52 22 -52 82q0 57 44 93t112 36zM290 715q-37 0 -58 -22t-21 -54q0 -29 17.5 -45t47.5 -16q37 0 58 21t21 57
q0 28 -18.5 43.5t-46.5 15.5zM239 379q44 0 68 23t24 59q0 31 -23.5 47.5t-58.5 16.5q-43 0 -66.5 -22.5t-23.5 -60.5q0 -31 22 -47t58 -16z" />
    <glyph glyph-name="nine.num" horiz-adv-x="406" 
d="M271 713q-43 0 -69 -30.5t-26 -69.5q2 -73 71 -73q44 0 70 30.5t26 70.5q0 32 -19 52t-53 20zM211 325q-125 2 -132 110h70q7 -53 65 -53q93 0 125 159h-2q-41 -57 -112 -57q-53 0 -87 33t-34 87q-1 70 47.5 118t120.5 48q76 0 111.5 -43t35.5 -116q0 -44 -10.5 -90.5
t-32.5 -92.5t-65 -75t-100 -28z" />
    <glyph glyph-name="minus.den" horiz-adv-x="398" 
d="M36 178l11 59h289l-12 -59h-288z" />
    <glyph glyph-name="plus.den" horiz-adv-x="396" 
d="M211 179l-24 -113h-66l24 113h-114l11 57h115l23 112h66l-23 -112h114l-11 -57h-115z" />
    <glyph glyph-name="parenleft.tab" horiz-adv-x="300" 
d="M236 -130h-67q-21 53 -33.5 89.5t-24 101t-11.5 133.5q0 299 236 594h73q-108 -150 -164.5 -295.5t-59.5 -314.5q-2 -147 51 -308z" />
    <glyph glyph-name="parenright.tab" horiz-adv-x="300" 
d="M97 788h67q21 -53 33.5 -89.5t24 -101t11.5 -133.5q0 -299 -236 -594h-73q108 150 164.5 295.5t59.5 314.5q2 147 -51 308z" />
    <glyph glyph-name="bracketleft.tab" horiz-adv-x="300" 
d="M26 -130l179 918h213l-13 -67h-132l-153 -784h132l-13 -67h-213z" />
    <glyph glyph-name="bracketright.tab" horiz-adv-x="300" 
d="M299 788l-179 -918h-213l13 67h132l153 784h-132l13 67h213z" />
    <glyph glyph-name="braceleft.tab" horiz-adv-x="300" 
d="M64 301h-24l15 74h24q43 0 62 15.5t27 57.5l40 211q15 78 67.5 109.5t153.5 23.5l-12 -62q-69 4 -97 -19t-39 -82l-37 -191q-4 -23 -8.5 -36t-14.5 -27.5t-27 -22.5t-43 -12l-1 -4q42 -12 52 -47.5t-2 -74.5l-36 -179q-12 -61 8.5 -79.5t89.5 -27.5l-13 -62
q-99 3 -140 42t-23 127l37 185q9 44 -5.5 62.5t-53.5 18.5z" />
    <glyph glyph-name="braceright.tab" horiz-adv-x="300" 
d="M265 358h24l-15 -74h-24q-43 0 -62 -15.5t-27 -57.5l-40 -211q-15 -78 -67.5 -109.5t-153.5 -23.5l12 62q69 -4 97 19t39 82l32 167q6 32 14.5 55t30 44t53.5 23l1 4q-42 12 -52 47.5t2 74.5l36 179q12 61 -8.5 79.5t-89.5 27.5l13 62q100 -3 140 -43.5t22 -132.5
l-36 -178q-9 -44 5.5 -62.5t53.5 -18.5z" />
    <glyph glyph-name="eight.sub" horiz-adv-x="411" 
d="M217 376q62 0 100 -28.5t38 -81.5q0 -41 -24.5 -69.5t-63.5 -39.5v-2q65 -22 65 -89q0 -61 -48 -98t-126 -37q-74 0 -112 30t-38 84q0 45 28.5 76t76.5 42v2q-52 22 -52 82q0 57 44 93t112 36zM215 321q-37 0 -58 -22t-21 -54q0 -29 17.5 -45t47.5 -16q37 0 58 21t21 57
q0 28 -18.5 43.5t-46.5 15.5zM164 -15q44 0 68 23t24 59q0 31 -23.5 47.5t-58.5 16.5q-43 0 -66.5 -22.5t-23.5 -60.5q0 -31 22 -47t58 -16z" />
    <glyph glyph-name="eight.sup" horiz-adv-x="411" 
d="M302 821q62 0 100 -28.5t38 -81.5q0 -41 -24.5 -69.5t-63.5 -39.5v-2q65 -22 65 -89q0 -61 -48 -98t-126 -37q-74 0 -112 30t-38 84q0 45 28.5 76t76.5 42v2q-52 22 -52 82q0 57 44 93t112 36zM300 766q-37 0 -58 -22t-21 -54q0 -29 17.5 -45t47.5 -16q37 0 58 21t21 57
q0 28 -18.5 43.5t-46.5 15.5zM249 430q44 0 68 23t24 59q0 31 -23.5 47.5t-58.5 16.5q-43 0 -66.5 -22.5t-23.5 -60.5q0 -31 22 -47t58 -16z" />
    <glyph glyph-name="five.sub" horiz-adv-x="398" 
d="M249 98q0 68 -70 69q-49 0 -80 -36h-65l68 239h249l-13 -62h-189l-35 -120h2q36 36 93 36q56 0 86.5 -32.5t30.5 -85.5q0 -77 -51.5 -126t-132.5 -49q-73 0 -108 32.5t-33 93.5h73q-1 -31 19.5 -48.5t51.5 -17.5q48 0 76 31.5t28 75.5z" />
    <glyph glyph-name="five.sup" horiz-adv-x="398" 
d="M334 543q0 68 -70 69q-49 0 -80 -36h-65l68 239h249l-13 -62h-189l-35 -120h2q36 36 93 36q56 0 86.5 -32.5t30.5 -85.5q0 -77 -51.5 -126t-132.5 -49q-73 0 -108 32.5t-33 93.5h73q-1 -31 19.5 -48.5t51.5 -17.5q48 0 76 31.5t28 75.5z" />
    <glyph glyph-name="four.sub" horiz-adv-x="408" 
d="M74 96h141l45 212h-2q-13 -33 -57 -79zM329 40h-58l-21 -100h-69l21 100h-216l10 54l259 276h85l-57 -271h58z" />
    <glyph glyph-name="four.sup" horiz-adv-x="408" 
d="M159 541h141l45 212h-2q-13 -33 -57 -79zM414 485h-58l-21 -100h-69l21 100h-216l10 54l259 276h85l-57 -271h58z" />
    <glyph glyph-name="minus.sub" horiz-adv-x="398" 
d="M25 118l11 59h289l-12 -59h-288z" />
    <glyph glyph-name="minus.sup" horiz-adv-x="398" 
d="M110 563l11 59h289l-12 -59h-288z" />
    <glyph glyph-name="nine.sub" horiz-adv-x="406" 
d="M196 319q-43 0 -69 -30.5t-26 -69.5q2 -73 71 -73q44 0 70 30.5t26 70.5q0 32 -19 52t-53 20zM136 -69q-125 2 -132 110h70q7 -53 65 -53q93 0 125 159h-2q-41 -57 -112 -57q-53 0 -87 33t-34 87q-1 70 47.5 118t120.5 48q76 0 111.5 -43t35.5 -116q0 -44 -10.5 -90.5
t-32.5 -92.5t-65 -75t-100 -28z" />
    <glyph glyph-name="nine.sup" horiz-adv-x="406" 
d="M281 764q-43 0 -69 -30.5t-26 -69.5q2 -73 71 -73q44 0 70 30.5t26 70.5q0 32 -19 52t-53 20zM221 376q-125 2 -132 110h70q7 -53 65 -53q93 0 125 159h-2q-41 -57 -112 -57q-53 0 -87 33t-34 87q-1 70 47.5 118t120.5 48q76 0 111.5 -43t35.5 -116q0 -44 -10.5 -90.5
t-32.5 -92.5t-65 -75t-100 -28z" />
    <glyph glyph-name="one.sub" horiz-adv-x="273" 
d="M48 -60l63 301h-90l11 56h13q43 0 69 18q23 19 33 56h64l-90 -431h-73z" />
    <glyph glyph-name="one.sup" horiz-adv-x="273" 
d="M133 385l63 301h-90l11 56h13q44 0 69 18q23 19 33 56h64l-90 -431h-73z" />
    <glyph glyph-name="plus.sub" horiz-adv-x="396" 
d="M200 119l-24 -113h-66l24 113h-114l11 57h115l23 112h66l-23 -112h114l-11 -57h-115z" />
    <glyph glyph-name="plus.sup" horiz-adv-x="396" 
d="M285 564l-24 -113h-66l24 113h-114l11 57h115l23 112h66l-23 -112h114l-11 -57h-115z" />
    <glyph glyph-name="seven.sub" horiz-adv-x="363" 
d="M2 -60l249 367h-214l13 63h302l-10 -45l-260 -385h-80z" />
    <glyph glyph-name="seven.sup" horiz-adv-x="363" 
d="M87 385l249 367h-214l13 63h302l-10 -45l-260 -385h-80z" />
    <glyph glyph-name="six.sub" horiz-adv-x="415" 
d="M366 266h-73q-2 25 -19.5 40t-47.5 15q-46 0 -78.5 -40.5t-46.5 -114.5h3q15 23 45.5 38t62.5 15q59 0 94 -33t35 -88q1 -70 -49 -118.5t-122 -48.5q-77 0 -114.5 42t-37.5 113q0 33 6 69t21 76t38 71.5t62 52.5t87 21q67 0 100.5 -31t33.5 -79zM169 -13q43 0 69.5 29
t26.5 68q0 37 -19.5 58t-56.5 21q-41 0 -67.5 -26.5t-26.5 -71.5q0 -35 19 -56.5t55 -21.5z" />
    <glyph glyph-name="six.sup" horiz-adv-x="415" 
d="M451 711h-73q-2 25 -19.5 40t-47.5 15q-46 0 -78.5 -40.5t-46.5 -114.5h3q15 23 45.5 38t62.5 15q59 0 94 -33t35 -88q1 -70 -49 -118.5t-122 -48.5q-77 0 -114.5 42t-37.5 113q0 33 6 69t21 76t38 71.5t62 52.5t87 21q67 0 100.5 -31t33.5 -79zM254 432q43 0 69.5 29
t26.5 68q0 37 -19.5 58t-56.5 21q-41 0 -67.5 -26.5t-26.5 -71.5q0 -35 19 -56.5t55 -21.5z" />
    <glyph glyph-name="three.sub" horiz-adv-x="401" 
d="M177 131h-48l12 55h48q36 0 59.5 20.5t23.5 54.5q0 27 -19 42.5t-50 15.5q-78 0 -88 -74h-70q4 57 47.5 94t115.5 37q62 0 99.5 -28t37.5 -81q0 -41 -26.5 -70t-67.5 -40v-2q69 -19 69 -89q0 -62 -49.5 -98.5t-124.5 -36.5q-71 0 -110.5 35t-35.5 97h71q0 -74 82 -74
q43 0 68 22t25 56q0 64 -69 64z" />
    <glyph glyph-name="three.sup" horiz-adv-x="401" 
d="M262 576h-48l12 55h48q36 0 59.5 20.5t23.5 54.5q0 27 -19 42.5t-50 15.5q-78 0 -88 -74h-70q4 57 47.5 94t115.5 37q62 0 99.5 -28t37.5 -81q0 -41 -26.5 -70t-67.5 -40v-2q69 -19 69 -89q0 -62 -49.5 -98.5t-124.5 -36.5q-71 0 -110.5 35t-35.5 97h71q0 -74 82 -74
q43 0 68 22t25 56q0 64 -69 64z" />
    <glyph glyph-name="two.sub" horiz-adv-x="391" 
d="M103 231h-69q4 68 50.5 106.5t117.5 38.5q60 0 96.5 -28t36.5 -81q0 -48 -31 -86t-94 -86l-123 -93v-1h206l-12 -61h-317l9 48l184 146q5 4 17.5 13.5t17 13t14.5 12t13.5 12l11 11t10.5 12t7.5 12t6 13.5t3 13t1.5 15q0 26 -17 41.5t-47 15.5q-82 0 -92 -87z" />
    <glyph glyph-name="two.sup" horiz-adv-x="391" 
d="M188 676h-69q4 68 50.5 106.5t117.5 38.5q60 0 96.5 -28t36.5 -81q0 -48 -31 -86t-94 -86l-123 -93v-1h206l-12 -61h-317l9 48l184 146q5 4 17.5 13.5t17 13t14.5 12t13.5 12l11 11t10.5 12t7.5 12t6 13.5t3 13t1.5 15q0 26 -17 41.5t-47 15.5q-82 0 -92 -87z" />
    <glyph glyph-name="zero.sub" horiz-adv-x="439" 
d="M19 86q0 46 11.5 94t35 93.5t66 74t97.5 28.5q72 0 110.5 -42.5t36.5 -117.5q-1 -49 -13 -97t-35.5 -91.5t-65 -70t-95.5 -26.5q-72 0 -110 40.5t-38 114.5zM169 -11q41 0 71.5 41t43.5 92.5t13 100.5q0 94 -72 94q-42 0 -72.5 -43t-42.5 -94.5t-12 -99.5q0 -91 71 -91z
" />
    <glyph glyph-name="zero.sup" horiz-adv-x="439" 
d="M104 531q0 46 11.5 94t35 93.5t66 74t97.5 28.5q72 0 110.5 -42.5t36.5 -117.5q-1 -49 -13 -97t-35.5 -91.5t-65 -70t-95.5 -26.5q-72 0 -110 40.5t-38 114.5zM254 434q41 0 71.5 41t43.5 92.5t13 100.5q0 94 -72 94q-42 0 -72.5 -43t-42.5 -94.5t-12 -99.5q0 -91 71 -91
z" />
    <glyph glyph-name="Q.old" horiz-adv-x="802" 
d="M581 -97l-70 108q-61 -27 -136 -27q-137 0 -215.5 86t-78.5 221q0 207 113 346t284 139q137 0 213 -85.5t76 -223.5q0 -121 -48 -235t-136 -180l68 -105zM175 289q0 -47 10.5 -86t33.5 -72.5t65.5 -52.5t100.5 -19q46 0 85 15l-70 107l71 45l70 -109q65 58 98.5 155.5
t33.5 196.5q0 100 -48 166.5t-152 66.5q-64 0 -116.5 -28t-85 -71.5t-55 -99.5t-32 -109.5t-9.5 -104.5z" />
    <glyph glyph-name="Q.scold" horiz-adv-x="688" 
d="M488 -80l-62 90q-54 -23 -113 -23q-114 0 -182 65t-68 174q0 66 12.5 127t39.5 116t65.5 95.5t94 64.5t122.5 24q115 0 182 -65.5t67 -172.5q0 -114 -39 -212t-113 -154l57 -85zM155 226q0 -74 42 -121.5t129 -47.5q34 0 62 9l-59 86l64 45l62 -91q52 48 75.5 131.5
t23.5 175.5q0 74 -41 120.5t-122 46.5q-53 0 -95 -23t-67.5 -59.5t-43 -84.5t-24 -94t-6.5 -93z" />
    <glyph glyph-name="Euro.tab" 
d="M567 207q-28 -103 -94.5 -163t-171.5 -60q-98 0 -150 65.5t-45 201.5h-83l14 71h76q2 12 8 46q7 33 10 45h-78l14 71h83q43 137 115 202.5t180 65.5q91 0 141.5 -63t36.5 -161h-87q14 150 -106 150q-72 0 -116.5 -47.5t-73.5 -146.5h215l-14 -71h-220q-5 -21 -9 -45
q-6 -34 -8 -46h221l-14 -71h-216q-8 -101 21 -146.5t99 -45.5q58 0 101.5 42t62.5 106h88z" />
    <glyph glyph-name="dollar.tab" 
d="M308 441l46 237q-59 -5 -97 -38t-38 -88q0 -80 89 -111zM300 66h5q65 7 111 45t46 101q0 46 -26 74t-84 49zM265 -116h-65l22 111q-90 12 -140.5 67.5t-44.5 159.5h88q-3 -136 111 -154l56 288l-20 7q-140 46 -140 175q0 93 66 150.5t170 61.5l15 78h65l-16 -82
q83 -13 129.5 -66t40.5 -147h-87q4 54 -21 91.5t-76 49.5l-49 -254l19 -7q89 -32 126 -76t37 -118q0 -100 -74.5 -161.5t-190.5 -65.5z" />
    <glyph glyph-name="dieresis.uc" horiz-adv-x="369" 
d="M235 822l19 99h90l-19 -99h-90zM23 822l19 99h90l-19 -99h-90z" />
    <glyph glyph-name="zero.tab" 
d="M58 233q0 57 9.5 121.5t33.5 136.5t60 129t94.5 94.5t131.5 37.5q103 0 155.5 -66t52.5 -183q0 -57 -9.5 -121.5t-33.5 -136.5t-59.5 -129t-94 -94.5t-131.5 -37.5q-103 0 -156 66t-53 183zM277 58q59 0 105.5 50t71.5 124.5t37.5 146.5t12.5 130q0 169 -125 169
q-60 0 -107 -50t-72 -124.5t-37.5 -146.5t-12.5 -130q0 -169 127 -169z" />
    <glyph glyph-name="one.tab" 
d="M476 0h-384l15 75h148l91 471h-160l12 64h37q72 0 111 36q39 31 55 98h72l-129 -669h147z" />
    <glyph glyph-name="nine.tab" 
d="M505 535q0 65 -37 103t-97 38q-78 0 -122.5 -59t-44.5 -131q0 -59 32.5 -96t92.5 -37q82 0 129 52.5t47 129.5zM60 167h85q0 -50 28.5 -81t83.5 -31q173 0 235 312h-4q-59 -89 -180 -89q-86 0 -141 56.5t-55 146.5q0 110 75.5 190.5t187.5 80.5q57 0 101 -20.5t69 -54.5
t37.5 -74.5t12.5 -84.5q0 -70 -10.5 -140.5t-36.5 -142.5t-64 -126.5t-98.5 -89t-134.5 -34.5q-92 0 -143 52.5t-48 129.5z" />
    <glyph glyph-name="eight.tab" 
d="M383 752q90 0 150 -52t60 -137q0 -69 -42.5 -123t-105.5 -71v-2q44 -14 75 -53.5t31 -98.5q0 -106 -78 -168.5t-191 -62.5q-105 0 -168.5 51.5t-63.5 142.5q0 76 48 131t124 73v2q-37 16 -61.5 55.5t-24.5 90.5q0 98 72.5 160t174.5 62zM377 680q-70 0 -110.5 -44
t-40.5 -112q0 -54 35.5 -84.5t90.5 -30.5q67 0 109 43t42 111q0 53 -36.5 85t-89.5 32zM288 56q80 0 126 44t46 115q0 61 -43.5 92.5t-105.5 31.5q-79 0 -124.5 -44.5t-45.5 -114.5q0 -61 41 -92.5t106 -31.5z" />
    <glyph glyph-name="seven.tab" 
d="M87 0l415 660h-380l16 81h483l-12 -59l-429 -682h-93z" />
    <glyph glyph-name="six.tab" 
d="M584 581h-85q0 46 -29 72.5t-76 26.5q-163 0 -228 -298h4q61 92 180 92q90 0 144.5 -54t54.5 -144q0 -125 -76.5 -208t-193.5 -83q-111 0 -166 68.5t-55 172.5q0 67 11.5 137t38.5 140.5t65 125.5t97 89t130 34q86 0 136 -48t48 -123zM282 61q80 0 127 60t47 141
q0 64 -36 99.5t-97 35.5q-78 0 -126.5 -57.5t-48.5 -134.5q0 -66 36 -105t98 -39z" />
    <glyph glyph-name="five.tab" 
d="M52 193h90q-1 -66 33 -99t96 -33q85 0 134 64.5t49 151.5q0 134 -121 134q-96 0 -145 -65h-80l99 395h374l-16 -80h-298l-55 -232h2q23 24 60.5 41.5t80.5 17.5q92 0 142.5 -55t50.5 -143q0 -130 -77.5 -217.5t-202.5 -87.5q-103 0 -163 57t-53 151z" />
    <glyph glyph-name="space_uni0326.alt" horiz-adv-x="369" 
d="M254 771l-49 -137h-95l88 137h56z" />
    <glyph glyph-name="four.tab" 
d="M142 257h242l73 375h-3q-21 -34 -59 -78zM547 182h-94l-35 -182h-84l35 182h-338l13 70l417 489h101l-94 -483h94z" />
    <glyph glyph-name="three.tab" 
d="M327 336h-45l16 82h35q71 0 112.5 37.5t41.5 105.5q0 55 -34 85t-90 30q-64 0 -106.5 -36t-52.5 -111h-90q9 100 79 161.5t173 61.5q96 0 153.5 -50t57.5 -135q0 -72 -41 -121.5t-107 -70.5v-2q47 -14 77.5 -55t30.5 -105q0 -101 -75 -164.5t-183 -63.5
q-116 0 -178.5 59.5t-55.5 163.5h89q2 -146 150 -146q75 0 119.5 43t44.5 109q0 55 -31 88.5t-90 33.5z" />
    <glyph glyph-name="uni021A.sc" horiz-adv-x="564" 
d="M386 567l-111 -567h-89l111 567h-208l14 77h506l-14 -77h-209zM124 -206l49 137h95l-88 -137h-56z" />
    <glyph glyph-name="two.tab" 
d="M124 514q8 121 77 179.5t178 58.5q88 0 142.5 -47t53.5 -135q-1 -85 -48.5 -150.5t-126.5 -130.5l-251 -208v-1h357l-15 -80h-482l13 69l278 234q47 40 63 54.5t47.5 46.5t43 51t22 48t10.5 58q0 55 -29.5 85.5t-88.5 30.5q-140 0 -159 -163h-85z" />
    </font>
</defs>
</svg>
