<svg height='100px' width='100px'  fill="#005197" xmlns="http://www.w3.org/2000/svg" version="1.1" viewBox="0 0 41 41" x="0px" y="0px"><title>right-arrow</title><path d="M20.5 2.293c-10.045 0-18.207 8.163-18.207 18.207s8.163 18.207 18.207 18.207c10.044 0 18.207-8.163 18.207-18.207s-8.163-18.207-18.207-18.207zM20.5 2.999c9.645 0 17.501 7.856 17.501 17.501s-7.856 17.501-17.501 17.501c-9.645 0-17.501-7.856-17.501-17.501s7.856-17.501 17.501-17.501zM23.385 14.869c-0.088 0-0.176 0.032-0.249 0.105-0.147 0.147-0.147 0.35 0 0.496l4.679 4.679h-15.478c-0.206 0-0.357 0.151-0.357 0.357s0.146 0.35 0.357 0.35h15.471l-4.679 4.679c-0.147 0.147-0.147 0.35 0 0.496 0.074 0.074 0.157 0.105 0.254 0.105s0.176-0.030 0.252-0.105l5.281-5.281c0.147-0.147 0.147-0.35 0-0.496l-5.281-5.281c-0.073-0.073-0.161-0.105-0.249-0.105z"></path></svg>